EncodeSans-Bold.ufo
<glyph name="exclam" format="2">
  <advance width="596.2323232323232"/>
  <unicode hex="0021"/>
  <outline>
    <contour>
      <point x="202.510101010101" y="467.6363636363636" type="line"/>
      <point x="397.2323232323232" y="467.6363636363636" type="line"/>
      <point x="467.49999999999994" y="964.4141414141413" type="line"/>
      <point x="467.49999999999994" y="1480.0" type="line"/>
      <point x="128.73232323232324" y="1480.0" type="line"/>
      <point x="128.73232323232324" y="964.4141414141413" type="line"/>
    </contour>
    <contour>
      <point x="298.1161616161616" y="-17.02020202020202" type="curve" smooth="yes"/>
      <point x="423.27272727272725" y="-17.02020202020202"/>
      <point x="504.7323232323232" y="56.82323232323232"/>
      <point x="504.7323232323232" y="167.1313131313131" type="curve" smooth="yes"/>
      <point x="504.7323232323232" y="277.4393939393939"/>
      <point x="426.0808080808081" y="351.8787878787878"/>
      <point x="298.1161616161616" y="351.8787878787878" type="curve" smooth="yes"/>
      <point x="170.15151515151516" y="351.8787878787878"/>
      <point x="91.50000000000001" y="280.2474747474747"/>
      <point x="91.50000000000001" y="167.1313131313131" type="curve" smooth="yes"/>
      <point x="91.50000000000001" y="54.01515151515151"/>
      <point x="172.95959595959596" y="-17.02020202020202"/>
    </contour>
  </outline>
</glyph>
<glyph name="numbersign" format="2">
  <advance width="1254.4444444444443"/>
  <unicode hex="0023"/>
  <outline>
    <contour>
      <point x="638.060606060606" y="0.0" type="line"/>
      <point x="883.0757575757575" y="0.0" type="line"/>
      <point x="1037.0757575757575" y="1480.0" type="line"/>
      <point x="792.060606060606" y="1480.0" type="line"/>
    </contour>
    <contour>
      <point x="100.0" y="392.90909090909093" type="line"/>
      <point x="1154.4444444444443" y="392.90909090909093" type="line"/>
      <point x="1154.4444444444443" y="634.4141414141413" type="line"/>
      <point x="100.0" y="634.4141414141413" type="line"/>
    </contour>
    <contour>
      <point x="217.3686868686869" y="0.0" type="line"/>
      <point x="462.38383838383834" y="0.0" type="line"/>
      <point x="616.3838383838383" y="1480.0" type="line"/>
      <point x="371.3686868686869" y="1480.0" type="line"/>
    </contour>
    <contour>
      <point x="100.0" y="845.5858585858587" type="line"/>
      <point x="1154.4444444444443" y="845.5858585858587" type="line"/>
      <point x="1154.4444444444443" y="1087.090909090909" type="line"/>
      <point x="100.0" y="1087.090909090909" type="line"/>
    </contour>
  </outline>
</glyph>
<glyph name="dollar" format="2">
  <advance width="1153.2121212121212"/>
  <unicode hex="0024"/>
  <outline>
    <contour>
      <point x="495.5656565656566" y="-19.404040404040405" type="curve" smooth="yes"/>
      <point x="877.7676767676767" y="-19.404040404040405"/>
      <point x="1098.3989898989898" y="153.18686868686868"/>
      <point x="1098.3989898989898" y="436.8636363636364" type="curve" smooth="yes"/>
      <point x="1098.3989898989898" y="664.2222222222222"/>
      <point x="966.4646464646464" y="797.2626262626262"/>
      <point x="679.4040404040404" y="868.070707070707" type="curve" smooth="yes"/>
      <point x="568.2626262626262" y="896.7070707070707" type="line" smooth="yes"/>
      <point x="421.20707070707067" y="935.9444444444445"/>
      <point x="378.13636363636357" y="979.1212121212121"/>
      <point x="378.13636363636357" y="1066.1565656565656" type="curve" smooth="yes"/>
      <point x="378.13636363636357" y="1168.767676767677"/>
      <point x="456.3787878787879" y="1237.5404040404042"/>
      <point x="701.6161616161615" y="1237.5404040404042" type="curve" smooth="yes"/>
      <point x="805.6161616161615" y="1237.5404040404042"/>
      <point x="927.6767676767677" y="1222.1363636363637"/>
      <point x="1022.1464646464647" y="1195.4545454545455" type="curve"/>
      <point x="1022.1464646464647" y="1459.3181818181818" type="line"/>
      <point x="928.3383838383838" y="1483.70202020202"/>
      <point x="805.5101010101009" y="1499.4040404040404"/>
      <point x="681.0454545454545" y="1499.4040404040404" type="curve" smooth="yes"/>
      <point x="258.9343434343434" y="1499.4040404040404"/>
      <point x="54.81313131313132" y="1331.0454545454545"/>
      <point x="54.81313131313132" y="1048.8181818181818" type="curve" smooth="yes"/>
      <point x="54.81313131313132" y="821.7575757575758"/>
      <point x="188.15151515151516" y="687.7171717171717"/>
      <point x="448.48989898989896" y="623.0151515151515" type="curve" smooth="yes"/>
      <point x="559.6313131313132" y="594.3787878787879" type="line" smooth="yes"/>
      <point x="725.2171717171717" y="551.0353535353536"/>
      <point x="775.0757575757576" y="506.94444444444446"/>
      <point x="775.0757575757576" y="414.9090909090909" type="curve" smooth="yes"/>
      <point x="775.0757575757576" y="306.02020202020196"/>
      <point x="699.959595959596" y="242.4595959595959"/>
      <point x="491.14141414141415" y="242.4595959595959" type="curve" smooth="yes"/>
      <point x="375.50505050505046" y="242.4595959595959"/>
      <point x="215.17171717171718" y="265.07575757575756"/>
      <point x="90.46969696969697" y="304.26767676767673" type="curve"/>
      <point x="90.46969696969697" y="40.4040404040404" type="line"/>
      <point x="211.2979797979798" y="2.1060606060606055"/>
      <point x="359.57070707070704" y="-19.404040404040405"/>
    </contour>
    <contour>
      <point x="426.9646464646465" y="-240.0" type="line"/>
      <point x="726.8434343434343" y="-240.0" type="line"/>
      <point x="726.8434343434343" y="59.14141414141413" type="line"/>
      <point x="426.9646464646465" y="56.16161616161615" type="line"/>
    </contour>
    <contour>
      <point x="426.9646464646465" y="1437.878787878788" type="line"/>
      <point x="726.8434343434343" y="1437.878787878788" type="line"/>
      <point x="726.8434343434343" y="1720.0" type="line"/>
      <point x="426.9646464646465" y="1720.0" type="line"/>
    </contour>
  </outline>
</glyph>
<glyph name="percent" format="2">
  <advance width="2094.0252525252527"/>
  <unicode hex="0025"/>
  <note>
450
</note>
  <outline>
    <contour>
      <point x="584.8585858585858" y="0.0" type="line"/>
      <point x="845.4040404040404" y="0.0" type="line"/>
      <point x="1509.1666666666665" y="1480.0" type="line"/>
      <point x="1248.621212121212" y="1480.0" type="line"/>
    </contour>
    <contour>
      <point x="484.8838383838384" y="569.5757575757576" type="curve" smooth="yes"/>
      <point x="722.5555555555555" y="569.5757575757576"/>
      <point x="886.060606060606" y="719.6565656565657"/>
      <point x="886.060606060606" y="1034.489898989899" type="curve" smooth="yes"/>
      <point x="886.060606060606" y="1349.3232323232323"/>
      <point x="723.4494949494949" y="1499.4040404040404"/>
      <point x="484.8838383838384" y="1499.4040404040404" type="curve" smooth="yes"/>
      <point x="246.3181818181818" y="1499.4040404040404"/>
      <point x="83.70707070707071" y="1349.3232323232323"/>
      <point x="83.70707070707071" y="1034.489898989899" type="curve" smooth="yes"/>
      <point x="83.70707070707071" y="719.6565656565657"/>
      <point x="247.21212121212122" y="569.5757575757576"/>
    </contour>
    <contour>
      <point x="484.8838383838384" y="769.469696969697" type="curve" smooth="yes"/>
      <point x="396.93939393939394" y="769.469696969697"/>
      <point x="334.6363636363636" y="835.070707070707"/>
      <point x="334.6363636363636" y="1035.0858585858587" type="curve" smooth="yes"/>
      <point x="334.6363636363636" y="1234.5050505050506"/>
      <point x="396.93939393939394" y="1299.5101010101012"/>
      <point x="484.8838383838384" y="1299.5101010101012" type="curve" smooth="yes"/>
      <point x="572.530303030303" y="1299.5101010101012"/>
      <point x="635.1313131313132" y="1234.5050505050506"/>
      <point x="635.1313131313132" y="1033.8939393939395" type="curve" smooth="yes"/>
      <point x="635.1313131313132" y="833.8787878787879"/>
      <point x="572.530303030303" y="769.469696969697"/>
    </contour>
    <contour>
      <point x="1609.141414141414" y="-18.0" type="curve" smooth="yes"/>
      <point x="1847.111111111111" y="-18.0"/>
      <point x="2010.3181818181818" y="132.08080808080808"/>
      <point x="2010.3181818181818" y="446.9141414141414" type="curve" smooth="yes"/>
      <point x="2010.3181818181818" y="761.7474747474747"/>
      <point x="1847.4090909090908" y="911.8282828282828"/>
      <point x="1609.141414141414" y="911.8282828282828" type="curve" smooth="yes"/>
      <point x="1370.8737373737372" y="911.8282828282828"/>
      <point x="1207.9646464646464" y="761.7474747474747"/>
      <point x="1207.9646464646464" y="446.9141414141414" type="curve" smooth="yes"/>
      <point x="1207.9646464646464" y="132.08080808080808"/>
      <point x="1371.171717171717" y="-18.0"/>
    </contour>
    <contour>
      <point x="1609.141414141414" y="181.89393939393935" type="curve" smooth="yes"/>
      <point x="1521.4949494949494" y="181.89393939393935"/>
      <point x="1458.8939393939393" y="247.49494949494948"/>
      <point x="1458.8939393939393" y="447.510101010101" type="curve" smooth="yes"/>
      <point x="1458.8939393939393" y="646.929292929293"/>
      <point x="1521.4949494949494" y="711.9343434343434"/>
      <point x="1609.141414141414" y="711.9343434343434" type="curve" smooth="yes"/>
      <point x="1696.7878787878788" y="711.9343434343434"/>
      <point x="1759.388888888889" y="646.929292929293"/>
      <point x="1759.388888888889" y="446.3181818181818" type="curve" smooth="yes"/>
      <point x="1759.388888888889" y="246.30303030303028"/>
      <point x="1696.7878787878788" y="181.89393939393935"/>
    </contour>
  </outline>
</glyph>
<glyph name="ampersand" format="2">
  <advance width="1602.4848484848485"/>
  <unicode hex="0026"/>
  <outline>
    <contour>
      <point x="1454.7777777777778" y="-20.0" type="line"/>
      <point x="1602.4848484848485" y="216.63131313131308" type="line"/>
      <point x="727.5252525252525" y="805.060606060606" type="line" smooth="yes"/>
      <point x="604.5505050505051" y="894.5656565656566"/>
      <point x="565.6969696969696" y="953.3383838383838"/>
      <point x="565.6969696969696" y="1038.1363636363637" type="curve" smooth="yes"/>
      <point x="565.6969696969696" y="1162.0656565656566"/>
      <point x="645.8737373737374" y="1237.5404040404042"/>
      <point x="885.7727272727273" y="1237.5404040404042" type="curve" smooth="yes"/>
      <point x="966.2626262626262" y="1237.5404040404042"/>
      <point x="1054.3030303030303" y="1227.1363636363637"/>
      <point x="1124.9848484848485" y="1211.4545454545455" type="curve"/>
      <point x="1124.9848484848485" y="1475.3181818181818" type="line"/>
      <point x="1047.7525252525252" y="1489.8080808080808"/>
      <point x="962.4343434343434" y="1499.4040404040404"/>
      <point x="862.0959595959596" y="1499.4040404040404" type="curve" smooth="yes"/>
      <point x="442.6010101010101" y="1499.4040404040404"/>
      <point x="242.37373737373738" y="1328.1313131313132"/>
      <point x="242.37373737373738" y="1044.858585858586" type="curve" smooth="yes"/>
      <point x="242.37373737373738" y="885.8131313131313"/>
      <point x="311.6515151515152" y="747.3686868686868"/>
      <point x="579.8181818181819" y="568.429292929293" type="curve" smooth="yes"/>
    </contour>
    <contour>
      <point x="694.2727272727273" y="-18.0" type="curve" smooth="yes"/>
      <point x="1110.3030303030303" y="-18.0"/>
      <point x="1361.4646464646464" y="195.0151515151515"/>
      <point x="1361.4646464646464" y="610.8737373737373" type="curve" smooth="yes"/>
      <point x="1361.4646464646464" y="688.5353535353535"/>
      <point x="1349.8686868686868" y="779.5151515151515"/>
      <point x="1327.8888888888887" y="862.4949494949494" type="curve"/>
      <point x="1071.1515151515152" y="862.4949494949494" type="line"/>
      <point x="1093.4292929292928" y="779.5151515151515"/>
      <point x="1106.621212121212" y="686.5353535353535"/>
      <point x="1106.621212121212" y="608.0656565656566" type="curve" smooth="yes"/>
      <point x="1106.621212121212" y="314.87373737373736"/>
      <point x="950.959595959596" y="210.86868686868684"/>
      <point x="730.6717171717171" y="210.86868686868684" type="curve" smooth="yes"/>
      <point x="531.7828282828282" y="210.86868686868684"/>
      <point x="426.96969696969694" y="298.1969696969697"/>
      <point x="426.96969696969694" y="440.2929292929293" type="curve" smooth="yes"/>
      <point x="426.96969696969694" y="543.0252525252525"/>
      <point x="473.78282828282823" y="616.6919191919192"/>
      <point x="556.4545454545455" y="671.0353535353536" type="curve"/>
      <point x="389.9848484848485" y="796.1313131313132" type="line"/>
      <point x="226.72727272727272" y="738.510101010101"/>
      <point x="105.05050505050505" y="598.4242424242424"/>
      <point x="105.05050505050505" y="404.80808080808083" type="curve" smooth="yes"/>
      <point x="105.05050505050505" y="149.78787878787878"/>
      <point x="303.72727272727275" y="-18.0"/>
    </contour>
  </outline>
</glyph>
<glyph name="quotesingle" format="2">
  <advance width="475.85858585858585"/>
  <unicode hex="0027"/>
  <outline>
    <contour>
      <point x="140.70707070707073" y="845.0808080808081" type="line"/>
      <point x="335.1515151515151" y="845.0808080808081" type="line"/>
      <point x="395.16666666666663" y="1616.0" type="line"/>
      <point x="80.6919191919192" y="1616.0" type="line"/>
    </contour>
  </outline>
</glyph>
<glyph name="parenleft" format="2">
  <advance width="715.8585858585859"/>
  <unicode hex="0028"/>
  <outline>
    <contour>
      <point x="446.0050505050505" y="-440.0" type="curve"/>
      <point x="779.1363636363636" y="-440.0" type="line"/>
      <point x="532.4343434343434" y="-135.72222222222223"/>
      <point x="430.4343434343434" y="194.83333333333334"/>
      <point x="430.4343434343434" y="588.0" type="curve" smooth="yes"/>
      <point x="430.4343434343434" y="981.1666666666666"/>
      <point x="532.4343434343434" y="1311.7222222222222"/>
      <point x="779.1363636363636" y="1616.0" type="curve"/>
      <point x="446.0050505050505" y="1616.0" type="line"/>
      <point x="203.38888888888889" y="1338.5707070707072"/>
      <point x="103.6010101010101" y="985.7626262626262"/>
      <point x="103.6010101010101" y="588.0" type="curve" smooth="yes"/>
      <point x="103.6010101010101" y="190.23737373737373"/>
      <point x="203.38888888888889" y="-162.57070707070707"/>
    </contour>
  </outline>
</glyph>
<glyph name="parenright" format="2">
  <advance width="715.8585858585859"/>
  <unicode hex="0029"/>
  <outline>
    <contour>
      <point x="-63.27777777777774" y="-440.0" type="curve"/>
      <point x="269.85353535353534" y="-440.0" type="line"/>
      <point x="512.469696969697" y="-162.57070707070707"/>
      <point x="612.2575757575758" y="190.23737373737373"/>
      <point x="612.2575757575758" y="588.0" type="curve" smooth="yes"/>
      <point x="612.2575757575758" y="985.7626262626262"/>
      <point x="512.469696969697" y="1338.5707070707072"/>
      <point x="269.85353535353534" y="1616.0" type="curve"/>
      <point x="-63.27777777777774" y="1616.0" type="line"/>
      <point x="183.42424242424244" y="1311.7222222222222"/>
      <point x="285.42424242424244" y="981.1666666666666"/>
      <point x="285.42424242424244" y="588.0" type="curve" smooth="yes"/>
      <point x="285.42424242424244" y="194.83333333333334"/>
      <point x="183.42424242424244" y="-135.72222222222223"/>
    </contour>
  </outline>
</glyph>
<glyph name="asterisk" format="2">
  <advance width="1005.5959595959596"/>
  <unicode hex="002A"/>
  <outline>
    <contour>
      <point x="621.4646464646464" y="1138.5" type="line"/>
      <point x="808.9343434343434" y="1164.0353535353536" type="line"/>
      <point x="975.5959595959596" y="1217.8232323232323" type="line"/>
      <point x="909.9646464646464" y="1418.9292929292928" type="line"/>
      <point x="743.8989898989898" y="1364.439393939394" type="line"/>
      <point x="572.8535353535353" y="1270.9949494949494" type="line"/>
      <point x="608.5101010101009" y="1463.060606060606" type="line"/>
      <point x="608.5101010101009" y="1616.0" type="line"/>
      <point x="397.0858585858586" y="1616.0" type="line"/>
      <point x="397.0858585858586" y="1463.060606060606" type="line"/>
      <point x="432.74242424242425" y="1270.9949494949494" type="line"/>
      <point x="261.6969696969697" y="1364.439393939394" type="line"/>
      <point x="95.63131313131312" y="1418.9292929292928" type="line"/>
      <point x="30.0" y="1217.8232323232323" type="line"/>
      <point x="196.66161616161617" y="1164.0353535353536" type="line"/>
      <point x="384.13131313131316" y="1138.5" type="line"/>
      <point x="245.11111111111111" y="1006.3686868686868" type="line"/>
      <point x="152.85353535353536" y="878.9191919191919" type="line"/>
      <point x="324.1969696969697" y="754.5707070707072" type="line"/>
      <point x="416.45454545454544" y="881.3181818181819" type="line"/>
      <point x="502.7979797979798" y="1065.1464646464647" type="line"/>
      <point x="589.1414141414141" y="881.3181818181819" type="line"/>
      <point x="681.3989898989898" y="754.5707070707072" type="line"/>
      <point x="852.7424242424242" y="878.9191919191919" type="line"/>
      <point x="760.4848484848485" y="1006.3686868686868" type="line"/>
    </contour>
  </outline>
</glyph>
<glyph name="plus" format="2">
  <advance width="1099.909090909091"/>
  <unicode hex="002B"/>
  <outline>
    <contour>
      <point x="422.5858585858586" y="319.03030303030306" type="line"/>
      <point x="677.3232323232323" y="319.03030303030306" type="line"/>
      <point x="677.3232323232323" y="638.1414141414142" type="line"/>
      <point x="982.7525252525252" y="638.1414141414142" type="line"/>
      <point x="982.7525252525252" y="881.8585858585858" type="line"/>
      <point x="677.3232323232323" y="881.8585858585858" type="line"/>
      <point x="677.3232323232323" y="1200.969696969697" type="line"/>
      <point x="422.5858585858586" y="1200.969696969697" type="line"/>
      <point x="422.5858585858586" y="881.8585858585858" type="line"/>
      <point x="117.15656565656568" y="881.8585858585858" type="line"/>
      <point x="117.15656565656568" y="638.1414141414142" type="line"/>
      <point x="422.5858585858586" y="638.1414141414142" type="line"/>
    </contour>
  </outline>
</glyph>
<glyph name="hyphen" format="2">
  <advance width="908.9191919191919"/>
  <unicode hex="002D"/>
  <outline>
    <contour>
      <point x="117.15656565656568" y="437.43939393939394" type="line"/>
      <point x="791.7626262626262" y="437.43939393939394" type="line"/>
      <point x="791.7626262626262" y="696.60101010101" type="line"/>
      <point x="117.15656565656568" y="696.60101010101" type="line"/>
    </contour>
  </outline>
</glyph>
<glyph name="period" format="2">
  <advance width="556.2323232323232"/>
  <unicode hex="002E"/>
  <outline>
    <contour>
      <point x="278.1161616161616" y="-17.02020202020202" type="curve" smooth="yes"/>
      <point x="403.27272727272725" y="-17.02020202020202"/>
      <point x="484.7323232323232" y="59.63131313131312"/>
      <point x="484.7323232323232" y="176.25757575757575" type="curve" smooth="yes"/>
      <point x="484.7323232323232" y="292.88383838383834"/>
      <point x="406.0808080808081" y="370.13131313131305"/>
      <point x="278.1161616161616" y="370.13131313131305" type="curve" smooth="yes"/>
      <point x="150.15151515151516" y="370.13131313131305"/>
      <point x="71.50000000000001" y="295.69191919191917"/>
      <point x="71.50000000000001" y="176.25757575757575" type="curve" smooth="yes"/>
      <point x="71.50000000000001" y="56.82323232323232"/>
      <point x="152.95959595959596" y="-17.02020202020202"/>
    </contour>
  </outline>
</glyph>
<glyph name="zero" format="2">
  <advance width="1337.70202020202"/>
  <unicode hex="0030"/>
  <note>
600
</note>
  <outline>
    <contour>
      <point x="668.5" y="-19.404040404040405" type="curve" smooth="yes"/>
      <point x="1025.8080808080808" y="-19.404040404040405"/>
      <point x="1244.1010101010102" y="210.29292929292927"/>
      <point x="1244.1010101010102" y="740.0" type="curve" smooth="yes"/>
      <point x="1244.1010101010102" y="1269.7070707070707"/>
      <point x="1027.0" y="1499.4040404040404"/>
      <point x="668.5" y="1499.4040404040404" type="curve" smooth="yes"/>
      <point x="310.0" y="1499.4040404040404"/>
      <point x="93.6010101010101" y="1269.7070707070707"/>
      <point x="93.6010101010101" y="740.0" type="curve" smooth="yes"/>
      <point x="93.6010101010101" y="210.29292929292927"/>
      <point x="311.19191919191917" y="-19.404040404040405"/>
    </contour>
    <contour>
      <point x="669.2020202020202" y="246.67171717171712" type="curve" smooth="yes"/>
      <point x="506.4242424242424" y="246.67171717171712"/>
      <point x="412.71212121212113" y="361.8484848484848"/>
      <point x="412.71212121212113" y="741.1919191919192" type="curve" smooth="yes"/>
      <point x="412.71212121212113" y="1118.1515151515152"/>
      <point x="507.8282828282828" y="1233.328282828283"/>
      <point x="669.2020202020202" y="1233.328282828283" type="curve" smooth="yes"/>
      <point x="829.8737373737374" y="1233.328282828283"/>
      <point x="924.9898989898991" y="1118.1515151515152"/>
      <point x="924.9898989898991" y="738.8080808080808" type="curve" smooth="yes"/>
      <point x="924.9898989898991" y="361.8484848484848"/>
      <point x="829.8737373737374" y="246.67171717171712"/>
    </contour>
  </outline>
</glyph>
<glyph name="one" format="2">
  <advance width="830.9545454545454"/>
  <unicode hex="0031"/>
  <outline>
    <contour>
      <point x="362.8787878787879" y="0.0" type="line"/>
      <point x="687.8181818181818" y="0.0" type="line"/>
      <point x="687.8181818181818" y="1485.4040404040404" type="line"/>
      <point x="478.73737373737373" y="1485.4040404040404" type="line"/>
      <point x="27.21212121212121" y="1172.469696969697" type="line"/>
      <point x="27.21212121212121" y="868.7171717171718" type="line"/>
      <point x="478.73737373737373" y="1181.0555555555557" type="line"/>
      <point x="362.8787878787879" y="1291.080808080808" type="line"/>
    </contour>
  </outline>
</glyph>
<glyph name="two" format="2">
  <advance width="1073.5959595959596"/>
  <unicode hex="0032"/>
  <outline>
    <contour>
      <point x="48.04545454545455" y="0.0" type="line"/>
      <point x="1020.4444444444445" y="0.0" type="line"/>
      <point x="1020.4444444444445" y="268.28787878787875" type="line"/>
      <point x="399.5757575757575" y="268.28787878787875" type="line"/>
      <point x="407.8535353535353" y="186.020202020202" type="line"/>
      <point x="737.8434343434343" y="588.1919191919192" type="line" smooth="yes"/>
      <point x="896.10101010101" y="780.070707070707"/>
      <point x="949.1868686868686" y="921.3888888888889"/>
      <point x="949.4848484848485" y="1071.050505050505" type="curve" smooth="yes"/>
      <point x="950.0808080808081" y="1368.5555555555557"/>
      <point x="758.5757575757575" y="1499.4040404040404"/>
      <point x="392.57070707070704" y="1499.4040404040404" type="curve" smooth="yes"/>
      <point x="269.35858585858585" y="1499.4040404040404"/>
      <point x="119.25757575757576" y="1475.5959595959596"/>
      <point x="29.641414141414145" y="1443.8080808080808" type="curve"/>
      <point x="29.641414141414145" y="1179.9444444444446" type="line"/>
      <point x="121.21717171717172" y="1215.030303030303"/>
      <point x="240.76767676767676" y="1237.5404040404042"/>
      <point x="358.17171717171715" y="1237.5404040404042" type="curve" smooth="yes"/>
      <point x="549.5808080808081" y="1237.5404040404042"/>
      <point x="628.8636363636364" y="1174.8131313131314"/>
      <point x="628.8636363636364" y="1039.5656565656566" type="curve" smooth="yes"/>
      <point x="628.8636363636364" y="942.4949494949495"/>
      <point x="583.0959595959596" y="842.8939393939394"/>
      <point x="456.8787878787879" y="684.1414141414141" type="curve" smooth="yes"/>
      <point x="48.04545454545455" y="174.08585858585855" type="line"/>
    </contour>
  </outline>
</glyph>
<glyph name="three" format="2">
  <advance width="1086.939393939394"/>
  <unicode hex="0033"/>
  <outline>
    <contour>
      <point x="428.1868686868687" y="-19.404040404040405" type="curve" smooth="yes"/>
      <point x="829.8131313131313" y="-19.404040404040405"/>
      <point x="1026.4898989898988" y="142.12626262626262"/>
      <point x="1026.4898989898988" y="411.25252525252523" type="curve" smooth="yes"/>
      <point x="1026.4898989898988" y="616.2121212121212"/>
      <point x="905.6363636363636" y="739.7676767676768"/>
      <point x="690.7575757575758" y="772.1717171717172" type="curve"/>
      <point x="690.4595959595958" y="756.0" type="line"/>
      <point x="868.9545454545455" y="794.7878787878788"/>
      <point x="978.1919191919192" y="923.6616161616162"/>
      <point x="978.1919191919192" y="1102.7070707070707" type="curve" smooth="yes"/>
      <point x="978.1919191919192" y="1355.171717171717"/>
      <point x="797.1111111111111" y="1499.4040404040404"/>
      <point x="437.76262626262627" y="1499.4040404040404" type="curve" smooth="yes"/>
      <point x="312.12626262626264" y="1499.4040404040404"/>
      <point x="165.13131313131314" y="1477.5959595959596"/>
      <point x="68.91919191919193" y="1444.70202020202" type="curve"/>
      <point x="68.91919191919193" y="1201.8989898989898" type="line"/>
      <point x="169.3030303030303" y="1237.388888888889"/>
      <point x="291.95959595959596" y="1257.1969696969697"/>
      <point x="402.66161616161617" y="1257.1969696969697" type="curve" smooth="yes"/>
      <point x="585.9242424242425" y="1257.1969696969697"/>
      <point x="667.39898989899" y="1193.2121212121212"/>
      <point x="667.39898989899" y="1073.9242424242425" type="curve" smooth="yes"/>
      <point x="667.39898989899" y="951.5050505050505"/>
      <point x="580.5151515151515" y="879.6464646464647"/>
      <point x="368.05555555555554" y="879.6464646464647" type="curve" smooth="yes"/>
      <point x="200.03030303030303" y="879.6464646464647" type="line"/>
      <point x="200.03030303030303" y="633.929292929293" type="line"/>
      <point x="416.51010101010104" y="633.929292929293" type="line" smooth="yes"/>
      <point x="636.6464646464647" y="633.929292929293"/>
      <point x="720.6111111111111" y="561.2828282828283"/>
      <point x="720.6111111111111" y="430.9090909090909" type="curve" smooth="yes"/>
      <point x="720.6111111111111" y="295.0656565656565"/>
      <point x="628.2626262626263" y="222.80303030303028"/>
      <point x="415.14646464646466" y="222.80303030303028" type="curve" smooth="yes"/>
      <point x="295.9141414141414" y="222.80303030303028"/>
      <point x="156.55555555555554" y="242.80303030303028"/>
      <point x="42.959595959595966" y="274.67676767676767" type="curve"/>
      <point x="42.959595959595966" y="31.873737373737374" type="line"/>
      <point x="159.1919191919192" y="-0.8080808080808073"/>
      <point x="290.42424242424244" y="-19.404040404040405"/>
    </contour>
  </outline>
</glyph>
<glyph name="four" format="2">
  <advance width="1272.6161616161617"/>
  <unicode hex="0034"/>
  <outline>
    <contour>
      <point x="37.151515151515156" y="304.6717171717172" type="line"/>
      <point x="1239.9545454545455" y="304.6717171717172" type="line"/>
      <point x="1239.9545454545455" y="555.4090909090909" type="line"/>
      <point x="319.0959595959596" y="555.4090909090909" type="line"/>
      <point x="354.7525252525252" y="480.96969696969694" type="line"/>
      <point x="865.0656565656566" y="1480.0" type="line"/>
      <point x="553.1868686868687" y="1480.0" type="line"/>
      <point x="37.151515151515156" y="481.5656565656566" type="line"/>
    </contour>
    <contour>
      <point x="757.4949494949495" y="0.0" type="line"/>
      <point x="1048.7373737373737" y="0.0" type="line"/>
      <point x="1048.7373737373737" y="980.0" type="line"/>
      <point x="789.7474747474747" y="980.0" type="line"/>
      <point x="757.4949494949495" y="555.4090909090909" type="line"/>
    </contour>
  </outline>
</glyph>
<glyph name="five" format="2">
  <advance width="1099.449494949495"/>
  <unicode hex="0035"/>
  <outline>
    <contour>
      <point x="455.1868686868687" y="-19.404040404040405" type="curve" smooth="yes"/>
      <point x="848.4949494949494" y="-19.404040404040405"/>
      <point x="1051.0858585858587" y="141.23232323232324"/>
      <point x="1051.7878787878788" y="441.5050505050505" type="curve" smooth="yes"/>
      <point x="1052.4898989898988" y="724.459595959596"/>
      <point x="873.0656565656566" y="871.7979797979798"/>
      <point x="424.3282828282828" y="897.2020202020202" type="curve" smooth="yes"/>
      <point x="236.52020202020202" y="907.5" type="line"/>
      <point x="426.81818181818176" y="793.4040404040404" type="line"/>
      <point x="465.49999999999994" y="1369.79797979798" type="line"/>
      <point x="324.4949494949495" y="1229.9646464646464" type="line"/>
      <point x="991.8939393939394" y="1229.9646464646464" type="line"/>
      <point x="991.8939393939394" y="1480.0" type="line"/>
      <point x="167.42929292929293" y="1480.0" type="line"/>
      <point x="116.32323232323233" y="668.8030303030304" type="line"/>
      <point x="304.13131313131316" y="658.5050505050506" type="line" smooth="yes"/>
      <point x="656.2626262626263" y="637.909090909091"/>
      <point x="745.2070707070707" y="570.9242424242425"/>
      <point x="745.2070707070707" y="434.1868686868687" type="curve" smooth="yes"/>
      <point x="745.2070707070707" y="297.57575757575756"/>
      <point x="653.7525252525253" y="225.6111111111111"/>
      <point x="442.44444444444446" y="225.6111111111111" type="curve" smooth="yes"/>
      <point x="321.72222222222223" y="225.6111111111111"/>
      <point x="182.36363636363637" y="246.6111111111111"/>
      <point x="69.66161616161617" y="278.88888888888886" type="curve"/>
      <point x="69.66161616161617" y="36.08585858585859" type="line"/>
      <point x="185.0" y="1.5959595959595962"/>
      <point x="316.8282828282828" y="-19.404040404040405"/>
    </contour>
  </outline>
</glyph>
<glyph name="six" format="2">
  <advance width="1250.2525252525252"/>
  <unicode hex="0036"/>
  <outline>
    <contour>
      <point x="681.1818181818181" y="-19.404040404040405" type="curve" smooth="yes"/>
      <point x="996.3181818181818" y="-19.404040404040405"/>
      <point x="1196.7828282828282" y="153.3989898989899"/>
      <point x="1196.7828282828282" y="444.3131313131313" type="curve" smooth="yes"/>
      <point x="1196.7828282828282" y="752.8838383838383"/>
      <point x="994.3181818181818" y="889.7777777777777"/>
      <point x="723.8080808080808" y="889.7777777777777" type="curve" smooth="yes"/>
      <point x="584.8484848484848" y="889.7777777777777"/>
      <point x="443.48484848484844" y="842.9040404040404"/>
      <point x="366.7171717171717" y="763.540404040404" type="curve"/>
      <point x="366.7171717171717" y="537.3282828282828" type="line"/>
      <point x="443.57070707070704" y="620.929292929293"/>
      <point x="556.2171717171717" y="656.6969696969697"/>
      <point x="660.1363636363636" y="656.6969696969697" type="curve" smooth="yes"/>
      <point x="807.5959595959596" y="656.6969696969697"/>
      <point x="902.8383838383838" y="589.1161616161617"/>
      <point x="902.8383838383838" y="434.9949494949495" type="curve" smooth="yes"/>
      <point x="902.8383838383838" y="283.5757575757575"/>
      <point x="811.2979797979798" y="215.08080808080805"/>
      <point x="682.8838383838383" y="215.08080808080805" type="curve" smooth="yes"/>
      <point x="521.530303030303" y="215.08080808080805"/>
      <point x="418.90404040404036" y="309.4090909090909"/>
      <point x="418.90404040404036" y="642.8585858585859" type="curve" smooth="yes"/>
      <point x="418.90404040404036" y="777.010101010101" type="line" smooth="yes"/>
      <point x="418.90404040404036" y="1101.550505050505"/>
      <point x="553.8888888888889" y="1251.580808080808"/>
      <point x="834.4494949494949" y="1251.580808080808" type="curve" smooth="yes"/>
      <point x="934.0" y="1251.580808080808"/>
      <point x="1032.510101010101" y="1237.1767676767677"/>
      <point x="1120.8484848484848" y="1205.878787878788" type="curve"/>
      <point x="1120.8484848484848" y="1454.29797979798" type="line"/>
      <point x="1033.510101010101" y="1487.4040404040404"/>
      <point x="929.5757575757575" y="1499.4040404040404"/>
      <point x="818.60101010101" y="1499.4040404040404" type="curve" smooth="yes"/>
      <point x="361.65656565656565" y="1499.4040404040404"/>
      <point x="103.1969696969697" y="1236.939393939394"/>
      <point x="103.1969696969697" y="692.0" type="curve" smooth="yes"/>
      <point x="103.1969696969697" y="187.86868686868686"/>
      <point x="336.9141414141414" y="-19.404040404040405"/>
    </contour>
  </outline>
</glyph>
<glyph name="seven" format="2">
  <advance width="1022.5757575757575"/>
  <unicode hex="0037"/>
  <outline>
    <contour>
      <point x="154.02525252525254" y="0.0" type="line"/>
      <point x="487.47474747474746" y="0.0" type="line"/>
      <point x="964.9797979797979" y="1305.9141414141413" type="line"/>
      <point x="964.9797979797979" y="1480.0" type="line"/>
      <point x="11.2979797979798" y="1480.0" type="line"/>
      <point x="11.2979797979798" y="1211.7121212121212" type="line"/>
      <point x="762.3636363636364" y="1211.7121212121212" type="line"/>
      <point x="655.2929292929293" y="1306.5101010101012" type="line"/>
    </contour>
  </outline>
</glyph>
<glyph name="eight" format="2">
  <advance width="1337.70202020202"/>
  <unicode hex="0038"/>
  <outline>
    <contour>
      <point x="673.1818181818181" y="-19.404040404040405" type="curve" smooth="yes"/>
      <point x="1060.1262626262626" y="-19.404040404040405"/>
      <point x="1254.378787878788" y="161.48484848484847"/>
      <point x="1254.378787878788" y="405.6111111111111" type="curve" smooth="yes"/>
      <point x="1254.378787878788" y="620.8232323232323"/>
      <point x="1138.611111111111" y="754.5656565656566"/>
      <point x="768.5959595959596" y="854.7323232323232" type="curve" smooth="yes"/>
      <point x="487.550505050505" y="929.3484848484849"/>
      <point x="428.1616161616161" y="987.929292929293"/>
      <point x="428.1616161616161" y="1100.2171717171718" type="curve" smooth="yes"/>
      <point x="428.1616161616161" y="1202.5707070707072"/>
      <point x="507.530303030303" y="1275.449494949495"/>
      <point x="682.8585858585859" y="1275.449494949495" type="curve" smooth="yes"/>
      <point x="846.2525252525252" y="1275.449494949495"/>
      <point x="932.89898989899" y="1210.5707070707072"/>
      <point x="932.89898989899" y="1093.409090909091" type="curve" smooth="yes"/>
      <point x="932.89898989899" y="983.2070707070707"/>
      <point x="874.0858585858585" y="904.1818181818181"/>
      <point x="727.7575757575758" y="833.8181818181818" type="curve"/>
      <point x="922.121212121212" y="751.570707070707" type="line"/>
      <point x="1132.5858585858587" y="833.5909090909091"/>
      <point x="1212.909090909091" y="968.5909090909091"/>
      <point x="1212.909090909091" y="1124.5959595959596" type="curve" smooth="yes"/>
      <point x="1212.909090909091" y="1357.4040404040404"/>
      <point x="1018.530303030303" y="1499.4040404040404"/>
      <point x="686.6666666666666" y="1499.4040404040404" type="curve" smooth="yes"/>
      <point x="313.3636363636364" y="1499.4040404040404"/>
      <point x="121.68686868686869" y="1332.8333333333333"/>
      <point x="121.68686868686869" y="1088.388888888889" type="curve" smooth="yes"/>
      <point x="121.68686868686869" y="874.89898989899"/>
      <point x="244.77272727272728" y="720.8181818181819"/>
      <point x="613.6818181818182" y="628.3737373737374" type="curve" smooth="yes"/>
      <point x="880.4090909090909" y="562.1818181818182"/>
      <point x="952.1161616161617" y="503.6666666666667"/>
      <point x="952.1161616161617" y="387.27272727272725" type="curve" smooth="yes"/>
      <point x="952.1161616161617" y="272.6212121212121"/>
      <point x="864.0858585858585" y="204.55050505050502"/>
      <point x="674.1818181818181" y="204.55050505050502" type="curve" smooth="yes"/>
      <point x="477.530303030303" y="204.55050505050502"/>
      <point x="383.88383838383834" y="277.4292929292929"/>
      <point x="383.88383838383834" y="405.59090909090907" type="curve" smooth="yes"/>
      <point x="383.88383838383834" y="513.4747474747475"/>
      <point x="454.6565656565656" y="616.6717171717172"/>
      <point x="612.3232323232323" y="666.6515151515151" type="curve"/>
      <point x="400.9191919191919" y="747.3888888888889" type="line"/>
      <point x="194.0909090909091" y="680.6868686868687"/>
      <point x="80.51515151515153" y="543.9191919191919"/>
      <point x="80.51515151515153" y="369.19191919191917" type="curve" smooth="yes"/>
      <point x="80.51515151515153" y="139.95454545454544"/>
      <point x="264.72727272727275" y="-19.404040404040405"/>
    </contour>
  </outline>
</glyph>
<glyph name="nine" format="2">
  <advance width="1250.2525252525252"/>
  <unicode hex="0039"/>
  <outline>
    <contour>
      <point x="569.070707070707" y="1499.4040404040404" type="curve" smooth="yes"/>
      <point x="253.93434343434342" y="1499.4040404040404"/>
      <point x="53.46969696969697" y="1326.6010101010102"/>
      <point x="53.46969696969697" y="1035.6868686868686" type="curve" smooth="yes"/>
      <point x="53.46969696969697" y="727.1161616161617"/>
      <point x="255.93434343434342" y="590.2222222222223"/>
      <point x="526.4444444444445" y="590.2222222222223" type="curve" smooth="yes"/>
      <point x="665.4040404040404" y="590.2222222222223"/>
      <point x="806.7676767676768" y="637.0959595959596"/>
      <point x="883.5353535353536" y="716.459595959596" type="curve"/>
      <point x="883.5353535353536" y="942.6717171717172" type="line"/>
      <point x="806.6818181818182" y="859.070707070707"/>
      <point x="694.0353535353536" y="823.3030303030303"/>
      <point x="590.1161616161617" y="823.3030303030303" type="curve" smooth="yes"/>
      <point x="442.6565656565656" y="823.3030303030303"/>
      <point x="347.41414141414134" y="890.8838383838383"/>
      <point x="347.41414141414134" y="1045.0050505050506" type="curve" smooth="yes"/>
      <point x="347.41414141414134" y="1196.4242424242425"/>
      <point x="438.9545454545454" y="1264.919191919192"/>
      <point x="567.3686868686868" y="1264.919191919192" type="curve" smooth="yes"/>
      <point x="728.7222222222222" y="1264.919191919192"/>
      <point x="831.3484848484849" y="1170.590909090909"/>
      <point x="831.3484848484849" y="837.1414141414141" type="curve" smooth="yes"/>
      <point x="831.3484848484849" y="702.989898989899" type="line" smooth="yes"/>
      <point x="831.3484848484849" y="378.4494949494949"/>
      <point x="696.3636363636364" y="228.4191919191919"/>
      <point x="415.80303030303025" y="228.4191919191919" type="curve" smooth="yes"/>
      <point x="316.2525252525253" y="228.4191919191919"/>
      <point x="217.74242424242425" y="242.82323232323228"/>
      <point x="129.40404040404042" y="274.1212121212121" type="curve"/>
      <point x="129.40404040404042" y="25.7020202020202" type="line"/>
      <point x="216.74242424242425" y="-7.404040404040404"/>
      <point x="320.67676767676767" y="-19.404040404040405"/>
      <point x="431.6515151515151" y="-19.404040404040405" type="curve" smooth="yes"/>
      <point x="888.5959595959596" y="-19.404040404040405"/>
      <point x="1147.0555555555557" y="243.06060606060606"/>
      <point x="1147.0555555555557" y="788.0" type="curve" smooth="yes"/>
      <point x="1147.0555555555557" y="1292.1313131313132"/>
      <point x="913.3383838383838" y="1499.4040404040404"/>
    </contour>
  </outline>
</glyph>
<glyph name="colon" format="2">
  <advance width="556.2323232323232"/>
  <unicode hex="003A"/>
  <outline>
    <contour>
      <point x="278.1161616161616" y="-17.02020202020202" type="curve" smooth="yes"/>
      <point x="403.27272727272725" y="-17.02020202020202"/>
      <point x="484.7323232323232" y="59.63131313131312"/>
      <point x="484.7323232323232" y="176.25757575757575" type="curve" smooth="yes"/>
      <point x="484.7323232323232" y="292.88383838383834"/>
      <point x="406.0808080808081" y="370.13131313131305"/>
      <point x="278.1161616161616" y="370.13131313131305" type="curve" smooth="yes"/>
      <point x="150.15151515151516" y="370.13131313131305"/>
      <point x="71.50000000000001" y="295.69191919191917"/>
      <point x="71.50000000000001" y="176.25757575757575" type="curve" smooth="yes"/>
      <point x="71.50000000000001" y="56.82323232323232"/>
      <point x="152.95959595959596" y="-17.02020202020202"/>
    </contour>
    <contour>
      <point x="278.1161616161616" y="723.909090909091" type="curve" smooth="yes"/>
      <point x="403.27272727272725" y="723.909090909091"/>
      <point x="484.7323232323232" y="800.5606060606061"/>
      <point x="484.7323232323232" y="917.1868686868687" type="curve" smooth="yes"/>
      <point x="484.7323232323232" y="1033.8131313131314"/>
      <point x="406.0808080808081" y="1111.060606060606"/>
      <point x="278.1161616161616" y="1111.060606060606" type="curve" smooth="yes"/>
      <point x="150.15151515151516" y="1111.060606060606"/>
      <point x="71.50000000000001" y="1036.6212121212122"/>
      <point x="71.50000000000001" y="917.1868686868687" type="curve" smooth="yes"/>
      <point x="71.50000000000001" y="797.7525252525253"/>
      <point x="152.95959595959596" y="723.909090909091"/>
    </contour>
  </outline>
</glyph>
<glyph name="semicolon" format="2">
  <advance width="556.2323232323232"/>
  <unicode hex="003B"/>
  <outline>
    <contour>
      <point x="145.27777777777777" y="-342.1212121212121" type="curve"/>
      <point x="326.87373737373736" y="-342.1212121212121" type="line"/>
      <point x="421.0353535353535" y="-214.42424242424244"/>
      <point x="483.3282828282828" y="-44.26262626262627"/>
      <point x="483.3282828282828" y="118.34848484848483" type="curve" smooth="yes"/>
      <point x="483.3282828282828" y="286.45959595959596"/>
      <point x="409.59090909090907" y="370.13131313131305"/>
      <point x="273.30808080808083" y="370.13131313131305" type="curve" smooth="yes"/>
      <point x="149.55555555555557" y="370.13131313131305"/>
      <point x="71.50000000000001" y="297.79797979797974"/>
      <point x="71.50000000000001" y="176.85353535353534" type="curve" smooth="yes"/>
      <point x="71.50000000000001" y="57.41919191919192"/>
      <point x="154.36363636363637" y="-17.02020202020202"/>
      <point x="278.1161616161616" y="-17.02020202020202" type="curve" smooth="yes"/>
      <point x="318.1969696969697" y="-17.02020202020202" type="line"/>
      <point x="248.9090909090909" y="40.080808080808076" type="line"/>
      <point x="248.9090909090909" y="-84.38383838383838"/>
      <point x="210.76262626262627" y="-200.04040404040404"/>
    </contour>
    <contour>
      <point x="278.1161616161616" y="723.909090909091" type="curve" smooth="yes"/>
      <point x="403.27272727272725" y="723.909090909091"/>
      <point x="484.7323232323232" y="800.5606060606061"/>
      <point x="484.7323232323232" y="917.1868686868687" type="curve" smooth="yes"/>
      <point x="484.7323232323232" y="1033.8131313131314"/>
      <point x="406.0808080808081" y="1111.060606060606"/>
      <point x="278.1161616161616" y="1111.060606060606" type="curve" smooth="yes"/>
      <point x="150.15151515151516" y="1111.060606060606"/>
      <point x="71.50000000000001" y="1036.6212121212122"/>
      <point x="71.50000000000001" y="917.1868686868687" type="curve" smooth="yes"/>
      <point x="71.50000000000001" y="797.7525252525253"/>
      <point x="152.95959595959596" y="723.909090909091"/>
    </contour>
  </outline>
</glyph>
<glyph name="less" format="2">
  <advance width="1099.909090909091"/>
  <unicode hex="003C"/>
  <outline>
    <contour>
      <point x="982.7525252525252" y="279.6363636363636" type="line"/>
      <point x="982.7525252525252" y="525.7373737373737" type="line"/>
      <point x="295.58585858585855" y="779.7222222222222" type="line"/>
      <point x="295.58585858585855" y="743.7878787878788" type="line"/>
      <point x="982.7525252525252" y="994.2626262626263" type="line"/>
      <point x="982.7525252525252" y="1240.3636363636363" type="line"/>
      <point x="117.15656565656568" y="910.959595959596" type="line"/>
      <point x="117.15656565656568" y="609.040404040404" type="line"/>
    </contour>
  </outline>
</glyph>
<glyph name="equal" format="2">
  <advance width="1099.909090909091"/>
  <unicode hex="003D"/>
  <outline>
    <contour>
      <point x="117.15656565656568" y="860.8585858585859" type="line"/>
      <point x="982.7525252525252" y="860.8585858585859" type="line"/>
      <point x="982.7525252525252" y="1104.5757575757575" type="line"/>
      <point x="117.15656565656568" y="1104.5757575757575" type="line"/>
    </contour>
    <contour>
      <point x="117.15656565656568" y="415.4242424242425" type="line"/>
      <point x="982.7525252525252" y="415.4242424242425" type="line"/>
      <point x="982.7525252525252" y="659.1414141414141" type="line"/>
      <point x="117.15656565656568" y="659.1414141414141" type="line"/>
    </contour>
  </outline>
</glyph>
<glyph name="greater" format="2">
  <advance width="1099.909090909091"/>
  <unicode hex="003E"/>
  <outline>
    <contour>
      <point x="117.15656565656568" y="279.6363636363636" type="line"/>
      <point x="982.7525252525252" y="609.040404040404" type="line"/>
      <point x="982.7525252525252" y="910.959595959596" type="line"/>
      <point x="117.15656565656568" y="1240.3636363636363" type="line"/>
      <point x="117.15656565656568" y="994.2626262626263" type="line"/>
      <point x="804.3232323232323" y="743.7878787878788" type="line"/>
      <point x="804.3232323232323" y="779.7222222222222" type="line"/>
      <point x="117.15656565656568" y="525.7373737373737" type="line"/>
    </contour>
  </outline>
</glyph>
<glyph name="question" format="2">
  <advance width="991.2979797979798"/>
  <unicode hex="003F"/>
  <outline>
    <contour>
      <point x="345.95959595959596" y="462.86868686868684" type="line"/>
      <point x="540.6818181818181" y="462.86868686868684" type="line"/>
      <point x="564.020202020202" y="677.979797979798" type="line"/>
      <point x="808.5151515151515" y="753.6666666666666"/>
      <point x="940.6363636363636" y="884.9848484848485"/>
      <point x="940.6363636363636" y="1099.1969696969697" type="curve" smooth="yes"/>
      <point x="940.6363636363636" y="1355.171717171717"/>
      <point x="759.5555555555555" y="1499.4040404040404"/>
      <point x="400.20707070707067" y="1499.4040404040404" type="curve" smooth="yes"/>
      <point x="274.57070707070704" y="1499.4040404040404"/>
      <point x="127.57575757575758" y="1477.5959595959596"/>
      <point x="31.363636363636367" y="1444.70202020202" type="curve"/>
      <point x="31.363636363636367" y="1194.878787878788" type="line"/>
      <point x="131.74747474747474" y="1230.3686868686868"/>
      <point x="253.0" y="1250.1767676767677"/>
      <point x="363.4040404040404" y="1250.1767676767677" type="curve" smooth="yes"/>
      <point x="548.3686868686868" y="1250.1767676767677"/>
      <point x="629.8434343434344" y="1188.29797979798"/>
      <point x="629.8434343434344" y="1072.520202020202" type="curve" smooth="yes"/>
      <point x="629.8434343434344" y="960.8484848484849"/>
      <point x="555.7979797979798" y="885.0555555555555"/>
      <point x="291.1363636363636" y="830.3888888888889" type="curve"/>
    </contour>
    <contour>
      <point x="443.67171717171715" y="-17.02020202020202" type="curve" smooth="yes"/>
      <point x="569.4242424242424" y="-17.02020202020202"/>
      <point x="650.2878787878788" y="57.41919191919191"/>
      <point x="650.2878787878788" y="167.1313131313131" type="curve" smooth="yes"/>
      <point x="650.2878787878788" y="277.4393939393939"/>
      <point x="571.6363636363636" y="351.8787878787878"/>
      <point x="443.67171717171715" y="351.8787878787878" type="curve" smooth="yes"/>
      <point x="315.7070707070707" y="351.8787878787878"/>
      <point x="237.05555555555557" y="280.2474747474747"/>
      <point x="237.05555555555557" y="167.1313131313131" type="curve" smooth="yes"/>
      <point x="237.05555555555557" y="54.61111111111111"/>
      <point x="318.5151515151515" y="-17.02020202020202"/>
    </contour>
  </outline>
</glyph>
<glyph name="at" format="2">
  <advance width="2090.8939393939395"/>
  <unicode hex="0040"/>
  <outline>
    <contour>
      <point x="1091.8939393939395" y="-460.0" type="curve" smooth="yes"/>
      <point x="1248.5707070707072" y="-460.0"/>
      <point x="1401.141414141414" y="-440.80808080808083"/>
      <point x="1545.4545454545455" y="-405.4040404040404" type="curve"/>
      <point x="1545.4545454545455" y="-198.40404040404044" type="line"/>
      <point x="1393.479797979798" y="-235.29797979797982"/>
      <point x="1247.080808080808" y="-253.5959595959596"/>
      <point x="1091.8939393939395" y="-253.5959595959596" type="curve" smooth="yes"/>
      <point x="561.0050505050505" y="-253.5959595959596"/>
      <point x="324.08585858585855" y="-42.22727272727275"/>
      <point x="324.08585858585855" y="521.1919191919192" type="curve" smooth="yes"/>
      <point x="324.08585858585855" y="1080.439393939394"/>
      <point x="560.4090909090909" y="1291.5959595959596"/>
      <point x="1053.4040404040404" y="1291.5959595959596" type="curve" smooth="yes"/>
      <point x="1546.8030303030303" y="1291.5959595959596"/>
      <point x="1782.040404040404" y="1087.2474747474748"/>
      <point x="1784.8484848484848" y="572.2525252525253" type="curve" smooth="yes"/>
      <point x="1786.9545454545455" y="264.54040404040404"/>
      <point x="1715.671717171717" y="186.99999999999997"/>
      <point x="1624.3484848484848" y="186.99999999999997" type="curve" smooth="yes"/>
      <point x="1561.5353535353534" y="186.99999999999997"/>
      <point x="1526.2575757575758" y="221.85353535353534"/>
      <point x="1526.2575757575758" y="308.83838383838383" type="curve" smooth="yes"/>
      <point x="1526.2575757575758" y="647.9090909090909" type="line" smooth="yes"/>
      <point x="1526.2575757575758" y="982.5151515151515"/>
      <point x="1371.1969696969697" y="1097.4040404040404"/>
      <point x="1030.5757575757575" y="1097.4040404040404" type="curve" smooth="yes"/>
      <point x="917.5151515151515" y="1097.4040404040404"/>
      <point x="786.2626262626262" y="1078.29797979798"/>
      <point x="681.5" y="1043.489898989899" type="curve"/>
      <point x="680.0959595959596" y="803.4949494949495" type="line"/>
      <point x="775.6717171717171" y="837.6868686868687"/>
      <point x="887.6919191919192" y="855.1969696969697"/>
      <point x="974.4141414141413" y="855.1969696969697" type="curve" smooth="yes"/>
      <point x="1147.3737373737374" y="855.1969696969697"/>
      <point x="1215.358585858586" y="807.0252525252525"/>
      <point x="1215.358585858586" y="661.2474747474748" type="curve" smooth="yes"/>
      <point x="1215.358585858586" y="273.35353535353534" type="line"/>
      <point x="1168.5858585858587" y="224.36363636363632"/>
      <point x="1095.0252525252524" y="204.44444444444443"/>
      <point x="1041.2070707070707" y="204.44444444444443" type="curve" smooth="yes"/>
      <point x="954.3232323232323" y="204.44444444444443"/>
      <point x="896.489898989899" y="244.23737373737373"/>
      <point x="896.489898989899" y="329.8636363636364" type="curve" smooth="yes"/>
      <point x="896.489898989899" y="415.6161616161616"/>
      <point x="949.3030303030303" y="458.02525252525254"/>
      <point x="1064.4848484848485" y="468.3888888888889" type="curve" smooth="yes"/>
      <point x="1300.6919191919192" y="488.32828282828285" type="line"/>
      <point x="1266.9949494949494" y="659.6313131313132" type="line"/>
      <point x="1033.8939393939395" y="639.6919191919192" type="line" smooth="yes"/>
      <point x="716.6717171717171" y="616.3080808080808"/>
      <point x="582.3989898989898" y="501.75757575757575"/>
      <point x="582.3989898989898" y="296.4848484848485" type="curve" smooth="yes"/>
      <point x="582.3989898989898" y="104.65656565656565"/>
      <point x="713.5252525252525" y="-20.21212121212121"/>
      <point x="937.1161616161617" y="-20.21212121212121" type="curve" smooth="yes"/>
      <point x="1059.5858585858587" y="-20.21212121212121"/>
      <point x="1174.5656565656566" y="21.151515151515156"/>
      <point x="1224.888888888889" y="130.21212121212122" type="curve"/>
      <point x="1242.3131313131314" y="130.21212121212122" type="line"/>
      <point x="1299.9242424242425" y="30.46969696969697"/>
      <point x="1403.641414141414" y="-20.21212121212121"/>
      <point x="1553.6565656565656" y="-20.21212121212121" type="curve" smooth="yes"/>
      <point x="1819.7474747474746" y="-20.21212121212121"/>
      <point x="2006.9949494949494" y="142.3838383838384"/>
      <point x="2007.2929292929293" y="579.6565656565657" type="curve" smooth="yes"/>
      <point x="2007.590909090909" y="1196.0858585858587"/>
      <point x="1666.2171717171716" y="1498.0"/>
      <point x="1053.4040404040404" y="1498.0" type="curve" smooth="yes"/>
      <point x="441.2929292929293" y="1498.0"/>
      <point x="83.6010101010101" y="1196.0858585858587"/>
      <point x="83.6010101010101" y="520.0" type="curve" smooth="yes"/>
      <point x="83.6010101010101" y="-157.87373737373736"/>
      <point x="442.1868686868687" y="-459.7020202020202"/>
    </contour>
  </outline>
</glyph>
<glyph name="B" format="2">
  <advance width="1332.5353535353536"/>
  <unicode hex="0042"/>
  <anchor x="680.8636363636364" y="0.0" name="bottom"/>
  <anchor x="680.8636363636364" y="1480.0" name="top"/>
  <outline>
    <contour>
      <point x="550.2727272727273" y="-17.02020202020202" type="curve" smooth="yes"/>
      <point x="1083.8535353535353" y="-17.02020202020202"/>
      <point x="1279.4242424242425" y="138.82828282828282"/>
      <point x="1279.4242424242425" y="415.35858585858585" type="curve" smooth="yes"/>
      <point x="1279.4242424242425" y="622.9747474747475"/>
      <point x="1159.4898989898988" y="741.1919191919192"/>
      <point x="970.8838383838383" y="768.8939393939394" type="curve"/>
      <point x="969.989898989899" y="756.0" type="line"/>
      <point x="1141.8939393939395" y="789.7020202020202"/>
      <point x="1238.530303030303" y="920.959595959596"/>
      <point x="1238.530303030303" y="1086.1313131313132" type="curve" smooth="yes"/>
      <point x="1238.530303030303" y="1361.979797979798"/>
      <point x="1048.939393939394" y="1498.2121212121212"/>
      <point x="607.5454545454545" y="1498.2121212121212" type="curve" smooth="yes"/>
      <point x="446.6111111111111" y="1498.2121212121212"/>
      <point x="270.0050505050505" y="1477.0858585858587"/>
      <point x="133.13636363636365" y="1446.6616161616162" type="curve"/>
      <point x="133.13636363636365" y="12.106060606060606" type="line"/>
      <point x="261.3484848484849" y="-5.7020202020202015"/>
      <point x="427.2525252525253" y="-17.02020202020202"/>
    </contour>
    <contour>
      <point x="636.5151515151515" y="220.27272727272725" type="curve" smooth="yes"/>
      <point x="573.4242424242424" y="220.27272727272725"/>
      <point x="517.5050505050505" y="222.16666666666666"/>
      <point x="450.35353535353534" y="229.2525252525252" type="curve"/>
      <point x="450.35353535353534" y="1243.5353535353536" type="line"/>
      <point x="510.18686868686865" y="1254.3232323232323"/>
      <point x="573.3181818181818" y="1260.919191919192"/>
      <point x="649.3686868686868" y="1260.919191919192" type="curve" smooth="yes"/>
      <point x="857.7070707070707" y="1260.919191919192"/>
      <point x="933.6515151515151" y="1203.6161616161617"/>
      <point x="933.6515151515151" y="1069.2828282828282" type="curve" smooth="yes"/>
      <point x="933.6515151515151" y="941.1212121212121"/>
      <point x="861.7929292929293" y="878.2424242424242"/>
      <point x="662.5" y="878.2424242424242" type="curve" smooth="yes"/>
      <point x="416.10101010101005" y="878.2424242424242" type="line"/>
      <point x="416.10101010101005" y="634.6313131313132" type="line"/>
      <point x="693.7121212121212" y="634.6313131313132" type="line" smooth="yes"/>
      <point x="896.7272727272727" y="634.6313131313132"/>
      <point x="979.1616161616162" y="570.4545454545455"/>
      <point x="979.1616161616162" y="428.6969696969697" type="curve" smooth="yes"/>
      <point x="979.1616161616162" y="287.7474747474747"/>
      <point x="897.4090909090909" y="220.27272727272725"/>
    </contour>
  </outline>
</glyph>
<glyph name="F" format="2">
  <advance width="1213.0"/>
  <unicode hex="0046"/>
  <outline>
    <contour>
      <point x="133.13636363636365" y="0.0" type="line"/>
      <point x="458.0757575757575" y="0.0" type="line"/>
      <point x="458.0757575757575" y="1215.328282828283" type="line"/>
      <point x="1169.3181818181818" y="1215.328282828283" type="line"/>
      <point x="1169.3181818181818" y="1480.0" type="line"/>
      <point x="133.13636363636365" y="1480.0" type="line"/>
    </contour>
    <contour>
      <point x="339.85858585858585" y="590.4040404040404" type="line"/>
      <point x="1067.2979797979797" y="590.4040404040404" type="line"/>
      <point x="1067.2979797979797" y="855.0757575757575" type="line"/>
      <point x="339.85858585858585" y="855.0757575757575" type="line"/>
    </contour>
  </outline>
</glyph>
<glyph name="H" format="2">
  <advance width="1525.7676767676767"/>
  <unicode hex="0048"/>
  <anchor x="763.5858585858585" y="0.0" name="bottom"/>
  <anchor x="763.5858585858585" y="1189.8434343434344" name="center"/>
  <anchor x="763.5858585858585" y="1520.0" name="top"/>
  <anchor x="37.48989898989899" y="1480.0" name="topleft"/>
  <outline>
    <contour>
      <point x="133.13636363636365" y="0.0" type="line"/>
      <point x="458.0757575757575" y="0.0" type="line"/>
      <point x="458.0757575757575" y="613.5707070707072" type="line"/>
      <point x="1067.6919191919192" y="613.5707070707072" type="line"/>
      <point x="1067.6919191919192" y="0.0" type="line"/>
      <point x="1392.6313131313132" y="0.0" type="line"/>
      <point x="1392.6313131313132" y="1480.0" type="line"/>
      <point x="1067.6919191919192" y="1480.0" type="line"/>
      <point x="1067.6919191919192" y="900.0050505050505" type="line"/>
      <point x="458.0757575757575" y="900.0050505050505" type="line"/>
      <point x="458.0757575757575" y="1480.0" type="line"/>
      <point x="133.13636363636365" y="1480.0" type="line"/>
    </contour>
  </outline>
</glyph>
<glyph name="I" format="2">
  <advance width="591.2121212121211"/>
  <unicode hex="0049"/>
  <anchor x="294.9040404040404" y="0.0" name="bottom"/>
  <anchor x="458.0757575757575" y="0.0" name="ogonek"/>
  <anchor x="295.60606060606057" y="1520.0" name="top"/>
  <outline>
    <contour>
      <point x="133.13636363636365" y="0.0" type="line"/>
      <point x="458.0757575757575" y="0.0" type="line"/>
      <point x="458.0757575757575" y="1480.0" type="line"/>
      <point x="133.13636363636365" y="1480.0" type="line"/>
    </contour>
  </outline>
</glyph>
<glyph name="J" format="2">
  <advance width="591.2121212121211"/>
  <unicode hex="004A"/>
  <anchor x="473.57070707070704" y="0.0" name="bottom"/>
  <anchor x="296.3080808080808" y="1520.0" name="top"/>
  <outline>
    <contour>
      <point x="184.89393939393938" y="-349.82828282828285" type="line"/>
      <point x="385.35353535353534" y="-137.78787878787878"/>
      <point x="454.7979797979798" y="55.696969696969695"/>
      <point x="458.0757575757575" y="300.0353535353535" type="curve"/>
      <point x="458.0757575757575" y="1480.0" type="line"/>
      <point x="134.54040404040404" y="1480.0" type="line"/>
      <point x="134.54040404040404" y="298.6363636363636" type="line" smooth="yes"/>
      <point x="134.54040404040404" y="82.50505050505049"/>
      <point x="94.0909090909091" y="-56.010101010101025"/>
      <point x="-22.060606060606055" y="-211.63131313131316" type="curve"/>
    </contour>
  </outline>
</glyph>
<glyph name="K" format="2">
  <advance width="1329.7222222222222"/>
  <unicode hex="004B"/>
  <anchor x="696.7323232323232" y="0.0" name="bottom"/>
  <anchor x="690.4141414141413" y="1480.0" name="top"/>
  <outline>
    <contour>
      <point x="1022.3535353535353" y="0.0" type="line"/>
      <point x="1375.5252525252524" y="0.0" type="line"/>
      <point x="829.1717171717171" y="802.0808080808081" type="line"/>
      <point x="823.5555555555554" y="717.7070707070707" type="line"/>
      <point x="1332.8232323232323" y="1480.0" type="line"/>
      <point x="990.7777777777778" y="1480.0" type="line"/>
      <point x="505.550505050505" y="753.7878787878788" type="line"/>
    </contour>
    <contour>
      <point x="133.13636363636365" y="0.0" type="line"/>
      <point x="458.0757575757575" y="0.0" type="line"/>
      <point x="458.0757575757575" y="1480.0" type="line"/>
      <point x="133.13636363636365" y="1480.0" type="line"/>
    </contour>
    <contour>
      <point x="412.59090909090907" y="613.5707070707072" type="line"/>
      <point x="633.7929292929293" y="613.5707070707072" type="line"/>
      <point x="633.7929292929293" y="899.7070707070707" type="line"/>
      <point x="412.59090909090907" y="899.7070707070707" type="line"/>
    </contour>
  </outline>
</glyph>
<glyph name="M" format="2">
  <advance width="1877.3333333333333"/>
  <unicode hex="004D"/>
  <anchor x="959.0252525252525" y="0.0" name="bottom"/>
  <anchor x="959.0252525252525" y="1480.0" name="top"/>
  <outline>
    <contour>
      <point x="137.13636363636365" y="0.0" type="line"/>
      <point x="440.4191919191919" y="0.0" type="line"/>
      <point x="440.4191919191919" y="1195.949494949495" type="line"/>
      <point x="362.40404040404036" y="1195.949494949495" type="line"/>
      <point x="805.1919191919192" y="214.04040404040404" type="line"/>
      <point x="1072.141414141414" y="214.04040404040404" type="line"/>
      <point x="1500.9949494949494" y="1195.949494949495" type="line"/>
      <point x="1436.9141414141413" y="1195.949494949495" type="line"/>
      <point x="1436.9141414141413" y="0.0" type="line"/>
      <point x="1740.1969696969697" y="0.0" type="line"/>
      <point x="1740.1969696969697" y="1480.0" type="line"/>
      <point x="1345.0757575757575" y="1480.0" type="line"/>
      <point x="924.6666666666666" y="501.5757575757575" type="line"/>
      <point x="963.6868686868686" y="501.5757575757575" type="line"/>
      <point x="532.2575757575758" y="1480.0" type="line"/>
      <point x="137.13636363636365" y="1480.0" type="line"/>
    </contour>
  </outline>
</glyph>
<glyph name="N" format="2">
  <advance width="1542.8333333333333"/>
  <unicode hex="004E"/>
  <anchor x="771.5656565656566" y="0.0" name="bottom"/>
  <anchor x="771.5656565656566" y="1520.0" name="top"/>
  <outline>
    <contour>
      <point x="133.13636363636365" y="0.0" type="line"/>
      <point x="438.5252525252525" y="0.0" type="line"/>
      <point x="438.5252525252525" y="1077.4141414141416" type="line"/>
      <point x="382.9545454545454" y="1077.4141414141416" type="line"/>
      <point x="1083.3737373737374" y="0.0" type="line"/>
      <point x="1409.6969696969695" y="0.0" type="line"/>
      <point x="1409.6969696969695" y="1480.0" type="line"/>
      <point x="1104.3080808080808" y="1480.0" type="line"/>
      <point x="1104.3080808080808" y="402.5858585858585" type="line"/>
      <point x="1159.878787878788" y="402.5858585858585" type="line"/>
      <point x="459.45959595959596" y="1480.0" type="line"/>
      <point x="133.13636363636365" y="1480.0" type="line"/>
    </contour>
  </outline>
</glyph>
<glyph name="P" format="2">
  <advance width="1316.681818181818"/>
  <unicode hex="0050"/>
  <outline>
    <contour>
      <point x="133.13636363636365" y="0.0" type="line"/>
      <point x="458.0757575757575" y="0.0" type="line"/>
      <point x="458.0757575757575" y="433.52525252525254" type="line"/>
      <point x="506.88888888888886" y="431.14141414141415"/>
      <point x="549.7222222222222" y="428.84343434343435"/>
      <point x="601.3434343434343" y="428.84343434343435" type="curve" smooth="yes"/>
      <point x="1026.8535353535353" y="428.84343434343435"/>
      <point x="1243.6565656565656" y="612.3737373737374"/>
      <point x="1243.6565656565656" y="963.4747474747475" type="curve" smooth="yes"/>
      <point x="1243.6565656565656" y="1333.8737373737374"/>
      <point x="1021.1717171717171" y="1498.2121212121212"/>
      <point x="581.2474747474747" y="1498.2121212121212" type="curve" smooth="yes"/>
      <point x="417.12626262626264" y="1498.2121212121212"/>
      <point x="272.11111111111114" y="1480.5959595959596"/>
      <point x="133.13636363636365" y="1453.2777777777778" type="curve"/>
    </contour>
    <contour>
      <point x="605.0454545454545" y="673.1565656565656" type="curve" smooth="yes"/>
      <point x="549.4242424242424" y="673.1565656565656"/>
      <point x="506.50505050505046" y="675.7525252525253"/>
      <point x="458.0757575757575" y="682.2424242424242" type="curve"/>
      <point x="458.0757575757575" y="1241.7272727272727" type="line"/>
      <point x="505.27272727272725" y="1250.111111111111"/>
      <point x="550.8535353535353" y="1253.8989898989898"/>
      <point x="610.7323232323232" y="1253.8989898989898" type="curve" smooth="yes"/>
      <point x="826.6212121212121" y="1253.8989898989898"/>
      <point x="928.0555555555555" y="1166.6161616161617"/>
      <point x="928.0555555555555" y="961.1767676767677" type="curve" smooth="yes"/>
      <point x="928.0555555555555" y="756.9949494949495"/>
      <point x="827.8131313131313" y="673.1565656565656"/>
    </contour>
  </outline>
</glyph>
<glyph name="Q" format="2">
  <advance width="1561.7575757575758"/>
  <unicode hex="0051"/>
  <outline>
    <contour>
      <point x="1405.3535353535353" y="-316.19191919191917" type="curve"/>
      <point x="1458.878787878788" y="-62.050505050505066" type="line"/>
      <point x="1227.3282828282827" y="-35.222222222222236"/>
      <point x="996.5808080808081" y="11.20202020202018"/>
      <point x="767.6969696969697" y="99.54040404040401" type="curve"/>
      <point x="667.3939393939394" y="19.378787878787872" type="line"/>
      <point x="1206.121212121212" y="-50.27777777777778"/>
      <point x="1478.1565656565656" y="234.1010101010101"/>
      <point x="1478.1565656565656" y="740.0" type="curve" smooth="yes"/>
      <point x="1478.1565656565656" y="1255.8989898989898"/>
      <point x="1202.5252525252527" y="1499.4040404040404"/>
      <point x="780.8787878787879" y="1499.4040404040404" type="curve" smooth="yes"/>
      <point x="359.2323232323232" y="1499.4040404040404"/>
      <point x="83.6010101010101" y="1255.5151515151515"/>
      <point x="83.6010101010101" y="732.979797979798" type="curve" smooth="yes"/>
      <point x="83.6010101010101" y="181.05555555555554"/>
      <point x="378.12626262626264" y="-162.7979797979798"/>
    </contour>
    <contour>
      <point x="780.8787878787879" y="243.45959595959593" type="curve" smooth="yes"/>
      <point x="551.4646464646464" y="243.45959595959593"/>
      <point x="416.7525252525252" y="379.1464646464646"/>
      <point x="416.7525252525252" y="746.8080808080808" type="curve" smooth="yes"/>
      <point x="416.7525252525252" y="1099.449494949495"/>
      <point x="554.9747474747475" y="1236.5404040404042"/>
      <point x="780.8787878787879" y="1236.5404040404042" type="curve" smooth="yes"/>
      <point x="1006.7828282828283" y="1236.5404040404042"/>
      <point x="1145.0050505050506" y="1097.3434343434344"/>
      <point x="1145.0050505050506" y="733.1919191919192" type="curve" smooth="yes"/>
      <point x="1145.0050505050506" y="382.6565656565656"/>
      <point x="1008.8888888888889" y="243.45959595959593"/>
    </contour>
  </outline>
</glyph>
<glyph name="T" format="2">
  <advance width="1285.3989898989898"/>
  <unicode hex="0054"/>
  <anchor x="643.0505050505051" y="0.0" name="bottom"/>
  <anchor x="643.0505050505051" y="729.7979797979798" name="center"/>
  <anchor x="643.0505050505051" y="1520.0" name="top"/>
  <outline>
    <contour>
      <point x="479.8787878787879" y="0.0" type="line"/>
      <point x="805.520202020202" y="0.0" type="line"/>
      <point x="805.520202020202" y="1209.7121212121212" type="line"/>
      <point x="1272.1010101010102" y="1209.7121212121212" type="line"/>
      <point x="1272.1010101010102" y="1480.0" type="line"/>
      <point x="13.297979797979798" y="1480.0" type="line"/>
      <point x="13.297979797979798" y="1209.7121212121212" type="line"/>
      <point x="479.8787878787879" y="1209.7121212121212" type="line"/>
    </contour>
  </outline>
</glyph>
<glyph name="V" format="2">
  <advance width="1431.3333333333333"/>
  <unicode hex="0056"/>
  <outline>
    <contour>
      <point x="475.61111111111114" y="0.0" type="line"/>
      <point x="955.7222222222222" y="0.0" type="line"/>
      <point x="1430.479797979798" y="1480.0" type="line"/>
      <point x="1113.7727272727273" y="1480.0" type="line"/>
      <point x="688.6060606060606" y="133.36868686868684" type="line"/>
      <point x="759.3636363636364" y="133.36868686868684" type="line"/>
      <point x="340.51515151515144" y="1480.0" type="line"/>
      <point x="0.8535353535353565" y="1480.0" type="line"/>
    </contour>
  </outline>
</glyph>
<glyph name="X" format="2">
  <advance width="1375.7424242424242"/>
  <unicode hex="0058"/>
  <outline>
    <contour>
      <point x="1045.2424242424242" y="0.0" type="line"/>
      <point x="1404.3282828282827" y="0.0" type="line"/>
      <point x="876.6464646464647" y="770.4646464646464" type="line"/>
      <point x="688.2222222222222" y="1006.0757575757575" type="line"/>
      <point x="364.47474747474746" y="1480.0" type="line"/>
      <point x="3.58080808080809" y="1480.0" type="line"/>
      <point x="495.989898989899" y="766.6565656565657" type="line"/>
      <point x="684.4141414141413" y="532.8535353535353" type="line"/>
    </contour>
    <contour>
      <point x="-31.691919191919176" y="0.0" type="line"/>
      <point x="323.28787878787875" y="0.0" type="line"/>
      <point x="684.4141414141413" y="532.8535353535353" type="line"/>
      <point x="876.6464646464647" y="770.4646464646464" type="line"/>
      <point x="1362.7373737373737" y="1480.0" type="line"/>
      <point x="1011.5656565656566" y="1480.0" type="line"/>
      <point x="688.2222222222222" y="1006.0757575757575" type="line"/>
      <point x="495.989898989899" y="766.6565656565657" type="line"/>
    </contour>
  </outline>
</glyph>
<glyph name="Z" format="2">
  <advance width="1239.1919191919192"/>
  <unicode hex="005A"/>
  <anchor x="617.989898989899" y="0.0" name="bottom"/>
  <anchor x="620.7979797979798" y="1520.0" name="top"/>
  <outline>
    <contour>
      <point x="59.48989898989899" y="0.0" type="line"/>
      <point x="1179.70202020202" y="0.0" type="line"/>
      <point x="1179.70202020202" y="269.69191919191917" type="line"/>
      <point x="434.48484848484844" y="269.69191919191917" type="line"/>
      <point x="438.6565656565656" y="208.18686868686865" type="line"/>
      <point x="1169.1060606060605" y="1301.7020202020203" type="line"/>
      <point x="1169.1060606060605" y="1480.0" type="line"/>
      <point x="70.08585858585859" y="1480.0" type="line"/>
      <point x="70.08585858585859" y="1210.3080808080808" type="line"/>
      <point x="794.1111111111112" y="1210.3080808080808" type="line"/>
      <point x="789.939393939394" y="1271.8131313131314" type="line"/>
      <point x="59.48989898989899" y="178.29797979797976" type="line"/>
    </contour>
  </outline>
</glyph>
<glyph name="bracketleft" format="2">
  <advance width="715.8585858585859"/>
  <unicode hex="005B"/>
  <outline>
    <contour>
      <point x="153.13636363636365" y="-440.0" type="line"/>
      <point x="739.010101010101" y="-440.0" type="line"/>
      <point x="739.010101010101" y="-189.2626262626263" type="line"/>
      <point x="471.75757575757575" y="-189.2626262626263" type="line"/>
      <point x="471.75757575757575" y="1365.2626262626263" type="line"/>
      <point x="746.030303030303" y="1365.2626262626263" type="line"/>
      <point x="746.030303030303" y="1616.0" type="line"/>
      <point x="153.13636363636365" y="1616.0" type="line"/>
    </contour>
  </outline>
</glyph>
<glyph name="backslash" format="2">
  <advance width="789.1717171717171"/>
  <unicode hex="005C"/>
  <outline>
    <contour>
      <point x="474.57070707070704" y="-240.0" type="line"/>
      <point x="789.1717171717171" y="-240.0" type="line"/>
      <point x="314.60101010101005" y="1616.0" type="line"/>
      <point x="0.0" y="1616.0" type="line"/>
    </contour>
  </outline>
</glyph>
<glyph name="bracketright" format="2">
  <advance width="715.8585858585859"/>
  <unicode hex="005D"/>
  <outline>
    <contour>
      <point x="-23.151515151515156" y="-440.0" type="line"/>
      <point x="562.7222222222222" y="-440.0" type="line"/>
      <point x="562.7222222222222" y="1616.0" type="line"/>
      <point x="-30.171717171717173" y="1616.0" type="line"/>
      <point x="-30.171717171717173" y="1365.2626262626263" type="line"/>
      <point x="244.1010101010101" y="1365.2626262626263" type="line"/>
      <point x="244.1010101010101" y="-189.2626262626263" type="line"/>
      <point x="-23.151515151515156" y="-189.2626262626263" type="line"/>
    </contour>
  </outline>
</glyph>
<glyph name="underscore" format="2">
  <advance width="1209.5959595959596"/>
  <unicode hex="005F"/>
  <outline>
    <contour>
      <point x="87.97979797979798" y="-251.4393939393939" type="line"/>
      <point x="1121.6161616161617" y="-251.4393939393939" type="line"/>
      <point x="1121.6161616161617" y="-0.7020202020202019" type="line"/>
      <point x="87.97979797979798" y="-0.7020202020202019" type="line"/>
    </contour>
  </outline>
</glyph>
<glyph name="b" format="2">
  <advance width="1229.6565656565656"/>
  <unicode hex="0062"/>
  <anchor x="619.4343434343434" y="0.0" name="bottom"/>
  <anchor x="278.4141414141414" y="1616.0" name="top"/>
  <outline>
    <contour>
      <point x="540.3484848484849" y="-20.106060606060606" type="curve" smooth="yes"/>
      <point x="956.8030303030303" y="-20.808080808080806"/>
      <point x="1160.2676767676767" y="183.35858585858585"/>
      <point x="1160.2676767676767" y="569.1262626262626" type="curve" smooth="yes"/>
      <point x="1160.2676767676767" y="949.3636363636364"/>
      <point x="965.0353535353536" y="1111.4444444444443"/>
      <point x="735.8232323232323" y="1111.4444444444443" type="curve" smooth="yes"/>
      <point x="612.4595959595958" y="1111.4444444444443"/>
      <point x="515.989898989899" y="1064.9747474747476"/>
      <point x="452.49999999999994" y="987.4646464646464" type="curve"/>
      <point x="437.3737373737373" y="987.4646464646464" type="line"/>
      <point x="437.3737373737373" y="1616.0" type="line"/>
      <point x="118.75252525252526" y="1616.0" type="line"/>
      <point x="118.75252525252526" y="40.848484848484844" type="line"/>
      <point x="245.46969696969697" y="-0.8939393939393945"/>
      <point x="399.82323232323233" y="-20.106060606060606"/>
    </contour>
    <contour>
      <point x="567.5151515151515" y="221.39898989898987" type="curve" smooth="yes"/>
      <point x="518.9141414141413" y="221.39898989898987"/>
      <point x="472.3131313131313" y="228.08080808080803"/>
      <point x="437.3737373737373" y="237.35858585858583" type="curve"/>
      <point x="437.3737373737373" y="784.7575757575758" type="line"/>
      <point x="483.9949494949494" y="829.469696969697"/>
      <point x="550.3434343434343" y="850.2828282828283"/>
      <point x="614.5858585858585" y="850.2828282828283" type="curve" smooth="yes"/>
      <point x="749.7222222222222" y="850.2828282828283"/>
      <point x="839.7525252525253" y="782.4898989898991"/>
      <point x="839.7525252525253" y="543.5757575757576" type="curve" smooth="yes"/>
      <point x="839.7525252525253" y="311.1313131313131"/>
      <point x="747.7222222222222" y="221.39898989898987"/>
    </contour>
  </outline>
</glyph>
<glyph name="f" format="2">
  <advance width="802.489898989899"/>
  <unicode hex="0066"/>
  <outline>
    <contour>
      <point x="202.70707070707073" y="0.0" type="line"/>
      <point x="519.2222222222222" y="0.0" type="line"/>
      <point x="519.2222222222222" y="1187.1868686868688" type="line" smooth="yes"/>
      <point x="519.2222222222222" y="1322.6010101010102"/>
      <point x="586.459595959596" y="1383.2626262626263"/>
      <point x="742.3989898989898" y="1383.2626262626263" type="curve" smooth="yes"/>
      <point x="779.4646464646464" y="1383.2626262626263"/>
      <point x="813.8282828282828" y="1380.3686868686868"/>
      <point x="853.4040404040404" y="1374.878787878788" type="curve"/>
      <point x="853.4040404040404" y="1624.0" type="line"/>
      <point x="801.3838383838383" y="1632.0"/>
      <point x="750.7878787878788" y="1636.0"/>
      <point x="693.7474747474747" y="1636.0" type="curve" smooth="yes"/>
      <point x="374.67676767676767" y="1636.0"/>
      <point x="202.70707070707073" y="1464.328282828283"/>
      <point x="202.70707070707073" y="1172.2525252525252" type="curve" smooth="yes"/>
    </contour>
    <contour>
      <point x="24.828282828282827" y="843.3030303030304" type="line"/>
      <point x="807.3838383838383" y="843.3030303030304" type="line"/>
      <point x="807.3838383838383" y="1094.040404040404" type="line"/>
      <point x="24.828282828282827" y="1094.040404040404" type="line"/>
    </contour>
  </outline>
</glyph>
<glyph name="h" format="2">
  <advance width="1222.4898989898988"/>
  <unicode hex="0068"/>
  <anchor x="616.2878787878788" y="0.0" name="bottom"/>
  <anchor x="616.2878787878788" y="547.020202020202" name="center"/>
  <anchor x="118.75252525252526" y="1351.7878787878788" name="stroke"/>
  <anchor x="616.2878787878788" y="1616.0" name="top"/>
  <outline>
    <contour>
      <point x="118.75252525252526" y="0.0" type="line"/>
      <point x="437.3737373737373" y="0.0" type="line"/>
      <point x="437.3737373737373" y="747.39898989899" type="line"/>
      <point x="487.14646464646466" y="807.6010101010102"/>
      <point x="567.2626262626262" y="836.3484848484849"/>
      <point x="638.929292929293" y="836.3484848484849" type="curve" smooth="yes"/>
      <point x="733.939393939394" y="836.3484848484849"/>
      <point x="793.5" y="794.1313131313132"/>
      <point x="793.5" y="660.6717171717172" type="curve" smooth="yes"/>
      <point x="793.5" y="0.0" type="line"/>
      <point x="1112.121212121212" y="0.0" type="line"/>
      <point x="1112.121212121212" y="682.1363636363636" type="line" smooth="yes"/>
      <point x="1112.121212121212" y="993.469696969697"/>
      <point x="955.1666666666666" y="1111.4444444444443"/>
      <point x="754.9545454545455" y="1111.4444444444443" type="curve" smooth="yes"/>
      <point x="629.6767676767677" y="1111.4444444444443"/>
      <point x="527.1414141414141" y="1066.550505050505"/>
      <point x="452.49999999999994" y="983.8888888888889" type="curve"/>
      <point x="437.3737373737373" y="983.8888888888889" type="line"/>
      <point x="437.3737373737373" y="1616.0" type="line"/>
      <point x="118.75252525252526" y="1616.0" type="line"/>
    </contour>
  </outline>
</glyph>
<glyph name="j" format="2">
  <advance width="556.8282828282828"/>
  <unicode hex="006A"/>
  <anchor x="274.9040404040404" y="1201.7878787878788" name="_top"/>
  <anchor x="274.9040404040404" y="1201.7878787878788" name="top"/>
  <outline>
    <contour>
      <point x="167.70202020202018" y="-471.2323232323232" type="line"/>
      <point x="366.05555555555554" y="-259.19191919191917"/>
      <point x="438.0757575757575" y="-64.13131313131314"/>
      <point x="438.0757575757575" y="189.14646464646464" type="curve" smooth="yes"/>
      <point x="438.0757575757575" y="1094.040404040404" type="line"/>
      <point x="118.75252525252526" y="1094.040404040404" type="line"/>
      <point x="118.75252525252526" y="175.82828282828282" type="line" smooth="yes"/>
      <point x="118.75252525252526" y="-40.30303030303031"/>
      <point x="78.30303030303031" y="-178.81818181818184"/>
      <point x="-37.848484848484844" y="-334.439393939394" type="curve"/>
    </contour>
    <contour>
      <point x="274.9040404040404" y="1255.080808080808" type="curve" smooth="yes"/>
      <point x="409.18686868686865" y="1255.080808080808"/>
      <point x="471.69191919191917" y="1315.5858585858587"/>
      <point x="471.69191919191917" y="1420.979797979798" type="curve" smooth="yes"/>
      <point x="471.69191919191917" y="1526.3737373737374"/>
      <point x="409.18686868686865" y="1587.4747474747473"/>
      <point x="274.9040404040404" y="1587.4747474747473" type="curve" smooth="yes"/>
      <point x="140.62121212121212" y="1587.4747474747473"/>
      <point x="78.11616161616163" y="1526.3737373737374"/>
      <point x="78.11616161616163" y="1420.979797979798" type="curve" smooth="yes"/>
      <point x="78.11616161616163" y="1315.5858585858587"/>
      <point x="140.62121212121212" y="1255.080808080808"/>
    </contour>
  </outline>
</glyph>
<glyph name="k" format="2">
  <advance width="1178.8383838383838"/>
  <unicode hex="006B"/>
  <anchor x="622.8989898989898" y="0.0" name="bottom"/>
  <anchor x="278.4141414141414" y="1616.0" name="top"/>
  <outline>
    <contour>
      <point x="865.2373737373737" y="0.0" type="line"/>
      <point x="1212.090909090909" y="0.0" type="line"/>
      <point x="801.1666666666665" y="610.0353535353536" type="line"/>
      <point x="801.1666666666665" y="526.2575757575758" type="line"/>
      <point x="1176.580808080808" y="1094.040404040404" type="line"/>
      <point x="837.0454545454545" y="1094.040404040404" type="line"/>
      <point x="478.45959595959596" y="561.8282828282828" type="line"/>
    </contour>
    <contour>
      <point x="410.1414141414141" y="434.35353535353534" type="line"/>
      <point x="590.959595959596" y="434.35353535353534" type="line"/>
      <point x="590.959595959596" y="689.3030303030303" type="line"/>
      <point x="410.1414141414141" y="689.3030303030303" type="line"/>
    </contour>
    <contour>
      <point x="118.75252525252526" y="0.0" type="line"/>
      <point x="437.3737373737373" y="0.0" type="line"/>
      <point x="437.3737373737373" y="1616.0" type="line"/>
      <point x="118.75252525252526" y="1616.0" type="line"/>
    </contour>
  </outline>
</glyph>
<glyph name="l" format="2">
  <advance width="556.1262626262626"/>
  <unicode hex="006C"/>
  <anchor x="277.7121212121212" y="0.0" name="bottom"/>
  <anchor x="536.3131313131313" y="1616.0" name="caronalt"/>
  <anchor x="681.3181818181818" y="794.0" name="periodcentered"/>
  <anchor x="278.4141414141414" y="714.0" name="slash"/>
  <anchor x="278.4141414141414" y="1616.0" name="top"/>
  <outline>
    <contour>
      <point x="118.75252525252526" y="0.0" type="line"/>
      <point x="437.3737373737373" y="0.0" type="line"/>
      <point x="437.3737373737373" y="1616.0" type="line"/>
      <point x="118.75252525252526" y="1616.0" type="line"/>
    </contour>
  </outline>
</glyph>
<glyph name="o" format="2">
  <advance width="1204.020202020202"/>
  <unicode hex="006F"/>
  <anchor x="602.010101010101" y="0.0" name="bottom"/>
  <anchor x="602.010101010101" y="547.020202020202" name="center"/>
  <anchor x="776.0252525252525" y="0.0" name="ogonek"/>
  <anchor x="602.010101010101" y="1200.0" name="top"/>
  <anchor x="640.2575757575758" y="1094.040404040404" name="topright"/>
  <outline>
    <contour>
      <point x="602.010101010101" y="-20.808080808080806" type="curve" smooth="yes"/>
      <point x="929.1262626262626" y="-20.808080808080806"/>
      <point x="1134.6313131313132" y="166.16666666666666"/>
      <point x="1134.6313131313132" y="545.6161616161617" type="curve" smooth="yes"/>
      <point x="1134.6313131313132" y="923.4494949494949"/>
      <point x="936.8484848484848" y="1111.4444444444443"/>
      <point x="602.010101010101" y="1111.4444444444443" type="curve" smooth="yes"/>
      <point x="267.1717171717172" y="1111.4444444444443"/>
      <point x="69.3888888888889" y="925.7676767676768"/>
      <point x="69.3888888888889" y="544.2121212121212" type="curve" smooth="yes"/>
      <point x="69.3888888888889" y="164.97474747474746"/>
      <point x="274.8939393939394" y="-20.808080808080806"/>
    </contour>
    <contour>
      <point x="602.010101010101" y="220.69696969696966" type="curve" smooth="yes"/>
      <point x="467.2323232323232" y="220.69696969696966"/>
      <point x="389.90404040404036" y="296.25757575757575"/>
      <point x="389.90404040404036" y="546.510101010101" type="curve" smooth="yes"/>
      <point x="389.90404040404036" y="794.9747474747475"/>
      <point x="468.6363636363636" y="869.939393939394"/>
      <point x="602.010101010101" y="869.939393939394" type="curve" smooth="yes"/>
      <point x="735.3838383838383" y="869.939393939394"/>
      <point x="814.1161616161617" y="794.9747474747475"/>
      <point x="814.1161616161617" y="543.3181818181819" type="curve" smooth="yes"/>
      <point x="814.1161616161617" y="296.25757575757575"/>
      <point x="736.7878787878788" y="220.69696969696966"/>
    </contour>
  </outline>
</glyph>
<glyph name="p" format="2">
  <advance width="1229.6565656565656"/>
  <unicode hex="0070"/>
  <outline>
    <contour>
      <point x="118.75252525252526" y="-440.0" type="line"/>
      <point x="437.3737373737373" y="-440.0" type="line"/>
      <point x="437.3737373737373" y="-12.23232323232323" type="line"/>
      <point x="474.9090909090909" y="-16.318181818181817"/>
      <point x="519.7222222222222" y="-20.106060606060606"/>
      <point x="564.0454545454545" y="-20.106060606060606" type="curve" smooth="yes"/>
      <point x="954.9949494949494" y="-20.106060606060606"/>
      <point x="1160.2676767676767" y="186.16666666666666"/>
      <point x="1160.2676767676767" y="567.7222222222222" type="curve" smooth="yes"/>
      <point x="1160.2676767676767" y="956.3838383838383"/>
      <point x="953.5050505050506" y="1111.4444444444443"/>
      <point x="711.570707070707" y="1111.4444444444443" type="curve" smooth="yes"/>
      <point x="582.2727272727273" y="1111.4444444444443"/>
      <point x="483.39898989898984" y="1057.9545454545455"/>
      <point x="420.9090909090909" y="977.2525252525253" type="curve"/>
      <point x="406.18686868686865" y="977.2525252525253" type="line"/>
      <point x="386.550505050505" y="1094.040404040404" type="line"/>
      <point x="118.75252525252526" y="1094.040404040404" type="line"/>
    </contour>
    <contour>
      <point x="564.2373737373737" y="222.10101010101008" type="curve" smooth="yes"/>
      <point x="521.020202020202" y="222.10101010101008"/>
      <point x="472.3131313131313" y="227.59090909090904"/>
      <point x="437.3737373737373" y="234.57070707070704" type="curve"/>
      <point x="437.3737373737373" y="776.7575757575758" type="line"/>
      <point x="483.2929292929292" y="828.0656565656566"/>
      <point x="552.1515151515151" y="850.9848484848485"/>
      <point x="618.010101010101" y="850.9848484848485" type="curve" smooth="yes"/>
      <point x="749.020202020202" y="850.9848484848485"/>
      <point x="839.7525252525253" y="783.1919191919192"/>
      <point x="839.7525252525253" y="542.8737373737374" type="curve" smooth="yes"/>
      <point x="839.7525252525253" y="311.8333333333333"/>
      <point x="747.7222222222222" y="222.10101010101008"/>
    </contour>
  </outline>
</glyph>
<glyph name="q" format="2">
  <advance width="1229.6565656565656"/>
  <unicode hex="0071"/>
  <outline>
    <contour>
      <point x="792.2828282828283" y="-440.0" type="line"/>
      <point x="1110.9040404040404" y="-440.0" type="line"/>
      <point x="1110.9040404040404" y="1050.489898989899" type="line"/>
      <point x="991.10101010101" y="1089.828282828283"/>
      <point x="829.8333333333333" y="1111.4444444444443"/>
      <point x="689.3080808080808" y="1111.4444444444443" type="curve" smooth="yes"/>
      <point x="272.85353535353534" y="1111.4444444444443"/>
      <point x="69.3888888888889" y="907.9797979797979"/>
      <point x="69.3888888888889" y="522.2121212121212" type="curve" smooth="yes"/>
      <point x="69.3888888888889" y="141.97474747474746"/>
      <point x="264.6212121212121" y="-20.106060606060606"/>
      <point x="493.83333333333337" y="-20.106060606060606" type="curve" smooth="yes"/>
      <point x="617.1969696969697" y="-20.106060606060606"/>
      <point x="713.6666666666666" y="26.363636363636367"/>
      <point x="777.1565656565657" y="103.87373737373738" type="curve"/>
      <point x="792.2828282828283" y="103.87373737373738" type="line"/>
    </contour>
    <contour>
      <point x="615.070707070707" y="241.05555555555551" type="curve" smooth="yes"/>
      <point x="479.9343434343434" y="241.05555555555551"/>
      <point x="389.90404040404036" y="308.8484848484848"/>
      <point x="389.90404040404036" y="547.7626262626262" type="curve" smooth="yes"/>
      <point x="389.90404040404036" y="780.2070707070707"/>
      <point x="486.1464646464646" y="869.939393939394"/>
      <point x="661.4393939393939" y="869.939393939394" type="curve" smooth="yes"/>
      <point x="710.7424242424242" y="869.939393939394"/>
      <point x="757.3434343434344" y="863.5555555555557"/>
      <point x="792.2828282828283" y="855.5757575757576" type="curve"/>
      <point x="792.2828282828283" y="306.5808080808081" type="line"/>
      <point x="745.6616161616162" y="261.86868686868684"/>
      <point x="678.7171717171717" y="241.05555555555551"/>
    </contour>
  </outline>
</glyph>
<glyph name="v" format="2">
  <advance width="1165.590909090909"/>
  <unicode hex="0076"/>
  <anchor x="583.2424242424242" y="0.0" name="bottom"/>
  <anchor x="583.2424242424242" y="1200.0" name="top"/>
  <outline>
    <contour>
      <point x="382.9040404040404" y="0.0" type="line"/>
      <point x="781.9848484848485" y="0.0" type="line"/>
      <point x="1166.5656565656566" y="1094.040404040404" type="line"/>
      <point x="852.7727272727273" y="1094.040404040404" type="line"/>
      <point x="580.560606060606" y="252.22222222222217" type="line"/>
      <point x="604.1767676767677" y="252.22222222222217" type="line"/>
      <point x="331.9646464646464" y="1094.040404040404" type="line"/>
      <point x="-0.9747474747474687" y="1094.040404040404" type="line"/>
    </contour>
  </outline>
</glyph>
<glyph name="x" format="2">
  <advance width="1125.6313131313132"/>
  <unicode hex="0078"/>
  <anchor x="563.2626262626262" y="0.0" name="bottom"/>
  <anchor x="563.9646464646464" y="1200.0" name="top"/>
  <outline>
    <contour>
      <point x="784.070707070707" y="0.0" type="line"/>
      <point x="1134.7323232323233" y="0.0" type="line"/>
      <point x="748.8787878787878" y="555.1262626262626" type="line"/>
      <point x="566.7727272727273" y="775.8030303030303" type="line"/>
      <point x="350.1565656565656" y="1094.040404040404" type="line"/>
      <point x="-0.5050505050504945" y="1094.040404040404" type="line"/>
      <point x="374.94444444444446" y="551.020202020202" type="line"/>
      <point x="560.560606060606" y="332.04545454545456" type="line"/>
    </contour>
    <contour>
      <point x="-7.505050505050502" y="0.0" type="line"/>
      <point x="333.7323232323232" y="0.0" type="line"/>
      <point x="560.560606060606" y="332.04545454545456" type="line"/>
      <point x="748.8787878787878" y="555.1262626262626" type="line"/>
      <point x="1122.2222222222222" y="1094.040404040404" type="line"/>
      <point x="781.5808080808081" y="1094.040404040404" type="line"/>
      <point x="566.7727272727273" y="775.8030303030303" type="line"/>
      <point x="374.94444444444446" y="551.020202020202" type="line"/>
    </contour>
  </outline>
</glyph>
<glyph name="z" format="2">
  <advance width="1012.4242424242424"/>
  <unicode hex="007A"/>
  <anchor x="514.3282828282828" y="0.0" name="bottom"/>
  <anchor x="514.3282828282828" y="1200.0" name="top"/>
  <outline>
    <contour>
      <point x="65.21212121212122" y="0.0" type="line"/>
      <point x="962.4444444444445" y="0.0" type="line"/>
      <point x="962.4444444444445" y="250.7373737373737" type="line"/>
      <point x="413.19191919191917" y="250.7373737373737" type="line"/>
      <point x="413.19191919191917" y="192.74242424242422" type="line"/>
      <point x="951.8484848484848" y="892.5757575757576" type="line"/>
      <point x="951.8484848484848" y="1094.040404040404" type="line"/>
      <point x="75.8080808080808" y="1094.040404040404" type="line"/>
      <point x="75.8080808080808" y="843.3030303030304" type="line"/>
      <point x="603.8686868686868" y="843.3030303030304" type="line"/>
      <point x="603.8686868686868" y="901.2979797979798" type="line"/>
      <point x="65.21212121212122" y="201.46464646464645" type="line"/>
    </contour>
  </outline>
</glyph>
<glyph name="braceleft" format="2">
  <advance width="755.8585858585859"/>
  <unicode hex="007B"/>
  <outline>
    <contour>
      <point x="611.9747474747475" y="-460.0" type="curve" smooth="yes"/>
      <point x="679.1414141414141" y="-460.0"/>
      <point x="737.0757575757575" y="-454.5959595959596"/>
      <point x="786.030303030303" y="-447.19191919191917" type="curve"/>
      <point x="786.030303030303" y="-204.4545454545455" type="line"/>
      <point x="665.540404040404" y="-204.4545454545455" type="line" smooth="yes"/>
      <point x="563.6565656565656" y="-204.4545454545455"/>
      <point x="511.75757575757575" y="-163.8535353535354"/>
      <point x="511.75757575757575" y="-63.07575757575759" type="curve" smooth="yes"/>
      <point x="511.75757575757575" y="364.5151515151515" type="line" smooth="yes"/>
      <point x="511.75757575757575" y="542.6363636363636"/>
      <point x="422.2323232323232" y="639.9090909090909"/>
      <point x="192.25252525252523" y="647.6565656565657" type="curve"/>
      <point x="192.25252525252523" y="610.3838383838383" type="line"/>
      <point x="422.2323232323232" y="618.1313131313132"/>
      <point x="511.75757575757575" y="715.4040404040404"/>
      <point x="511.75757575757575" y="893.5252525252525" type="curve" smooth="yes"/>
      <point x="511.75757575757575" y="1239.0757575757575" type="line" smooth="yes"/>
      <point x="511.75757575757575" y="1339.8535353535353"/>
      <point x="563.6565656565656" y="1380.4545454545455"/>
      <point x="665.540404040404" y="1380.4545454545455" type="curve" smooth="yes"/>
      <point x="786.030303030303" y="1380.4545454545455" type="line"/>
      <point x="786.030303030303" y="1623.1919191919192" type="line"/>
      <point x="737.0757575757575" y="1630.5959595959596"/>
      <point x="679.1414141414141" y="1636.0"/>
      <point x="611.9747474747475" y="1636.0" type="curve" smooth="yes"/>
      <point x="334.5151515151515" y="1636.0"/>
      <point x="193.13636363636365" y="1501.621212121212"/>
      <point x="193.13636363636365" y="1248.2222222222222" type="curve" smooth="yes"/>
      <point x="193.13636363636365" y="886.3333333333334" type="line" smooth="yes"/>
      <point x="193.13636363636365" y="801.3686868686868"/>
      <point x="143.77272727272728" y="754.3888888888889"/>
      <point x="61.78787878787879" y="754.3888888888889" type="curve" smooth="yes"/>
      <point x="9.58080808080809" y="754.3888888888889" type="line"/>
      <point x="9.58080808080809" y="503.6515151515152" type="line"/>
      <point x="61.78787878787879" y="503.6515151515152" type="line" smooth="yes"/>
      <point x="143.77272727272728" y="503.6515151515152"/>
      <point x="193.13636363636365" y="456.6717171717172"/>
      <point x="193.13636363636365" y="371.7070707070707" type="curve" smooth="yes"/>
      <point x="193.13636363636365" y="-72.22222222222224" type="line" smooth="yes"/>
      <point x="193.13636363636365" y="-325.6212121212121"/>
      <point x="334.5151515151515" y="-460.0"/>
    </contour>
  </outline>
</glyph>
<glyph name="bar" format="2">
  <advance width="553.3030303030303"/>
  <unicode hex="007C"/>
  <outline>
    <contour>
      <point x="133.13636363636365" y="-440.0" type="line"/>
      <point x="420.16666666666663" y="-440.0" type="line"/>
      <point x="420.16666666666663" y="1616.0" type="line"/>
      <point x="133.13636363636365" y="1616.0" type="line"/>
    </contour>
  </outline>
</glyph>
<glyph name="braceright" format="2">
  <advance width="755.8585858585859"/>
  <unicode hex="007D"/>
  <outline>
    <contour>
      <point x="143.88383838383837" y="-460.0" type="curve" smooth="yes"/>
      <point x="421.3434343434343" y="-460.0"/>
      <point x="562.7222222222222" y="-325.6212121212121"/>
      <point x="562.7222222222222" y="-72.22222222222224" type="curve" smooth="yes"/>
      <point x="562.7222222222222" y="371.7070707070707" type="line" smooth="yes"/>
      <point x="562.7222222222222" y="456.6717171717172"/>
      <point x="612.0858585858585" y="503.6515151515152"/>
      <point x="694.070707070707" y="503.6515151515152" type="curve" smooth="yes"/>
      <point x="746.2777777777777" y="503.6515151515152" type="line"/>
      <point x="746.2777777777777" y="754.3888888888889" type="line"/>
      <point x="694.070707070707" y="754.3888888888889" type="line" smooth="yes"/>
      <point x="612.0858585858585" y="754.3888888888889"/>
      <point x="562.7222222222222" y="801.3686868686868"/>
      <point x="562.7222222222222" y="886.3333333333334" type="curve" smooth="yes"/>
      <point x="562.7222222222222" y="1248.2222222222222" type="line" smooth="yes"/>
      <point x="562.7222222222222" y="1501.621212121212"/>
      <point x="421.3434343434343" y="1636.0"/>
      <point x="143.88383838383837" y="1636.0" type="curve" smooth="yes"/>
      <point x="76.71717171717171" y="1636.0"/>
      <point x="18.782828282828277" y="1630.5959595959596"/>
      <point x="-30.171717171717173" y="1623.1919191919192" type="curve"/>
      <point x="-30.171717171717173" y="1380.4545454545455" type="line"/>
      <point x="90.31818181818181" y="1380.4545454545455" type="line" smooth="yes"/>
      <point x="192.2020202020202" y="1380.4545454545455"/>
      <point x="244.1010101010101" y="1339.8535353535353"/>
      <point x="244.1010101010101" y="1239.0757575757575" type="curve" smooth="yes"/>
      <point x="244.1010101010101" y="893.5252525252525" type="line" smooth="yes"/>
      <point x="244.1010101010101" y="715.4040404040404"/>
      <point x="335.73232323232327" y="618.1313131313132"/>
      <point x="563.6060606060605" y="610.3838383838383" type="curve"/>
      <point x="563.6060606060605" y="647.6565656565657" type="line"/>
      <point x="335.73232323232327" y="639.9090909090909"/>
      <point x="244.1010101010101" y="542.6363636363636"/>
      <point x="244.1010101010101" y="364.5151515151515" type="curve" smooth="yes"/>
      <point x="244.1010101010101" y="-63.07575757575759" type="line" smooth="yes"/>
      <point x="244.1010101010101" y="-163.8535353535354"/>
      <point x="192.2020202020202" y="-204.4545454545455"/>
      <point x="90.31818181818181" y="-204.4545454545455" type="curve" smooth="yes"/>
      <point x="-30.171717171717173" y="-204.4545454545455" type="line"/>
      <point x="-30.171717171717173" y="-447.19191919191917" type="line"/>
      <point x="18.782828282828277" y="-454.5959595959596"/>
      <point x="76.71717171717171" y="-460.0"/>
    </contour>
  </outline>
</glyph>
<glyph name="asciitilde" format="2">
  <advance width="1099.909090909091"/>
  <unicode hex="007E"/>
  <outline>
    <contour>
      <point x="745.8232323232323" y="579.7575757575758" type="curve" smooth="yes"/>
      <point x="846.989898989899" y="579.7575757575758"/>
      <point x="921.2020202020202" y="610.3535353535353"/>
      <point x="982.7525252525252" y="678.1818181818182" type="curve"/>
      <point x="982.7525252525252" y="928.6666666666666" type="line"/>
      <point x="909.0959595959596" y="852.4545454545455"/>
      <point x="838.7777777777778" y="819.2626262626262"/>
      <point x="748.0353535353536" y="819.2626262626262" type="curve" smooth="yes"/>
      <point x="624.3787878787879" y="819.2626262626262"/>
      <point x="508.5505050505051" y="936.6666666666666"/>
      <point x="354.0858585858586" y="936.6666666666666" type="curve" smooth="yes"/>
      <point x="252.91919191919192" y="936.6666666666666"/>
      <point x="178.70707070707073" y="906.070707070707"/>
      <point x="117.15656565656568" y="838.2424242424242" type="curve"/>
      <point x="117.15656565656568" y="587.7575757575758" type="line"/>
      <point x="190.81313131313132" y="663.969696969697"/>
      <point x="261.13131313131316" y="697.1616161616162"/>
      <point x="351.87373737373736" y="697.1616161616162" type="curve" smooth="yes"/>
      <point x="475.530303030303" y="697.1616161616162"/>
      <point x="591.3585858585859" y="579.7575757575758"/>
    </contour>
  </outline>
</glyph>
<glyph name="exclamdown" format="2">
  <advance width="596.2323232323232"/>
  <unicode hex="00A1"/>
  <outline>
    <contour>
      <point x="202.510101010101" y="608.1515151515152" type="line"/>
      <point x="128.73232323232324" y="120.50000000000001" type="line"/>
      <point x="128.73232323232324" y="-380.0" type="line"/>
      <point x="467.49999999999994" y="-380.0" type="line"/>
      <point x="467.49999999999994" y="120.50000000000001" type="line"/>
      <point x="397.2323232323232" y="608.1515151515152" type="line"/>
    </contour>
    <contour>
      <point x="298.1161616161616" y="1111.060606060606" type="curve" smooth="yes"/>
      <point x="172.95959595959596" y="1111.060606060606"/>
      <point x="91.50000000000001" y="1037.2171717171718"/>
      <point x="91.50000000000001" y="917.7828282828283" type="curve" smooth="yes"/>
      <point x="91.50000000000001" y="798.3484848484849"/>
      <point x="170.15151515151516" y="723.909090909091"/>
      <point x="298.1161616161616" y="723.909090909091" type="curve" smooth="yes"/>
      <point x="426.0808080808081" y="723.909090909091"/>
      <point x="504.7323232323232" y="801.1565656565657"/>
      <point x="504.7323232323232" y="917.7828282828283" type="curve" smooth="yes"/>
      <point x="504.7323232323232" y="1034.409090909091"/>
      <point x="423.27272727272725" y="1111.060606060606"/>
    </contour>
  </outline>
</glyph>
<glyph name="cent" format="2">
  <advance width="966.489898989899"/>
  <unicode hex="00A2"/>
  <outline>
    <contour>
      <point x="636.9848484848485" y="-20.808080808080806" type="curve" smooth="yes"/>
      <point x="736.1313131313132" y="-20.808080808080806"/>
      <point x="833.7676767676767" y="-5.808080808080808"/>
      <point x="914.4494949494949" y="20.575757575757578" type="curve"/>
      <point x="914.4494949494949" y="272.50505050505046" type="line"/>
      <point x="822.0656565656566" y="247.33333333333331"/>
      <point x="755.4040404040404" y="236.1414141414141"/>
      <point x="686.8080808080808" y="236.1414141414141" type="curve" smooth="yes"/>
      <point x="495.8434343434343" y="236.1414141414141"/>
      <point x="397.6262626262626" y="322.31818181818176"/>
      <point x="397.6262626262626" y="548.2121212121212" type="curve" smooth="yes"/>
      <point x="397.6262626262626" y="766.0"/>
      <point x="493.82323232323233" y="854.4949494949495"/>
      <point x="712.9797979797979" y="854.4949494949495" type="curve" smooth="yes"/>
      <point x="780.2777777777777" y="854.4949494949495"/>
      <point x="843.959595959596" y="847.3030303030304"/>
      <point x="914.4494949494949" y="834.0252525252525" type="curve"/>
      <point x="914.4494949494949" y="1085.9545454545455" type="line"/>
      <point x="838.8333333333333" y="1103.1464646464647"/>
      <point x="759.0050505050505" y="1111.4444444444443"/>
      <point x="670.3484848484848" y="1111.4444444444443" type="curve" smooth="yes"/>
      <point x="287.33838383838383" y="1111.4444444444443"/>
      <point x="69.3888888888889" y="931.6818181818181"/>
      <point x="69.3888888888889" y="544.9141414141415" type="curve" smooth="yes"/>
      <point x="69.3888888888889" y="162.76262626262627"/>
      <point x="270.72222222222223" y="-20.808080808080806"/>
    </contour>
    <contour>
      <point x="470.1969696969697" y="-240.0" type="line"/>
      <point x="741.9949494949494" y="-240.0" type="line"/>
      <point x="741.9949494949494" y="42.12121212121211" type="line"/>
      <point x="470.1969696969697" y="42.12121212121211" type="line"/>
    </contour>
    <contour>
      <point x="470.1969696969697" y="1051.919191919192" type="line"/>
      <point x="741.9949494949494" y="1051.919191919192" type="line"/>
      <point x="741.9949494949494" y="1334.040404040404" type="line"/>
      <point x="470.1969696969697" y="1334.040404040404" type="line"/>
    </contour>
  </outline>
</glyph>
<glyph name="sterling" format="2">
  <advance width="1343.449494949495"/>
  <unicode hex="00A3"/>
  <outline>
    <contour>
      <point x="269.0707070707071" y="96.58585858585857" type="line"/>
      <point x="584.1818181818181" y="96.58585858585857" type="line"/>
      <point x="584.1818181818181" y="1015.4545454545455" type="line" smooth="yes"/>
      <point x="584.1818181818181" y="1174.449494949495"/>
      <point x="671.6161616161617" y="1237.5404040404042"/>
      <point x="918.2575757575758" y="1237.5404040404042" type="curve" smooth="yes"/>
      <point x="1022.2575757575758" y="1237.5404040404042"/>
      <point x="1144.3181818181818" y="1222.1363636363637"/>
      <point x="1238.7878787878788" y="1195.4545454545455" type="curve"/>
      <point x="1238.7878787878788" y="1459.3181818181818" type="line"/>
      <point x="1144.979797979798" y="1483.70202020202"/>
      <point x="1022.1515151515151" y="1499.4040404040404"/>
      <point x="897.3888888888889" y="1499.4040404040404" type="curve" smooth="yes"/>
      <point x="475.57575757575756" y="1499.4040404040404"/>
      <point x="269.0707070707071" y="1327.6010101010102"/>
      <point x="269.0707070707071" y="1002.8181818181819" type="curve" smooth="yes"/>
    </contour>
    <contour>
      <point x="72.97979797979798" y="0.0" type="line"/>
      <point x="1283.1060606060605" y="0.0" type="line"/>
      <point x="1283.1060606060605" y="259.1616161616161" type="line"/>
      <point x="72.97979797979798" y="259.1616161616161" type="line"/>
    </contour>
    <contour>
      <point x="72.97979797979798" y="631.6515151515151" type="line"/>
      <point x="1047.7272727272727" y="631.6515151515151" type="line"/>
      <point x="1047.7272727272727" y="868.3484848484849" type="line"/>
      <point x="72.97979797979798" y="868.3484848484849" type="line"/>
    </contour>
  </outline>
</glyph>
<glyph name="currency" format="2">
  <advance width="1254.4444444444443"/>
  <unicode hex="00A4"/>
  <outline>
    <contour>
      <point x="403.22222222222223" y="841.7171717171717" type="line"/>
      <point x="525.5050505050505" y="963.4040404040404" type="line"/>
      <point x="355.47474747474746" y="1164.2424242424242" type="line"/>
      <point x="244.030303030303" y="1278.2828282828282" type="line"/>
      <point x="88.34343434343435" y="1122.5959595959596" type="line"/>
      <point x="202.97979797979798" y="1011.1515151515151" type="line"/>
    </contour>
    <contour>
      <point x="851.2222222222222" y="841.7171717171717" type="line"/>
      <point x="1051.4646464646464" y="1011.1515151515151" type="line"/>
      <point x="1166.1010101010102" y="1122.5959595959596" type="line"/>
      <point x="1010.4141414141413" y="1278.2828282828282" type="line"/>
      <point x="898.969696969697" y="1164.2424242424242" type="line"/>
      <point x="728.939393939394" y="963.4040404040404" type="line"/>
    </contour>
    <contour>
      <point x="1009.8181818181818" y="201.71717171717174" type="line"/>
      <point x="1165.5050505050503" y="357.4040404040404" type="line"/>
      <point x="1051.4646464646464" y="468.8484848484849" type="line"/>
      <point x="854.2020202020202" y="635.3030303030303" type="line"/>
      <point x="731.9191919191919" y="512.4242424242424" type="line"/>
      <point x="898.3737373737374" y="315.75757575757575" type="line"/>
    </contour>
    <contour>
      <point x="244.62626262626262" y="201.71717171717174" type="line"/>
      <point x="356.07070707070704" y="315.75757575757575" type="line"/>
      <point x="522.5252525252524" y="512.4242424242424" type="line"/>
      <point x="400.24242424242425" y="635.3030303030303" type="line"/>
      <point x="202.97979797979798" y="468.8484848484849" type="line"/>
      <point x="88.93939393939394" y="357.4040404040404" type="line"/>
    </contour>
    <contour>
      <point x="627.2222222222222" y="372.3888888888889" type="curve" smooth="yes"/>
      <point x="837.090909090909" y="372.3888888888889"/>
      <point x="993.6818181818181" y="519.5353535353536"/>
      <point x="993.6818181818181" y="740.0" type="curve" smooth="yes"/>
      <point x="993.6818181818181" y="958.4646464646464"/>
      <point x="837.090909090909" y="1105.611111111111"/>
      <point x="627.2222222222222" y="1105.611111111111" type="curve" smooth="yes"/>
      <point x="416.75757575757575" y="1105.611111111111"/>
      <point x="260.76262626262627" y="958.4646464646464"/>
      <point x="260.76262626262627" y="740.0" type="curve" smooth="yes"/>
      <point x="260.76262626262627" y="519.5353535353536"/>
      <point x="416.75757575757575" y="372.3888888888889"/>
    </contour>
    <contour>
      <point x="627.2222222222222" y="548.1161616161617" type="curve" smooth="yes"/>
      <point x="524.1515151515151" y="548.1161616161617"/>
      <point x="449.1262626262626" y="619.7373737373737"/>
      <point x="449.1262626262626" y="740.0" type="curve" smooth="yes"/>
      <point x="449.1262626262626" y="860.2626262626263"/>
      <point x="524.1515151515151" y="931.8838383838383"/>
      <point x="629.2222222222222" y="931.8838383838383" type="curve" smooth="yes"/>
      <point x="737.2727272727273" y="931.8838383838383"/>
      <point x="805.3181818181818" y="851.070707070707"/>
      <point x="805.3181818181818" y="740.0" type="curve" smooth="yes"/>
      <point x="805.3181818181818" y="619.1414141414141"/>
      <point x="730.2929292929293" y="548.1161616161617"/>
    </contour>
  </outline>
</glyph>
<glyph name="yen" format="2">
  <advance width="1299.4898989898988"/>
  <unicode hex="00A5"/>
  <outline>
    <contour>
      <point x="489.03030303030306" y="0.0" type="line"/>
      <point x="813.969696969697" y="0.0" type="line"/>
      <point x="813.969696969697" y="753.3333333333334" type="line"/>
      <point x="748.2323232323232" y="519.3181818181819" type="line"/>
      <point x="1334.121212121212" y="1480.0" type="line"/>
      <point x="1014.030303030303" y="1480.0" type="line"/>
      <point x="613.0353535353536" y="826.0050505050505" type="line"/>
      <point x="704.60101010101" y="826.0050505050505" type="line"/>
      <point x="301.0959595959596" y="1480.0" type="line"/>
      <point x="-43.757575757575744" y="1480.0" type="line"/>
      <point x="554.7676767676768" y="519.3181818181819" type="line"/>
      <point x="489.03030303030306" y="757.5454545454545" type="line"/>
    </contour>
    <contour>
      <point x="176.05050505050505" y="261.7323232323232" type="line"/>
      <point x="1126.949494949495" y="261.7323232323232" type="line"/>
      <point x="1126.949494949495" y="450.69191919191917" type="line"/>
      <point x="176.05050505050505" y="450.69191919191917" type="line"/>
    </contour>
    <contour>
      <point x="176.05050505050505" y="597.3080808080808" type="line"/>
      <point x="1126.949494949495" y="597.3080808080808" type="line"/>
      <point x="1126.949494949495" y="786.2676767676768" type="line"/>
      <point x="176.05050505050505" y="786.2676767676768" type="line"/>
    </contour>
  </outline>
</glyph>
<glyph name="brokenbar" format="2">
  <advance width="553.3030303030303"/>
  <unicode hex="00A6"/>
  <outline>
    <contour>
      <point x="133.13636363636365" y="836.0" type="line"/>
      <point x="420.16666666666663" y="836.0" type="line"/>
      <point x="420.16666666666663" y="1616.0" type="line"/>
      <point x="133.13636363636365" y="1616.0" type="line"/>
    </contour>
    <contour>
      <point x="133.13636363636365" y="-440.0" type="line"/>
      <point x="420.16666666666663" y="-440.0" type="line"/>
      <point x="420.16666666666663" y="340.0" type="line"/>
      <point x="133.13636363636365" y="340.0" type="line"/>
    </contour>
  </outline>
</glyph>
<glyph name="section" format="2">
  <advance width="1108.8282828282827"/>
  <unicode hex="00A7"/>
  <outline>
    <contour>
      <point x="470.43939393939394" y="-20.808080808080806" type="curve" smooth="yes"/>
      <point x="800.8535353535353" y="-20.808080808080806"/>
      <point x="970.9747474747475" y="112.84848484848484"/>
      <point x="970.9747474747475" y="325.6313131313131" type="curve" smooth="yes"/>
      <point x="970.9747474747475" y="484.96969696969694"/>
      <point x="872.1919191919192" y="570.0555555555555"/>
      <point x="688.1464646464647" y="608.3333333333334" type="curve" smooth="yes"/>
      <point x="472.7979797979798" y="650.3737373737374" type="line" smooth="yes"/>
      <point x="383.0656565656566" y="669.3333333333334"/>
      <point x="353.33838383838383" y="710.3383838383838"/>
      <point x="353.33838383838383" y="770.1969696969697" type="curve" smooth="yes"/>
      <point x="353.33838383838383" y="816.8181818181819"/>
      <point x="374.0" y="856.9494949494949"/>
      <point x="422.2373737373737" y="902.8636363636364" type="curve"/>
      <point x="255.40404040404042" y="1013.959595959596" type="line"/>
      <point x="154.53535353535355" y="954.6414141414141"/>
      <point x="91.87878787878789" y="869.0252525252525"/>
      <point x="91.87878787878789" y="753.1565656565657" type="curve" smooth="yes"/>
      <point x="91.87878787878789" y="576.8636363636364"/>
      <point x="195.87373737373738" y="482.5656565656566"/>
      <point x="368.11111111111114" y="446.989898989899" type="curve" smooth="yes"/>
      <point x="582.7575757575758" y="404.949494949495" type="line" smooth="yes"/>
      <point x="653.5353535353536" y="390.2020202020202"/>
      <point x="682.3484848484849" y="363.1969696969697"/>
      <point x="682.3484848484849" y="307.6969696969697" type="curve" smooth="yes"/>
      <point x="682.3484848484849" y="242.3232323232323"/>
      <point x="632.3838383838383" y="199.6363636363636"/>
      <point x="467.1212121212121" y="199.6363636363636" type="curve" smooth="yes"/>
      <point x="357.76262626262627" y="199.6363636363636"/>
      <point x="247.57575757575756" y="212.74242424242422"/>
      <point x="139.46969696969697" y="241.93434343434342" type="curve"/>
      <point x="139.46969696969697" y="20.893939393939394" type="line"/>
      <point x="243.02020202020202" y="-7.1060606060606055"/>
      <point x="363.7171717171717" y="-20.808080808080806"/>
    </contour>
    <contour>
      <point x="841.8737373737374" y="457.9141414141414" type="line"/>
      <point x="948.2727272727273" y="518.3383838383838"/>
      <point x="1016.9494949494949" y="605.8686868686868"/>
      <point x="1016.9494949494949" y="729.1414141414141" type="curve" smooth="yes"/>
      <point x="1016.9494949494949" y="907.4343434343434"/>
      <point x="918.1666666666666" y="997.3282828282828"/>
      <point x="740.439393939394" y="1032.7979797979797" type="curve" smooth="yes"/>
      <point x="518.7727272727273" y="1073.4343434343434" type="line" smooth="yes"/>
      <point x="447.9949494949494" y="1088.1818181818182"/>
      <point x="419.45959595959596" y="1117.358585858586"/>
      <point x="419.45959595959596" y="1166.6868686868686" type="curve" smooth="yes"/>
      <point x="419.45959595959596" y="1224.1868686868688"/>
      <point x="470.2525252525252" y="1276.959595959596"/>
      <point x="678.9141414141413" y="1276.959595959596" type="curve" smooth="yes"/>
      <point x="764.1262626262626" y="1276.959595959596"/>
      <point x="844.570707070707" y="1268.959595959596"/>
      <point x="930.7626262626262" y="1249.1717171717173" type="curve"/>
      <point x="930.7626262626262" y="1470.2121212121212" type="line"/>
      <point x="849.8484848484848" y="1487.4040404040404"/>
      <point x="751.9797979797979" y="1497.4040404040404"/>
      <point x="655.7474747474747" y="1497.4040404040404" type="curve" smooth="yes"/>
      <point x="287.2323232323232" y="1497.4040404040404"/>
      <point x="130.83333333333334" y="1357.3636363636363"/>
      <point x="130.83333333333334" y="1149.6464646464647" type="curve" smooth="yes"/>
      <point x="130.83333333333334" y="999.3282828282828"/>
      <point x="233.42424242424244" y="907.7323232323232"/>
      <point x="420.4040404040404" y="870.0505050505051" type="curve" smooth="yes"/>
      <point x="635.0505050505051" y="828.010101010101" type="line" smooth="yes"/>
      <point x="724.7828282828283" y="809.0505050505051"/>
      <point x="755.489898989899" y="770.2171717171717"/>
      <point x="755.489898989899" y="707.6969696969697" type="curve" smooth="yes"/>
      <point x="755.489898989899" y="657.5858585858585"/>
      <point x="732.0202020202021" y="621.1565656565656"/>
      <point x="668.1262626262626" y="573.3282828282828" type="curve"/>
    </contour>
  </outline>
</glyph>
<glyph name="copyright" format="2">
  <advance width="1663.6262626262626"/>
  <unicode hex="00A9"/>
  <outline>
    <contour>
      <point x="831.8131313131313" y="-22.0" type="curve" smooth="yes"/>
      <point x="1282.0252525252524" y="-22.0"/>
      <point x="1580.0252525252524" y="282.0"/>
      <point x="1580.0252525252524" y="740.0" type="curve" smooth="yes"/>
      <point x="1580.0252525252524" y="1198.0"/>
      <point x="1282.0252525252524" y="1502.0"/>
      <point x="831.8131313131313" y="1502.0" type="curve" smooth="yes"/>
      <point x="381.6010101010101" y="1502.0"/>
      <point x="83.6010101010101" y="1198.0"/>
      <point x="83.6010101010101" y="740.0" type="curve" smooth="yes"/>
      <point x="83.6010101010101" y="282.0"/>
      <point x="381.6010101010101" y="-22.0"/>
    </contour>
    <contour>
      <point x="891.0858585858585" y="324.0" type="curve" smooth="yes"/>
      <point x="971.8939393939394" y="324.0"/>
      <point x="1043.8939393939395" y="336.0"/>
      <point x="1099.2575757575758" y="357.57575757575756" type="curve"/>
      <point x="1099.2575757575758" y="552.7474747474747" type="line"/>
      <point x="1020.0656565656566" y="530.5757575757575"/>
      <point x="969.1262626262626" y="523.3838383838383"/>
      <point x="912.530303030303" y="523.3838383838383" type="curve" smooth="yes"/>
      <point x="775.5" y="523.3838383838383"/>
      <point x="695.6212121212121" y="594.070707070707"/>
      <point x="695.6212121212121" y="733.7878787878788" type="curve" smooth="yes"/>
      <point x="695.6212121212121" y="873.1212121212121"/>
      <point x="771.2878787878788" y="944.6161616161617"/>
      <point x="927.510101010101" y="944.6161616161617" type="curve" smooth="yes"/>
      <point x="987.6818181818181" y="944.6161616161617"/>
      <point x="1038.6616161616162" y="937.4242424242425"/>
      <point x="1099.2575757575758" y="925.040404040404" type="curve"/>
      <point x="1099.2575757575758" y="1120.2121212121212" type="line"/>
      <point x="1040.8737373737374" y="1136.0"/>
      <point x="979.469696969697" y="1144.0"/>
      <point x="907.2575757575758" y="1144.0" type="curve" smooth="yes"/>
      <point x="632.0252525252525" y="1144.0"/>
      <point x="463.56060606060606" y="993.1919191919192"/>
      <point x="463.56060606060606" y="732.5959595959596" type="curve" smooth="yes"/>
      <point x="463.56060606060606" y="470.42424242424244"/>
      <point x="631.6010101010102" y="324.0"/>
    </contour>
    <contour>
      <point x="831.8131313131313" y="147.09090909090907" type="curve" smooth="yes"/>
      <point x="473.550505050505" y="147.09090909090907"/>
      <point x="259.7121212121212" y="376.75757575757575"/>
      <point x="259.7121212121212" y="740.0" type="curve" smooth="yes"/>
      <point x="259.7121212121212" y="1103.2424242424242"/>
      <point x="473.550505050505" y="1332.909090909091"/>
      <point x="831.8131313131313" y="1332.909090909091" type="curve" smooth="yes"/>
      <point x="1190.0757575757575" y="1332.909090909091"/>
      <point x="1403.9141414141413" y="1103.2424242424242"/>
      <point x="1403.9141414141413" y="740.0" type="curve" smooth="yes"/>
      <point x="1403.9141414141413" y="376.75757575757575"/>
      <point x="1190.0757575757575" y="147.09090909090907"/>
    </contour>
  </outline>
</glyph>
<glyph name="ordfeminine" format="2">
  <advance width="936.1111111111111"/>
  <unicode hex="00AA"/>
  <outline>
    <contour>
      <point x="335.85353535353534" y="593.1919191919192" type="curve" smooth="yes"/>
      <point x="432.8131313131313" y="593.1919191919192"/>
      <point x="522.4747474747475" y="625.2575757575758"/>
      <point x="575.2424242424242" y="697.2575757575758" type="curve"/>
      <point x="588.9646464646464" y="697.2575757575758" type="line"/>
      <point x="610.4090909090909" y="610.0" type="line"/>
      <point x="855.2525252525252" y="610.0" type="line"/>
      <point x="855.2525252525252" y="1115.949494949495" type="line" smooth="yes"/>
      <point x="855.2525252525252" y="1400.939393939394"/>
      <point x="720.7878787878788" y="1499.020202020202"/>
      <point x="416.6969696969697" y="1499.020202020202" type="curve" smooth="yes"/>
      <point x="320.95454545454544" y="1499.020202020202"/>
      <point x="207.59595959595958" y="1486.4242424242425"/>
      <point x="113.13131313131314" y="1460.828282828283" type="curve"/>
      <point x="113.13131313131314" y="1245.8939393939395" type="line"/>
      <point x="193.4090909090909" y="1268.8737373737374"/>
      <point x="284.32323232323233" y="1281.1717171717173"/>
      <point x="360.34343434343435" y="1281.1717171717173" type="curve" smooth="yes"/>
      <point x="516.3232323232323" y="1281.1717171717173"/>
      <point x="561.6919191919192" y="1244.4040404040404"/>
      <point x="561.6919191919192" y="1153.050505050505" type="curve" smooth="yes"/>
      <point x="561.6919191919192" y="832.1212121212121" type="line"/>
      <point x="527.1111111111111" y="801.60101010101"/>
      <point x="481.97474747474746" y="789.2777777777777"/>
      <point x="443.24242424242425" y="789.2777777777777" type="curve" smooth="yes"/>
      <point x="368.02020202020196" y="789.2777777777777"/>
      <point x="328.80303030303025" y="822.4949494949494"/>
      <point x="328.80303030303025" y="884.9494949494949" type="curve" smooth="yes"/>
      <point x="328.80303030303025" y="943.510101010101"/>
      <point x="366.21212121212113" y="975.8333333333334"/>
      <point x="457.98989898989896" y="982.6010101010102" type="curve" smooth="yes"/>
      <point x="643.6212121212121" y="994.3484848484849" type="line"/>
      <point x="608.3282828282828" y="1138.2929292929293" type="line"/>
      <point x="414.86868686868684" y="1125.141414141414" type="line" smooth="yes"/>
      <point x="148.2171717171717" y="1110.5656565656566"/>
      <point x="38.96464646464647" y="1020.1414141414141"/>
      <point x="38.96464646464647" y="849.4646464646464" type="curve" smooth="yes"/>
      <point x="38.96464646464647" y="699.1464646464647"/>
      <point x="143.3686868686869" y="593.1919191919192"/>
    </contour>
  </outline>
</glyph>
<glyph name="guillemetleft" format="2">
  <advance width="1224.2878787878788"/>
  <unicode hex="00AB"/>
  <outline>
    <contour>
      <point x="334.85858585858585" y="132.97979797979798" type="line"/>
      <point x="658.7777777777778" y="132.97979797979798" type="line"/>
      <point x="408.3939393939394" y="567.020202020202" type="line"/>
      <point x="658.7777777777778" y="1001.060606060606" type="line"/>
      <point x="334.85858585858585" y="1001.060606060606" type="line"/>
      <point x="84.47474747474749" y="567.020202020202" type="line"/>
    </contour>
    <contour>
      <point x="855.8939393939394" y="132.97979797979798" type="line"/>
      <point x="1179.8131313131312" y="132.97979797979798" type="line"/>
      <point x="929.4292929292928" y="567.020202020202" type="line"/>
      <point x="1179.8131313131312" y="1001.060606060606" type="line"/>
      <point x="855.8939393939394" y="1001.060606060606" type="line"/>
      <point x="605.5101010101009" y="567.020202020202" type="line"/>
    </contour>
  </outline>
</glyph>
<glyph name="logicalnot" format="2">
  <advance width="1332.5959595959596"/>
  <unicode hex="00AC"/>
  <outline>
    <contour>
      <point x="967.4898989898991" y="197.6161616161616" type="line"/>
      <point x="1222.2272727272727" y="197.6161616161616" type="line"/>
      <point x="1222.2272727272727" y="881.8585858585858" type="line"/>
      <point x="117.15656565656568" y="881.8585858585858" type="line"/>
      <point x="117.15656565656568" y="638.1414141414142" type="line"/>
      <point x="967.4898989898991" y="638.1414141414142" type="line"/>
    </contour>
  </outline>
</glyph>
<glyph name="registered" format="2">
  <advance width="1437.5050505050506"/>
  <unicode hex="00AE"/>
  <outline>
    <contour>
      <point x="718.7525252525253" y="268.0" type="curve" smooth="yes"/>
      <point x="1080.7525252525252" y="268.0"/>
      <point x="1328.7525252525252" y="518.0"/>
      <point x="1328.7525252525252" y="882.0" type="curve" smooth="yes"/>
      <point x="1328.7525252525252" y="1246.0"/>
      <point x="1080.7525252525252" y="1498.0"/>
      <point x="718.7525252525253" y="1498.0" type="curve" smooth="yes"/>
      <point x="356.7525252525253" y="1498.0"/>
      <point x="108.75252525252526" y="1246.0"/>
      <point x="108.75252525252526" y="882.0" type="curve" smooth="yes"/>
      <point x="108.75252525252526" y="518.0"/>
      <point x="356.7525252525253" y="268.0"/>
    </contour>
    <contour>
      <point x="846.2070707070707" y="600.0" type="line"/>
      <point x="996.6212121212121" y="600.0" type="line"/>
      <point x="837.469696969697" y="831.9191919191919" type="line"/>
      <point x="704.459595959596" y="805.9191919191919" type="line"/>
    </contour>
    <contour>
      <point x="718.7525252525253" y="397.1818181818182" type="curve" smooth="yes"/>
      <point x="432.87373737373736" y="397.1818181818182"/>
      <point x="246.95454545454544" y="587.9090909090909"/>
      <point x="246.95454545454544" y="882.0" type="curve" smooth="yes"/>
      <point x="246.95454545454544" y="1177.4949494949494"/>
      <point x="432.87373737373736" y="1368.8181818181818"/>
      <point x="718.7525252525253" y="1368.8181818181818" type="curve" smooth="yes"/>
      <point x="1004.6313131313132" y="1368.8181818181818"/>
      <point x="1190.550505050505" y="1177.4949494949494"/>
      <point x="1190.550505050505" y="882.0" type="curve" smooth="yes"/>
      <point x="1190.550505050505" y="587.9090909090909"/>
      <point x="1004.6313131313132" y="397.1818181818182"/>
    </contour>
    <contour>
      <point x="500.92424242424244" y="600.0" type="line"/>
      <point x="637.1262626262626" y="600.0" type="line"/>
      <point x="641.3383838383838" y="797.9191919191919" type="line"/>
      <point x="708.9646464646464" y="797.9191919191919" type="line" smooth="yes"/>
      <point x="883.6010101010102" y="797.9191919191919"/>
      <point x="967.0050505050505" y="862.5151515151515"/>
      <point x="967.0050505050505" y="993.959595959596" type="curve" smooth="yes"/>
      <point x="967.0050505050505" y="1125.4040404040404"/>
      <point x="881.6010101010102" y="1192.0"/>
      <point x="708.9646464646464" y="1192.0" type="curve" smooth="yes"/>
      <point x="500.92424242424244" y="1192.0" type="line"/>
    </contour>
    <contour>
      <point x="641.3383838383838" y="909.060606060606" type="line"/>
      <point x="641.3383838383838" y="1080.858585858586" type="line"/>
      <point x="730.7929292929293" y="1080.858585858586" type="line" smooth="yes"/>
      <point x="797.8636363636364" y="1080.858585858586"/>
      <point x="833.6111111111111" y="1052.090909090909"/>
      <point x="833.6111111111111" y="993.959595959596" type="curve" smooth="yes"/>
      <point x="833.6111111111111" y="935.8282828282828"/>
      <point x="799.8636363636364" y="909.060606060606"/>
      <point x="730.7929292929293" y="909.060606060606" type="curve" smooth="yes"/>
    </contour>
  </outline>
</glyph>
<glyph name="macron" format="2">
  <advance width="1140.4040404040404"/>
  <unicode hex="00AF"/>
  <anchor x="570.2020202020202" y="1200.0" name="_top"/>
  <anchor x="570.2020202020202" y="1598.121212121212" name="top"/>
  <outline>
    <contour>
      <point x="214.89393939393938" y="1324.5" type="line"/>
      <point x="925.5101010101009" y="1324.5" type="line"/>
      <point x="925.5101010101009" y="1516.1818181818182" type="line"/>
      <point x="214.89393939393938" y="1516.1818181818182" type="line"/>
    </contour>
  </outline>
</glyph>
<glyph name="degree" format="2">
  <advance width="971.3636363636364"/>
  <unicode hex="00B0"/>
  <outline>
    <contour>
      <point x="485.6818181818182" y="754.7777777777778" type="curve" smooth="yes"/>
      <point x="703.5505050505051" y="754.7777777777778"/>
      <point x="862.6111111111111" y="911.6262626262626"/>
      <point x="862.6111111111111" y="1127.4949494949494" type="curve" smooth="yes"/>
      <point x="862.6111111111111" y="1343.3636363636363"/>
      <point x="703.5505050505051" y="1498.8080808080808"/>
      <point x="485.6818181818182" y="1498.8080808080808" type="curve" smooth="yes"/>
      <point x="267.8131313131313" y="1498.8080808080808"/>
      <point x="108.75252525252526" y="1343.3636363636363"/>
      <point x="108.75252525252526" y="1127.4949494949494" type="curve" smooth="yes"/>
      <point x="108.75252525252526" y="911.6262626262626"/>
      <point x="267.8131313131313" y="754.7777777777778"/>
    </contour>
    <contour>
      <point x="485.6818181818182" y="940.2272727272727" type="curve" smooth="yes"/>
      <point x="382.63131313131316" y="940.2272727272727"/>
      <point x="306.3282828282828" y="1011.9343434343434"/>
      <point x="306.3282828282828" y="1127.4949494949494" type="curve" smooth="yes"/>
      <point x="306.3282828282828" y="1243.7575757575758"/>
      <point x="384.0353535353535" y="1313.358585858586"/>
      <point x="485.6818181818182" y="1313.358585858586" type="curve" smooth="yes"/>
      <point x="587.3282828282828" y="1313.358585858586"/>
      <point x="665.0353535353536" y="1243.7575757575758"/>
      <point x="665.0353535353536" y="1127.4949494949494" type="curve" smooth="yes"/>
      <point x="665.0353535353536" y="1011.9343434343434"/>
      <point x="588.7323232323232" y="940.2272727272727"/>
    </contour>
  </outline>
</glyph>
<glyph name="plusminus" format="2">
  <advance width="1099.909090909091"/>
  <unicode hex="00B1"/>
  <outline>
    <contour>
      <point x="422.5858585858586" y="373.5656565656566" type="line"/>
      <point x="677.3232323232323" y="373.5656565656566" type="line"/>
      <point x="677.3232323232323" y="671.6161616161617" type="line"/>
      <point x="982.7525252525252" y="671.6161616161617" type="line"/>
      <point x="982.7525252525252" y="915.3333333333333" type="line"/>
      <point x="677.3232323232323" y="915.3333333333333" type="line"/>
      <point x="677.3232323232323" y="1213.3838383838383" type="line"/>
      <point x="422.5858585858586" y="1213.3838383838383" type="line"/>
      <point x="422.5858585858586" y="915.3333333333333" type="line"/>
      <point x="117.15656565656568" y="915.3333333333333" type="line"/>
      <point x="117.15656565656568" y="671.6161616161617" type="line"/>
      <point x="422.5858585858586" y="671.6161616161617" type="line"/>
    </contour>
    <contour>
      <point x="117.15656565656568" y="0.7020202020202019" type="line"/>
      <point x="982.7525252525252" y="0.7020202020202019" type="line"/>
      <point x="982.7525252525252" y="244.4191919191919" type="line"/>
      <point x="117.15656565656568" y="244.4191919191919" type="line"/>
    </contour>
  </outline>
</glyph>
<glyph name="acute" format="2">
  <advance width="1140.4040404040404"/>
  <unicode hex="00B4"/>
  <anchor x="570.2020202020202" y="1200.0" name="_top"/>
  <anchor x="570.2020202020202" y="1626.20202020202" name="top"/>
  <outline>
    <contour>
      <point x="424.4747474747475" y="1233.111111111111" type="line"/>
      <point x="715.9292929292928" y="1233.111111111111" type="line"/>
      <point x="987.7727272727273" y="1616.0" type="line"/>
      <point x="650.0252525252525" y="1616.0" type="line"/>
    </contour>
  </outline>
</glyph>
<glyph name="micro" format="2">
  <advance width="1213.1919191919192"/>
  <unicode hex="00B5"/>
  <outline>
    <contour>
      <point x="553.3939393939394" y="-18.7020202020202" type="curve" smooth="yes"/>
      <point x="646.2929292929293" y="-18.7020202020202"/>
      <point x="730.5757575757576" y="25.48989898989899"/>
      <point x="796.4949494949495" y="109.95959595959596" type="curve"/>
      <point x="810.1111111111111" y="109.95959595959596" type="line"/>
      <point x="831.5555555555555" y="0.0" type="line"/>
      <point x="1094.439393939394" y="0.0" type="line"/>
      <point x="1094.439393939394" y="1094.040404040404" type="line"/>
      <point x="775.8181818181819" y="1094.040404040404" type="line"/>
      <point x="775.8181818181819" y="345.0454545454545" type="line"/>
      <point x="726.3434343434343" y="285.1414141414141"/>
      <point x="646.2272727272727" y="255.79797979797974"/>
      <point x="578.560606060606" y="255.79797979797974" type="curve" smooth="yes"/>
      <point x="488.550505050505" y="255.79797979797974"/>
      <point x="428.98989898989896" y="298.6111111111111"/>
      <point x="428.98989898989896" y="430.66666666666663" type="curve" smooth="yes"/>
      <point x="428.98989898989896" y="631.4646464646464" type="line"/>
      <point x="271.47474747474746" y="631.4646464646464" type="line"/>
      <point x="271.47474747474746" y="409.2020202020202" type="line" smooth="yes"/>
      <point x="271.47474747474746" y="99.27272727272727"/>
      <point x="385.9646464646464" y="-18.7020202020202"/>
    </contour>
    <contour>
      <point x="110.36868686868688" y="-440.0" type="line"/>
      <point x="428.98989898989896" y="-440.0" type="line"/>
      <point x="428.98989898989896" y="1093.3383838383838" type="line"/>
      <point x="110.36868686868688" y="1093.3383838383838" type="line"/>
    </contour>
  </outline>
</glyph>
<glyph name="paragraph" format="2">
  <advance width="1316.681818181818"/>
  <unicode hex="00B6"/>
  <outline>
    <contour>
      <point x="601.6363636363636" y="0.0" type="line"/>
      <point x="827.5909090909091" y="0.0" type="line"/>
      <point x="827.5909090909091" y="1480.0" type="line"/>
      <point x="742.9747474747475" y="1491.510101010101"/>
      <point x="643.5505050505051" y="1498.2121212121212"/>
      <point x="546.1464646464647" y="1498.2121212121212" type="curve" smooth="yes"/>
      <point x="222.62121212121212" y="1498.2121212121212"/>
      <point x="73.02525252525253" y="1333.8737373737374"/>
      <point x="73.02525252525253" y="963.4747474747475" type="curve" smooth="yes"/>
      <point x="73.02525252525253" y="612.3737373737374"/>
      <point x="218.23737373737373" y="428.84343434343435"/>
      <point x="508.32828282828285" y="428.84343434343435" type="curve" smooth="yes"/>
      <point x="542.7575757575758" y="428.84343434343435"/>
      <point x="570.1010101010102" y="430.43939393939394"/>
      <point x="601.6363636363636" y="432.52525252525254" type="curve"/>
    </contour>
    <contour>
      <point x="957.5909090909091" y="0.0" type="line"/>
      <point x="1183.5454545454545" y="0.0" type="line"/>
      <point x="1183.5454545454545" y="1480.0" type="line"/>
      <point x="957.5909090909091" y="1480.0" type="line"/>
    </contour>
  </outline>
</glyph>
<glyph name="onesuperior" format="2">
  <advance width="855.0050505050505"/>
  <unicode hex="00B9"/>
  <outline>
    <contour>
      <point x="342.17676767676767" y="-108.97979797979798" type="line"/>
      <point x="596.4242424242424" y="-108.97979797979798" type="line"/>
      <point x="596.4242424242424" y="868.0" type="line"/>
      <point x="431.86868686868684" y="868.0" type="line"/>
      <point x="134.3838383838384" y="676.7222222222222" type="line"/>
      <point x="134.3838383838384" y="455.19191919191917" type="line"/>
      <point x="431.86868686868684" y="646.469696969697" type="line"/>
      <point x="342.17676767676767" y="725.5656565656566" type="line"/>
    </contour>
    <contour>
      <point x="130.95959595959596" y="-136.0" type="line"/>
      <point x="796.3434343434343" y="-136.0" type="line"/>
      <point x="796.3434343434343" y="68.51010101010098" type="line"/>
      <point x="130.95959595959596" y="68.51010101010098" type="line"/>
    </contour>
  </outline>
</glyph>
<glyph name="ordmasculine" format="2">
  <advance width="1009.3030303030303"/>
  <unicode hex="00BA"/>
  <outline>
    <contour>
      <point x="504.6515151515151" y="593.1919191919192" type="curve" smooth="yes"/>
      <point x="794.8737373737374" y="593.1919191919192"/>
      <point x="963.6363636363636" y="756.7828282828283"/>
      <point x="963.6363636363636" y="1046.70202020202" type="curve" smooth="yes"/>
      <point x="963.6363636363636" y="1336.621212121212"/>
      <point x="794.8737373737374" y="1499.020202020202"/>
      <point x="504.6515151515151" y="1499.020202020202" type="curve" smooth="yes"/>
      <point x="214.42929292929293" y="1499.020202020202"/>
      <point x="45.66666666666668" y="1340.1313131313132"/>
      <point x="45.66666666666668" y="1046.70202020202" type="curve" smooth="yes"/>
      <point x="45.66666666666668" y="753.2727272727273"/>
      <point x="214.42929292929293" y="593.1919191919192"/>
    </contour>
    <contour>
      <point x="504.6515151515151" y="811.3383838383838" type="curve" smooth="yes"/>
      <point x="406.27777777777777" y="811.3383838383838"/>
      <point x="341.1212121212121" y="866.8131313131313"/>
      <point x="341.1212121212121" y="1046.70202020202" type="curve" smooth="yes"/>
      <point x="341.1212121212121" y="1227.2929292929293"/>
      <point x="406.27777777777777" y="1280.8737373737374"/>
      <point x="504.6515151515151" y="1280.8737373737374" type="curve" smooth="yes"/>
      <point x="604.429292929293" y="1280.8737373737374"/>
      <point x="668.1818181818182" y="1227.2929292929293"/>
      <point x="668.1818181818182" y="1046.70202020202" type="curve" smooth="yes"/>
      <point x="668.1818181818182" y="866.8131313131313"/>
      <point x="604.429292929293" y="811.3383838383838"/>
    </contour>
  </outline>
</glyph>
<glyph name="guillemetright" format="2">
  <advance width="1224.2878787878788"/>
  <unicode hex="00BB"/>
  <outline>
    <contour>
      <point x="44.47474747474748" y="132.97979797979798" type="line"/>
      <point x="368.3939393939394" y="132.97979797979798" type="line"/>
      <point x="618.7777777777778" y="567.020202020202" type="line"/>
      <point x="368.3939393939394" y="1001.060606060606" type="line"/>
      <point x="44.47474747474748" y="1001.060606060606" type="line"/>
      <point x="294.85858585858585" y="567.020202020202" type="line"/>
    </contour>
    <contour>
      <point x="565.5101010101009" y="132.97979797979798" type="line"/>
      <point x="889.4292929292928" y="132.97979797979798" type="line"/>
      <point x="1139.8131313131312" y="567.020202020202" type="line"/>
      <point x="889.4292929292928" y="1001.060606060606" type="line"/>
      <point x="565.5101010101009" y="1001.060606060606" type="line"/>
      <point x="815.8939393939394" y="567.020202020202" type="line"/>
    </contour>
  </outline>
</glyph>
<glyph name="onequarter" format="2">
  <advance width="2079.030303030303"/>
  <unicode hex="00BC"/>
  <outline>
    <contour>
      <point x="342.17676767676767" y="643.020202020202" type="line"/>
      <point x="596.4242424242424" y="643.020202020202" type="line"/>
      <point x="596.4242424242424" y="1620.0" type="line"/>
      <point x="431.86868686868684" y="1620.0" type="line"/>
      <point x="134.3838383838384" y="1428.7222222222222" type="line"/>
      <point x="134.3838383838384" y="1207.1919191919192" type="line"/>
      <point x="431.86868686868684" y="1398.469696969697" type="line"/>
      <point x="342.17676767676767" y="1477.5656565656566" type="line"/>
    </contour>
    <contour>
      <point x="130.95959595959596" y="616.0" type="line"/>
      <point x="796.3434343434343" y="616.0" type="line"/>
      <point x="796.3434343434343" y="820.5101010101009" type="line"/>
      <point x="130.95959595959596" y="820.5101010101009" type="line"/>
    </contour>
    <contour>
      <point x="504.90404040404036" y="-136.0" type="line"/>
      <point x="769.5757575757575" y="-136.0" type="line"/>
      <point x="1574.1262626262626" y="1616.0" type="line"/>
      <point x="1309.4545454545455" y="1616.0" type="line"/>
    </contour>
    <contour>
      <point x="1249.3030303030303" y="60.54040404040405" type="line"/>
      <point x="2056.242424242424" y="60.54040404040405" type="line"/>
      <point x="2056.242424242424" y="251.1161616161616" type="line"/>
      <point x="1464.7676767676767" y="251.1161616161616" type="line"/>
      <point x="1487.1919191919192" y="195.7171717171717" type="line"/>
      <point x="1796.5656565656564" y="864.0" type="line"/>
      <point x="1561.4848484848485" y="864.0" type="line"/>
      <point x="1249.3030303030303" y="196.0151515151515" type="line"/>
    </contour>
    <contour>
      <point x="1711.3484848484848" y="-136.0" type="line"/>
      <point x="1933.4090909090908" y="-136.0" type="line"/>
      <point x="1933.4090909090908" y="526.0" type="line"/>
      <point x="1756.3434343434342" y="526.0" type="line"/>
      <point x="1711.3484848484848" y="251.1161616161616" type="line"/>
    </contour>
  </outline>
</glyph>
<glyph name="onehalf" format="2">
  <advance width="2079.030303030303"/>
  <unicode hex="00BD"/>
  <outline>
    <contour>
      <point x="342.17676767676767" y="643.020202020202" type="line"/>
      <point x="596.4242424242424" y="643.020202020202" type="line"/>
      <point x="596.4242424242424" y="1620.0" type="line"/>
      <point x="431.86868686868684" y="1620.0" type="line"/>
      <point x="134.3838383838384" y="1428.7222222222222" type="line"/>
      <point x="134.3838383838384" y="1207.1919191919192" type="line"/>
      <point x="431.86868686868684" y="1398.469696969697" type="line"/>
      <point x="342.17676767676767" y="1477.5656565656566" type="line"/>
    </contour>
    <contour>
      <point x="130.95959595959596" y="616.0" type="line"/>
      <point x="796.3434343434343" y="616.0" type="line"/>
      <point x="796.3434343434343" y="820.5101010101009" type="line"/>
      <point x="130.95959595959596" y="820.5101010101009" type="line"/>
    </contour>
    <contour>
      <point x="504.90404040404036" y="-136.0" type="line"/>
      <point x="769.5757575757575" y="-136.0" type="line"/>
      <point x="1574.1262626262626" y="1616.0" type="line"/>
      <point x="1309.4545454545455" y="1616.0" type="line"/>
    </contour>
    <contour>
      <point x="1305.388888888889" y="-136.0" type="line"/>
      <point x="2001.772727272727" y="-136.0" type="line"/>
      <point x="2001.772727272727" y="68.51010101010098" type="line"/>
      <point x="1589.4191919191917" y="68.51010101010098" type="line"/>
      <point x="1590.2929292929293" y="6.090909090909065" type="line"/>
      <point x="1807.7272727272725" y="260.8939393939394" type="line" smooth="yes"/>
      <point x="1914.090909090909" y="385.40909090909093"/>
      <point x="1956.9848484848485" y="479.5151515151515"/>
      <point x="1957.2828282828282" y="582.1969696969697" type="curve" smooth="yes"/>
      <point x="1957.5808080808079" y="787.469696969697"/>
      <point x="1818.9040404040402" y="877.4040404040404"/>
      <point x="1557.8939393939393" y="877.4040404040404" type="curve" smooth="yes"/>
      <point x="1463.171717171717" y="877.4040404040404"/>
      <point x="1361.8131313131312" y="863.7020202020202"/>
      <point x="1292.6868686868686" y="840.1060606060606" type="curve"/>
      <point x="1292.6868686868686" y="639.9141414141415" type="line"/>
      <point x="1354.6666666666665" y="662.7020202020202"/>
      <point x="1440.7070707070707" y="679.2121212121212"/>
      <point x="1521.1969696969695" y="679.2121212121212" type="curve" smooth="yes"/>
      <point x="1655.2424242424242" y="679.2121212121212"/>
      <point x="1705.949494949495" y="639.4646464646465"/>
      <point x="1705.949494949495" y="557.1363636363636" type="curve" smooth="yes"/>
      <point x="1705.949494949495" y="496.72727272727275"/>
      <point x="1672.0757575757575" y="433.19191919191917"/>
      <point x="1587.8383838383838" y="331.9949494949495" type="curve" smooth="yes"/>
      <point x="1305.388888888889" y="-3.6313131313131493" type="line"/>
    </contour>
  </outline>
</glyph>
<glyph name="threequarters" format="2">
  <advance width="2079.030303030303"/>
  <unicode hex="00BE"/>
  <outline>
    <contour>
      <point x="342.7828282828283" y="602.5959595959596" type="curve" smooth="yes"/>
      <point x="630.6464646464647" y="602.5959595959596"/>
      <point x="770.8989898989898" y="712.3181818181819"/>
      <point x="770.8989898989898" y="895.6363636363636" type="curve" smooth="yes"/>
      <point x="770.8989898989898" y="1032.8080808080808"/>
      <point x="690.6414141414141" y="1115.5757575757575"/>
      <point x="548.9343434343434" y="1137.2777777777778" type="curve"/>
      <point x="548.9343434343434" y="1127.29797979798" type="line"/>
      <point x="665.5555555555555" y="1153.0858585858587"/>
      <point x="737.6010101010102" y="1238.8737373737374"/>
      <point x="737.6010101010102" y="1357.5353535353536" type="curve" smooth="yes"/>
      <point x="737.6010101010102" y="1530.979797979798"/>
      <point x="607.9444444444445" y="1629.4040404040404"/>
      <point x="347.06060606060606" y="1629.4040404040404" type="curve" smooth="yes"/>
      <point x="257.2323232323232" y="1629.4040404040404"/>
      <point x="150.76767676767676" y="1614.5959595959596"/>
      <point x="84.25757575757576" y="1592.70202020202" type="curve"/>
      <point x="84.25757575757576" y="1407.2525252525252" type="line"/>
      <point x="152.64141414141415" y="1432.4444444444446"/>
      <point x="242.78787878787878" y="1446.2525252525252"/>
      <point x="317.3838383838384" y="1446.2525252525252" type="curve" smooth="yes"/>
      <point x="442.2828282828283" y="1446.2525252525252"/>
      <point x="495.2878787878788" y="1406.9292929292928"/>
      <point x="495.2878787878788" y="1334.878787878788" type="curve" smooth="yes"/>
      <point x="495.2878787878788" y="1263.2727272727273"/>
      <point x="443.1515151515151" y="1219.969696969697"/>
      <point x="316.2676767676768" y="1219.969696969697" type="curve" smooth="yes"/>
      <point x="170.6868686868687" y="1219.969696969697" type="line"/>
      <point x="170.6868686868687" y="1033.7121212121212" type="line"/>
      <point x="344.06060606060606" y="1033.7121212121212" type="line" smooth="yes"/>
      <point x="479.6010101010101" y="1033.7121212121212"/>
      <point x="532.0959595959596" y="990.9191919191919"/>
      <point x="532.0959595959596" y="911.9747474747475" type="curve" smooth="yes"/>
      <point x="532.0959595959596" y="829.7525252525252"/>
      <point x="473.1111111111111" y="786.4494949494949"/>
      <point x="330.8484848484849" y="786.4494949494949" type="curve" smooth="yes"/>
      <point x="251.04040404040404" y="786.4494949494949"/>
      <point x="152.7020202020202" y="798.7474747474747"/>
      <point x="68.48989898989899" y="822.1313131313132" type="curve"/>
      <point x="68.48989898989899" y="636.6818181818181" type="line"/>
      <point x="153.72222222222223" y="614.1919191919192"/>
      <point x="247.84848484848484" y="602.5959595959596"/>
    </contour>
    <contour>
      <point x="504.90404040404036" y="-136.0" type="line"/>
      <point x="769.5757575757575" y="-136.0" type="line"/>
      <point x="1574.1262626262626" y="1616.0" type="line"/>
      <point x="1309.4545454545455" y="1616.0" type="line"/>
    </contour>
    <contour>
      <point x="1249.3030303030303" y="60.54040404040405" type="line"/>
      <point x="2056.242424242424" y="60.54040404040405" type="line"/>
      <point x="2056.242424242424" y="251.1161616161616" type="line"/>
      <point x="1464.7676767676767" y="251.1161616161616" type="line"/>
      <point x="1487.1919191919192" y="195.7171717171717" type="line"/>
      <point x="1796.5656565656564" y="864.0" type="line"/>
      <point x="1561.4848484848485" y="864.0" type="line"/>
      <point x="1249.3030303030303" y="196.0151515151515" type="line"/>
    </contour>
    <contour>
      <point x="1711.3484848484848" y="-136.0" type="line"/>
      <point x="1933.4090909090908" y="-136.0" type="line"/>
      <point x="1933.4090909090908" y="526.0" type="line"/>
      <point x="1756.3434343434342" y="526.0" type="line"/>
      <point x="1711.3484848484848" y="251.1161616161616" type="line"/>
    </contour>
  </outline>
</glyph>
<glyph name="questiondown" format="2">
  <advance width="991.2979797979798"/>
  <unicode hex="00BF"/>
  <outline>
    <contour>
      <point x="645.3383838383838" y="631.1717171717172" type="line"/>
      <point x="450.6161616161616" y="631.1717171717172" type="line"/>
      <point x="427.27777777777777" y="416.06060606060606" type="line"/>
      <point x="182.7828282828283" y="340.37373737373736"/>
      <point x="50.661616161616166" y="209.05555555555554"/>
      <point x="50.661616161616166" y="-2.7727272727272805" type="curve" smooth="yes"/>
      <point x="50.661616161616166" y="-255.76767676767676"/>
      <point x="231.74242424242425" y="-400.0"/>
      <point x="591.090909090909" y="-400.0" type="curve" smooth="yes"/>
      <point x="716.7272727272727" y="-400.0"/>
      <point x="863.7222222222222" y="-378.19191919191917"/>
      <point x="959.9343434343434" y="-345.2979797979798" type="curve"/>
      <point x="959.9343434343434" y="-95.47474747474752" type="line"/>
      <point x="859.550505050505" y="-130.9646464646465"/>
      <point x="738.2979797979798" y="-150.7727272727273"/>
      <point x="627.8939393939394" y="-150.7727272727273" type="curve" smooth="yes"/>
      <point x="442.9292929292929" y="-150.7727272727273"/>
      <point x="361.4545454545454" y="-88.89393939393943"/>
      <point x="361.4545454545454" y="23.904040404040387" type="curve" smooth="yes"/>
      <point x="361.4545454545454" y="133.1919191919192"/>
      <point x="435.5" y="208.9848484848485"/>
      <point x="700.1616161616162" y="263.6515151515152" type="curve"/>
    </contour>
    <contour>
      <point x="547.6262626262626" y="1111.060606060606" type="curve" smooth="yes"/>
      <point x="421.87373737373736" y="1111.060606060606"/>
      <point x="341.01010101010104" y="1036.621212121212"/>
      <point x="341.01010101010104" y="926.909090909091" type="curve" smooth="yes"/>
      <point x="341.01010101010104" y="816.6010101010102"/>
      <point x="419.66161616161617" y="742.1616161616162"/>
      <point x="547.6262626262626" y="742.1616161616162" type="curve" smooth="yes"/>
      <point x="675.590909090909" y="742.1616161616162"/>
      <point x="754.2424242424242" y="813.7929292929293"/>
      <point x="754.2424242424242" y="926.909090909091" type="curve" smooth="yes"/>
      <point x="754.2424242424242" y="1039.4292929292928"/>
      <point x="672.7828282828282" y="1111.060606060606"/>
    </contour>
  </outline>
</glyph>
<glyph name="Agrave" format="2">
  <advance width="1457.2929292929293"/>
  <unicode hex="00C0"/>
  <anchor x="728.2424242424242" y="1520.0" name="_top"/>
  <anchor x="728.9444444444443" y="0.0" name="bottom"/>
  <anchor x="1443.4595959595958" y="0.0" name="ogonek"/>
  <anchor x="728.2424242424242" y="1520.0" name="top"/>
  <outline>
    <contour>
      <point x="13.833333333333337" y="0.0" type="line"/>
      <point x="330.4343434343434" y="0.0" type="line"/>
      <point x="743.1565656565656" y="1338.2070707070707" type="line"/>
      <point x="709.3282828282828" y="1338.2070707070707" type="line"/>
      <point x="1123.4545454545455" y="0.0" type="line"/>
      <point x="1443.4595959595958" y="0.0" type="line"/>
      <point x="965.4040404040404" y="1480.0" type="line"/>
      <point x="491.8888888888889" y="1480.0" type="line"/>
    </contour>
    <contour>
      <point x="346.479797979798" y="395.31818181818187" type="line"/>
      <point x="1108.7070707070707" y="395.31818181818187" type="line"/>
      <point x="1039.5656565656566" y="653.6717171717172" type="line"/>
      <point x="416.3232323232323" y="653.6717171717172" type="line"/>
    </contour>
    <contour>
      <point x="584.6212121212121" y="1594.939393939394" type="line"/>
      <point x="871.8636363636363" y="1594.939393939394" type="line"/>
      <point x="691.2474747474747" y="1897.828282828283" type="line"/>
      <point x="356.01010101010104" y="1897.828282828283" type="line"/>
    </contour>
  </outline>
</glyph>
<glyph name="Aacute" format="2">
  <advance width="1457.2929292929293"/>
  <unicode hex="00C1"/>
  <anchor x="728.2424242424242" y="1520.0" name="_top"/>
  <anchor x="728.9444444444443" y="0.0" name="bottom"/>
  <anchor x="1443.4595959595958" y="0.0" name="ogonek"/>
  <anchor x="728.2424242424242" y="1520.0" name="top"/>
  <outline>
    <contour>
      <point x="13.833333333333337" y="0.0" type="line"/>
      <point x="330.4343434343434" y="0.0" type="line"/>
      <point x="743.1565656565656" y="1338.2070707070707" type="line"/>
      <point x="709.3282828282828" y="1338.2070707070707" type="line"/>
      <point x="1123.4545454545455" y="0.0" type="line"/>
      <point x="1443.4595959595958" y="0.0" type="line"/>
      <point x="965.4040404040404" y="1480.0" type="line"/>
      <point x="491.8888888888889" y="1480.0" type="line"/>
    </contour>
    <contour>
      <point x="346.479797979798" y="395.31818181818187" type="line"/>
      <point x="1108.7070707070707" y="395.31818181818187" type="line"/>
      <point x="1039.5656565656566" y="653.6717171717172" type="line"/>
      <point x="416.3232323232323" y="653.6717171717172" type="line"/>
    </contour>
    <contour>
      <point x="583.2171717171717" y="1594.939393939394" type="line"/>
      <point x="870.4595959595958" y="1594.939393939394" type="line"/>
      <point x="1099.070707070707" y="1897.828282828283" type="line"/>
      <point x="763.8333333333334" y="1897.828282828283" type="line"/>
    </contour>
  </outline>
</glyph>
<glyph name="Acircumflex" format="2">
  <advance width="1457.2929292929293"/>
  <unicode hex="00C2"/>
  <anchor x="728.2424242424242" y="1520.0" name="_top"/>
  <anchor x="728.9444444444443" y="0.0" name="bottom"/>
  <anchor x="1443.4595959595958" y="0.0" name="ogonek"/>
  <anchor x="728.2424242424242" y="1520.0" name="top"/>
  <outline>
    <contour>
      <point x="13.833333333333337" y="0.0" type="line"/>
      <point x="330.4343434343434" y="0.0" type="line"/>
      <point x="743.1565656565656" y="1338.2070707070707" type="line"/>
      <point x="709.3282828282828" y="1338.2070707070707" type="line"/>
      <point x="1123.4545454545455" y="0.0" type="line"/>
      <point x="1443.4595959595958" y="0.0" type="line"/>
      <point x="965.4040404040404" y="1480.0" type="line"/>
      <point x="491.8888888888889" y="1480.0" type="line"/>
    </contour>
    <contour>
      <point x="346.479797979798" y="395.31818181818187" type="line"/>
      <point x="1108.7070707070707" y="395.31818181818187" type="line"/>
      <point x="1039.5656565656566" y="653.6717171717172" type="line"/>
      <point x="416.3232323232323" y="653.6717171717172" type="line"/>
    </contour>
    <contour>
      <point x="337.2171717171717" y="1594.939393939394" type="line"/>
      <point x="578.9797979797979" y="1594.939393939394" type="line"/>
      <point x="753.1767676767677" y="1811.2626262626263" type="line"/>
      <point x="703.3080808080808" y="1811.2626262626263" type="line"/>
      <point x="877.5050505050505" y="1594.939393939394" type="line"/>
      <point x="1119.2676767676767" y="1594.939393939394" type="line"/>
      <point x="863.8232323232323" y="1897.828282828283" type="line"/>
      <point x="592.6616161616162" y="1897.828282828283" type="line"/>
    </contour>
  </outline>
</glyph>
<glyph name="Atilde" format="2">
  <advance width="1457.2929292929293"/>
  <unicode hex="00C3"/>
  <anchor x="728.2424242424242" y="1520.0" name="_top"/>
  <anchor x="728.9444444444443" y="0.0" name="bottom"/>
  <anchor x="1443.4595959595958" y="0.0" name="ogonek"/>
  <anchor x="728.2424242424242" y="1520.0" name="top"/>
  <outline>
    <contour>
      <point x="13.833333333333337" y="0.0" type="line"/>
      <point x="330.4343434343434" y="0.0" type="line"/>
      <point x="743.1565656565656" y="1338.2070707070707" type="line"/>
      <point x="709.3282828282828" y="1338.2070707070707" type="line"/>
      <point x="1123.4545454545455" y="0.0" type="line"/>
      <point x="1443.4595959595958" y="0.0" type="line"/>
      <point x="965.4040404040404" y="1480.0" type="line"/>
      <point x="491.8888888888889" y="1480.0" type="line"/>
    </contour>
    <contour>
      <point x="346.479797979798" y="395.31818181818187" type="line"/>
      <point x="1108.7070707070707" y="395.31818181818187" type="line"/>
      <point x="1039.5656565656566" y="653.6717171717172" type="line"/>
      <point x="416.3232323232323" y="653.6717171717172" type="line"/>
    </contour>
    <contour>
      <point x="900.3232323232323" y="1619.0757575757575" type="curve" smooth="yes"/>
      <point x="991.0858585858585" y="1619.0757575757575"/>
      <point x="1052.6161616161617" y="1641.0757575757575"/>
      <point x="1105.1666666666665" y="1689.9040404040404" type="curve"/>
      <point x="1105.1666666666665" y="1873.439393939394" type="line"/>
      <point x="1043.9141414141413" y="1826.141414141414"/>
      <point x="988.0858585858585" y="1803.141414141414"/>
      <point x="905.9393939393939" y="1803.141414141414" type="curve" smooth="yes"/>
      <point x="787.9646464646464" y="1803.141414141414"/>
      <point x="694.1363636363636" y="1880.5454545454545"/>
      <point x="556.1616161616162" y="1880.5454545454545" type="curve" smooth="yes"/>
      <point x="465.3989898989899" y="1880.5454545454545"/>
      <point x="403.86868686868684" y="1857.141414141414"/>
      <point x="351.3181818181818" y="1808.3131313131314" type="curve"/>
      <point x="351.3181818181818" y="1624.7777777777778" type="line"/>
      <point x="412.57070707070704" y="1672.0757575757575"/>
      <point x="468.3989898989899" y="1695.0757575757575"/>
      <point x="550.5454545454545" y="1695.0757575757575" type="curve" smooth="yes"/>
      <point x="668.520202020202" y="1695.0757575757575"/>
      <point x="762.3484848484849" y="1619.0757575757575"/>
    </contour>
  </outline>
</glyph>
<glyph name="Adieresis" format="2">
  <advance width="1457.2929292929293"/>
  <unicode hex="00C4"/>
  <anchor x="728.2424242424242" y="1520.0" name="_top"/>
  <anchor x="728.9444444444443" y="0.0" name="bottom"/>
  <anchor x="1443.4595959595958" y="0.0" name="ogonek"/>
  <anchor x="728.2424242424242" y="1520.0" name="top"/>
  <outline>
    <contour>
      <point x="13.833333333333337" y="0.0" type="line"/>
      <point x="330.4343434343434" y="0.0" type="line"/>
      <point x="743.1565656565656" y="1338.2070707070707" type="line"/>
      <point x="709.3282828282828" y="1338.2070707070707" type="line"/>
      <point x="1123.4545454545455" y="0.0" type="line"/>
      <point x="1443.4595959595958" y="0.0" type="line"/>
      <point x="965.4040404040404" y="1480.0" type="line"/>
      <point x="491.8888888888889" y="1480.0" type="line"/>
    </contour>
    <contour>
      <point x="346.479797979798" y="395.31818181818187" type="line"/>
      <point x="1108.7070707070707" y="395.31818181818187" type="line"/>
      <point x="1039.5656565656566" y="653.6717171717172" type="line"/>
      <point x="416.3232323232323" y="653.6717171717172" type="line"/>
    </contour>
    <contour>
      <point x="985.4494949494949" y="1605.7575757575758" type="curve" smooth="yes"/>
      <point x="1098.671717171717" y="1605.7575757575758"/>
      <point x="1156.9646464646464" y="1659.2424242424242"/>
      <point x="1156.9646464646464" y="1750.5959595959596" type="curve" smooth="yes"/>
      <point x="1156.9646464646464" y="1841.949494949495"/>
      <point x="1098.671717171717" y="1896.030303030303"/>
      <point x="985.4494949494949" y="1896.030303030303" type="curve" smooth="yes"/>
      <point x="872.2272727272727" y="1896.030303030303"/>
      <point x="813.9343434343434" y="1841.949494949495"/>
      <point x="813.9343434343434" y="1750.5959595959596" type="curve" smooth="yes"/>
      <point x="813.9343434343434" y="1659.2424242424242"/>
      <point x="872.2272727272727" y="1605.7575757575758"/>
    </contour>
    <contour>
      <point x="471.0353535353535" y="1605.7575757575758" type="curve" smooth="yes"/>
      <point x="584.2575757575758" y="1605.7575757575758"/>
      <point x="642.5505050505051" y="1659.2424242424242"/>
      <point x="642.5505050505051" y="1750.5959595959596" type="curve" smooth="yes"/>
      <point x="642.5505050505051" y="1841.949494949495"/>
      <point x="584.2575757575758" y="1896.030303030303"/>
      <point x="471.0353535353535" y="1896.030303030303" type="curve" smooth="yes"/>
      <point x="357.8131313131313" y="1896.030303030303"/>
      <point x="299.520202020202" y="1841.949494949495"/>
      <point x="299.520202020202" y="1750.5959595959596" type="curve" smooth="yes"/>
      <point x="299.520202020202" y="1659.2424242424242"/>
      <point x="357.8131313131313" y="1605.7575757575758"/>
    </contour>
  </outline>
</glyph>
<glyph name="Aring" format="2">
  <advance width="1457.2929292929293"/>
  <unicode hex="00C5"/>
  <anchor x="729.1363636363636" y="1466.3636363636363" name="_top"/>
  <anchor x="728.9444444444443" y="0.0" name="bottom"/>
  <anchor x="1443.4595959595958" y="0.0" name="ogonek"/>
  <anchor x="728.2424242424242" y="1520.0" name="top"/>
  <outline>
    <contour>
      <point x="13.833333333333337" y="0.0" type="line"/>
      <point x="330.4343434343434" y="0.0" type="line"/>
      <point x="743.1565656565656" y="1338.2070707070707" type="line"/>
      <point x="709.3282828282828" y="1338.2070707070707" type="line"/>
      <point x="1123.4545454545455" y="0.0" type="line"/>
      <point x="1443.4595959595958" y="0.0" type="line"/>
      <point x="965.4040404040404" y="1480.0" type="line"/>
      <point x="491.8888888888889" y="1480.0" type="line"/>
    </contour>
    <contour>
      <point x="346.479797979798" y="395.31818181818187" type="line"/>
      <point x="1108.7070707070707" y="395.31818181818187" type="line"/>
      <point x="1039.5656565656566" y="653.6717171717172" type="line"/>
      <point x="416.3232323232323" y="653.6717171717172" type="line"/>
    </contour>
    <contour>
      <point x="729.1363636363636" y="1528.580808080808" type="curve" smooth="yes"/>
      <point x="853.3888888888889" y="1528.580808080808"/>
      <point x="944.0252525252524" y="1616.409090909091"/>
      <point x="944.0252525252524" y="1737.8535353535353" type="curve" smooth="yes"/>
      <point x="944.0252525252524" y="1859.2979797979797"/>
      <point x="853.3888888888889" y="1947.1262626262626"/>
      <point x="729.1363636363636" y="1947.1262626262626" type="curve" smooth="yes"/>
      <point x="604.8838383838383" y="1947.1262626262626"/>
      <point x="514.2474747474747" y="1859.2979797979797"/>
      <point x="514.2474747474747" y="1737.8535353535353" type="curve" smooth="yes"/>
      <point x="514.2474747474747" y="1616.409090909091"/>
      <point x="604.8838383838383" y="1528.580808080808"/>
    </contour>
    <contour>
      <point x="729.1363636363636" y="1640.9545454545455" type="curve" smooth="yes"/>
      <point x="674.1969696969696" y="1640.9545454545455"/>
      <point x="635.6414141414141" y="1678.3181818181818"/>
      <point x="635.6414141414141" y="1737.8535353535353" type="curve" smooth="yes"/>
      <point x="635.6414141414141" y="1797.388888888889"/>
      <point x="674.1969696969696" y="1834.7525252525252"/>
      <point x="729.1363636363636" y="1834.7525252525252" type="curve" smooth="yes"/>
      <point x="784.0757575757575" y="1834.7525252525252"/>
      <point x="822.6313131313132" y="1797.388888888889"/>
      <point x="822.6313131313132" y="1737.8535353535353" type="curve" smooth="yes"/>
      <point x="822.6313131313132" y="1678.3181818181818"/>
      <point x="784.0757575757575" y="1640.9545454545455"/>
    </contour>
  </outline>
</glyph>
<glyph name="AE" format="2">
  <advance width="2005.621212121212"/>
  <unicode hex="00C6"/>
  <anchor x="1052.090909090909" y="0.0" name="bottom"/>
  <anchor x="1024.9747474747473" y="1520.0" name="top"/>
  <outline>
    <contour>
      <point x="13.833333333333337" y="0.0" type="line"/>
      <point x="332.540404040404" y="0.0" type="line"/>
      <point x="716.0757575757575" y="1220.2424242424242" type="line"/>
      <point x="1017.060606060606" y="1220.2424242424242" type="line"/>
      <point x="1017.6565656565656" y="1480.0" type="line"/>
      <point x="495.1666666666667" y="1480.0" type="line"/>
    </contour>
    <contour>
      <point x="348.2676767676768" y="394.61616161616166" type="line"/>
      <point x="1029.2171717171716" y="394.61616161616166" type="line"/>
      <point x="1029.2171717171716" y="654.3737373737374" type="line"/>
      <point x="418.1111111111111" y="654.3737373737374" type="line"/>
    </contour>
    <contour>
      <point x="977.6717171717171" y="0.0" type="line"/>
      <point x="1933.919191919192" y="0.0" type="line"/>
      <point x="1933.919191919192" y="259.75757575757575" type="line"/>
      <point x="1277.8484848484848" y="259.75757575757575" type="line"/>
      <point x="1199.6767676767677" y="1220.2424242424242" type="line"/>
      <point x="1923.919191919192" y="1220.2424242424242" type="line"/>
      <point x="1923.919191919192" y="1480.0" type="line"/>
      <point x="866.8232323232323" y="1480.0" type="line"/>
    </contour>
    <contour>
      <point x="1088.7828282828282" y="626.909090909091" type="line"/>
      <point x="1821.8989898989898" y="626.909090909091" type="line"/>
      <point x="1821.8989898989898" y="886.6666666666666" type="line"/>
      <point x="1088.7828282828282" y="886.6666666666666" type="line"/>
    </contour>
  </outline>
</glyph>
<glyph name="Egrave" format="2">
  <advance width="1254.0"/>
  <unicode hex="00C8"/>
  <anchor x="674.7171717171717" y="1520.0" name="_top"/>
  <anchor x="675.3131313131313" y="0.0" name="bottom"/>
  <anchor x="1095.2777777777778" y="0.0" name="ogonek"/>
  <anchor x="674.7171717171717" y="1520.0" name="top"/>
  <anchor x="38.89393939393939" y="1480.0" name="topleft"/>
  <outline>
    <contour>
      <point x="133.13636363636365" y="0.0" type="line"/>
      <point x="1182.2979797979797" y="0.0" type="line"/>
      <point x="1182.2979797979797" y="259.75757575757575" type="line"/>
      <point x="453.8636363636363" y="259.75757575757575" type="line"/>
      <point x="453.8636363636363" y="1220.2424242424242" type="line"/>
      <point x="1172.2979797979797" y="1220.2424242424242" type="line"/>
      <point x="1172.2979797979797" y="1480.0" type="line"/>
      <point x="133.13636363636365" y="1480.0" type="line"/>
    </contour>
    <contour>
      <point x="325.6464646464646" y="626.909090909091" type="line"/>
      <point x="1070.2777777777778" y="626.909090909091" type="line"/>
      <point x="1070.2777777777778" y="886.6666666666666" type="line"/>
      <point x="325.6464646464646" y="886.6666666666666" type="line"/>
    </contour>
    <contour>
      <point x="531.0959595959596" y="1594.939393939394" type="line"/>
      <point x="818.3383838383838" y="1594.939393939394" type="line"/>
      <point x="637.7222222222222" y="1897.828282828283" type="line"/>
      <point x="302.4848484848485" y="1897.828282828283" type="line"/>
    </contour>
  </outline>
</glyph>
<glyph name="Eacute" format="2">
  <advance width="1254.0"/>
  <unicode hex="00C9"/>
  <anchor x="674.7171717171717" y="1520.0" name="_top"/>
  <anchor x="675.3131313131313" y="0.0" name="bottom"/>
  <anchor x="1095.2777777777778" y="0.0" name="ogonek"/>
  <anchor x="674.7171717171717" y="1520.0" name="top"/>
  <anchor x="38.89393939393939" y="1480.0" name="topleft"/>
  <outline>
    <contour>
      <point x="133.13636363636365" y="0.0" type="line"/>
      <point x="1182.2979797979797" y="0.0" type="line"/>
      <point x="1182.2979797979797" y="259.75757575757575" type="line"/>
      <point x="453.8636363636363" y="259.75757575757575" type="line"/>
      <point x="453.8636363636363" y="1220.2424242424242" type="line"/>
      <point x="1172.2979797979797" y="1220.2424242424242" type="line"/>
      <point x="1172.2979797979797" y="1480.0" type="line"/>
      <point x="133.13636363636365" y="1480.0" type="line"/>
    </contour>
    <contour>
      <point x="325.6464646464646" y="626.909090909091" type="line"/>
      <point x="1070.2777777777778" y="626.909090909091" type="line"/>
      <point x="1070.2777777777778" y="886.6666666666666" type="line"/>
      <point x="325.6464646464646" y="886.6666666666666" type="line"/>
    </contour>
    <contour>
      <point x="529.6919191919192" y="1594.939393939394" type="line"/>
      <point x="816.9343434343434" y="1594.939393939394" type="line"/>
      <point x="1045.5454545454545" y="1897.828282828283" type="line"/>
      <point x="710.3080808080808" y="1897.828282828283" type="line"/>
    </contour>
  </outline>
</glyph>
<glyph name="Edieresis" format="2">
  <advance width="1254.0"/>
  <unicode hex="00CB"/>
  <anchor x="674.7171717171717" y="1520.0" name="_top"/>
  <anchor x="675.3131313131313" y="0.0" name="bottom"/>
  <anchor x="1095.2777777777778" y="0.0" name="ogonek"/>
  <anchor x="674.7171717171717" y="1520.0" name="top"/>
  <anchor x="38.89393939393939" y="1480.0" name="topleft"/>
  <outline>
    <contour>
      <point x="133.13636363636365" y="0.0" type="line"/>
      <point x="1182.2979797979797" y="0.0" type="line"/>
      <point x="1182.2979797979797" y="259.75757575757575" type="line"/>
      <point x="453.8636363636363" y="259.75757575757575" type="line"/>
      <point x="453.8636363636363" y="1220.2424242424242" type="line"/>
      <point x="1172.2979797979797" y="1220.2424242424242" type="line"/>
      <point x="1172.2979797979797" y="1480.0" type="line"/>
      <point x="133.13636363636365" y="1480.0" type="line"/>
    </contour>
    <contour>
      <point x="325.6464646464646" y="626.909090909091" type="line"/>
      <point x="1070.2777777777778" y="626.909090909091" type="line"/>
      <point x="1070.2777777777778" y="886.6666666666666" type="line"/>
      <point x="325.6464646464646" y="886.6666666666666" type="line"/>
    </contour>
    <contour>
      <point x="931.9242424242424" y="1605.7575757575758" type="curve" smooth="yes"/>
      <point x="1045.1464646464647" y="1605.7575757575758"/>
      <point x="1103.439393939394" y="1659.2424242424242"/>
      <point x="1103.439393939394" y="1750.5959595959596" type="curve" smooth="yes"/>
      <point x="1103.439393939394" y="1841.949494949495"/>
      <point x="1045.1464646464647" y="1896.030303030303"/>
      <point x="931.9242424242424" y="1896.030303030303" type="curve" smooth="yes"/>
      <point x="818.7020202020202" y="1896.030303030303"/>
      <point x="760.4090909090909" y="1841.949494949495"/>
      <point x="760.4090909090909" y="1750.5959595959596" type="curve" smooth="yes"/>
      <point x="760.4090909090909" y="1659.2424242424242"/>
      <point x="818.7020202020202" y="1605.7575757575758"/>
    </contour>
    <contour>
      <point x="417.51010101010104" y="1605.7575757575758" type="curve" smooth="yes"/>
      <point x="530.7323232323232" y="1605.7575757575758"/>
      <point x="589.0252525252525" y="1659.2424242424242"/>
      <point x="589.0252525252525" y="1750.5959595959596" type="curve" smooth="yes"/>
      <point x="589.0252525252525" y="1841.949494949495"/>
      <point x="530.7323232323232" y="1896.030303030303"/>
      <point x="417.51010101010104" y="1896.030303030303" type="curve" smooth="yes"/>
      <point x="304.2878787878788" y="1896.030303030303"/>
      <point x="245.99494949494954" y="1841.949494949495"/>
      <point x="245.99494949494954" y="1750.5959595959596" type="curve" smooth="yes"/>
      <point x="245.99494949494954" y="1659.2424242424242"/>
      <point x="304.2878787878788" y="1605.7575757575758"/>
    </contour>
  </outline>
</glyph>
<glyph name="Igrave" format="2">
  <advance width="591.2121212121211"/>
  <unicode hex="00CC"/>
  <anchor x="295.60606060606057" y="1520.0" name="_top"/>
  <anchor x="294.9040404040404" y="0.0" name="bottom"/>
  <anchor x="458.0757575757575" y="0.0" name="ogonek"/>
  <anchor x="295.60606060606057" y="1520.0" name="top"/>
  <outline>
    <contour>
      <point x="133.13636363636365" y="0.0" type="line"/>
      <point x="458.0757575757575" y="0.0" type="line"/>
      <point x="458.0757575757575" y="1480.0" type="line"/>
      <point x="133.13636363636365" y="1480.0" type="line"/>
    </contour>
    <contour>
      <point x="151.9848484848485" y="1594.939393939394" type="line"/>
      <point x="439.2272727272727" y="1594.939393939394" type="line"/>
      <point x="258.6111111111111" y="1897.828282828283" type="line"/>
      <point x="-76.6262626262626" y="1897.828282828283" type="line"/>
    </contour>
  </outline>
</glyph>
<glyph name="Iacute" format="2">
  <advance width="591.2121212121211"/>
  <unicode hex="00CD"/>
  <anchor x="295.60606060606057" y="1520.0" name="_top"/>
  <anchor x="294.9040404040404" y="0.0" name="bottom"/>
  <anchor x="458.0757575757575" y="0.0" name="ogonek"/>
  <anchor x="295.60606060606057" y="1520.0" name="top"/>
  <outline>
    <contour>
      <point x="133.13636363636365" y="0.0" type="line"/>
      <point x="458.0757575757575" y="0.0" type="line"/>
      <point x="458.0757575757575" y="1480.0" type="line"/>
      <point x="133.13636363636365" y="1480.0" type="line"/>
    </contour>
    <contour>
      <point x="150.58080808080808" y="1594.939393939394" type="line"/>
      <point x="437.8232323232323" y="1594.939393939394" type="line"/>
      <point x="666.4343434343434" y="1897.828282828283" type="line"/>
      <point x="331.1969696969697" y="1897.828282828283" type="line"/>
    </contour>
  </outline>
</glyph>
<glyph name="Icircumflex" format="2">
  <advance width="591.2121212121211"/>
  <unicode hex="00CE"/>
  <anchor x="295.60606060606057" y="1520.0" name="_top"/>
  <anchor x="294.9040404040404" y="0.0" name="bottom"/>
  <anchor x="458.0757575757575" y="0.0" name="ogonek"/>
  <anchor x="295.60606060606057" y="1520.0" name="top"/>
  <outline>
    <contour>
      <point x="133.13636363636365" y="0.0" type="line"/>
      <point x="458.0757575757575" y="0.0" type="line"/>
      <point x="458.0757575757575" y="1480.0" type="line"/>
      <point x="133.13636363636365" y="1480.0" type="line"/>
    </contour>
    <contour>
      <point x="-95.41919191919192" y="1594.939393939394" type="line"/>
      <point x="146.34343434343432" y="1594.939393939394" type="line"/>
      <point x="320.54040404040404" y="1811.2626262626263" type="line"/>
      <point x="270.67171717171715" y="1811.2626262626263" type="line"/>
      <point x="444.86868686868684" y="1594.939393939394" type="line"/>
      <point x="686.631313131313" y="1594.939393939394" type="line"/>
      <point x="431.1868686868687" y="1897.828282828283" type="line"/>
      <point x="160.02525252525254" y="1897.828282828283" type="line"/>
    </contour>
  </outline>
</glyph>
<glyph name="Idieresis" format="2">
  <advance width="591.2121212121211"/>
  <unicode hex="00CF"/>
  <anchor x="295.60606060606057" y="1520.0" name="_top"/>
  <anchor x="294.9040404040404" y="0.0" name="bottom"/>
  <anchor x="458.0757575757575" y="0.0" name="ogonek"/>
  <anchor x="295.60606060606057" y="1520.0" name="top"/>
  <outline>
    <contour>
      <point x="133.13636363636365" y="0.0" type="line"/>
      <point x="458.0757575757575" y="0.0" type="line"/>
      <point x="458.0757575757575" y="1480.0" type="line"/>
      <point x="133.13636363636365" y="1480.0" type="line"/>
    </contour>
    <contour>
      <point x="552.8131313131313" y="1605.7575757575758" type="curve" smooth="yes"/>
      <point x="666.0353535353535" y="1605.7575757575758"/>
      <point x="724.3282828282827" y="1659.2424242424242"/>
      <point x="724.3282828282827" y="1750.5959595959596" type="curve" smooth="yes"/>
      <point x="724.3282828282827" y="1841.949494949495"/>
      <point x="666.0353535353535" y="1896.030303030303"/>
      <point x="552.8131313131313" y="1896.030303030303" type="curve" smooth="yes"/>
      <point x="439.59090909090907" y="1896.030303030303"/>
      <point x="381.2979797979798" y="1841.949494949495"/>
      <point x="381.2979797979798" y="1750.5959595959596" type="curve" smooth="yes"/>
      <point x="381.2979797979798" y="1659.2424242424242"/>
      <point x="439.59090909090907" y="1605.7575757575758"/>
    </contour>
    <contour>
      <point x="38.39898989898989" y="1605.7575757575758" type="curve" smooth="yes"/>
      <point x="151.6212121212121" y="1605.7575757575758"/>
      <point x="209.9141414141414" y="1659.2424242424242"/>
      <point x="209.9141414141414" y="1750.5959595959596" type="curve" smooth="yes"/>
      <point x="209.9141414141414" y="1841.949494949495"/>
      <point x="151.6212121212121" y="1896.030303030303"/>
      <point x="38.39898989898989" y="1896.030303030303" type="curve" smooth="yes"/>
      <point x="-74.82323232323232" y="1896.030303030303"/>
      <point x="-133.1161616161616" y="1841.949494949495"/>
      <point x="-133.1161616161616" y="1750.5959595959596" type="curve" smooth="yes"/>
      <point x="-133.1161616161616" y="1659.2424242424242"/>
      <point x="-74.82323232323232" y="1605.7575757575758"/>
    </contour>
  </outline>
</glyph>
<glyph name="Ntilde" format="2">
  <advance width="1542.8333333333333"/>
  <unicode hex="00D1"/>
  <anchor x="771.5656565656566" y="1520.0" name="_top"/>
  <anchor x="771.5656565656566" y="0.0" name="bottom"/>
  <anchor x="771.5656565656566" y="1520.0" name="top"/>
  <outline>
    <contour>
      <point x="133.13636363636365" y="0.0" type="line"/>
      <point x="438.5252525252525" y="0.0" type="line"/>
      <point x="438.5252525252525" y="1077.4141414141416" type="line"/>
      <point x="382.9545454545454" y="1077.4141414141416" type="line"/>
      <point x="1083.3737373737374" y="0.0" type="line"/>
      <point x="1409.6969696969695" y="0.0" type="line"/>
      <point x="1409.6969696969695" y="1480.0" type="line"/>
      <point x="1104.3080808080808" y="1480.0" type="line"/>
      <point x="1104.3080808080808" y="402.5858585858585" type="line"/>
      <point x="1159.878787878788" y="402.5858585858585" type="line"/>
      <point x="459.45959595959596" y="1480.0" type="line"/>
      <point x="133.13636363636365" y="1480.0" type="line"/>
    </contour>
    <contour>
      <point x="943.6464646464647" y="1619.0757575757575" type="curve" smooth="yes"/>
      <point x="1034.409090909091" y="1619.0757575757575"/>
      <point x="1095.939393939394" y="1641.0757575757575"/>
      <point x="1148.4898989898988" y="1689.9040404040404" type="curve"/>
      <point x="1148.4898989898988" y="1873.439393939394" type="line"/>
      <point x="1087.2373737373737" y="1826.141414141414"/>
      <point x="1031.409090909091" y="1803.141414141414"/>
      <point x="949.2626262626262" y="1803.141414141414" type="curve" smooth="yes"/>
      <point x="831.2878787878788" y="1803.141414141414"/>
      <point x="737.459595959596" y="1880.5454545454545"/>
      <point x="599.4848484848485" y="1880.5454545454545" type="curve" smooth="yes"/>
      <point x="508.72222222222223" y="1880.5454545454545"/>
      <point x="447.19191919191917" y="1857.141414141414"/>
      <point x="394.64141414141415" y="1808.3131313131314" type="curve"/>
      <point x="394.64141414141415" y="1624.7777777777778" type="line"/>
      <point x="455.8939393939394" y="1672.0757575757575"/>
      <point x="511.72222222222223" y="1695.0757575757575"/>
      <point x="593.8686868686868" y="1695.0757575757575" type="curve" smooth="yes"/>
      <point x="711.8434343434343" y="1695.0757575757575"/>
      <point x="805.6717171717172" y="1619.0757575757575"/>
    </contour>
  </outline>
</glyph>
<glyph name="Otilde" format="2">
  <advance width="1561.7575757575758"/>
  <unicode hex="00D5"/>
  <anchor x="780.8787878787879" y="1520.0" name="_top"/>
  <anchor x="780.8787878787879" y="0.0" name="bottom"/>
  <anchor x="780.8787878787879" y="740.0" name="center"/>
  <anchor x="951.4090909090909" y="0.0" name="ogonek"/>
  <anchor x="780.8787878787879" y="1520.0" name="top"/>
  <anchor x="48.91414141414141" y="1480.0" name="topleft"/>
  <anchor x="973.5757575757575" y="1480.0" name="topright"/>
  <outline>
    <contour>
      <point x="780.8787878787879" y="-19.404040404040405" type="curve" smooth="yes"/>
      <point x="1201.8232323232323" y="-19.404040404040405"/>
      <point x="1478.1565656565656" y="225.88888888888889"/>
      <point x="1478.1565656565656" y="740.0" type="curve" smooth="yes"/>
      <point x="1478.1565656565656" y="1254.111111111111"/>
      <point x="1203.419191919192" y="1499.4040404040404"/>
      <point x="780.8787878787879" y="1499.4040404040404" type="curve" smooth="yes"/>
      <point x="359.2323232323232" y="1499.4040404040404"/>
      <point x="83.6010101010101" y="1255.5151515151515"/>
      <point x="83.6010101010101" y="740.0" type="curve" smooth="yes"/>
      <point x="83.6010101010101" y="224.4848484848485"/>
      <point x="359.04040404040404" y="-19.404040404040405"/>
    </contour>
    <contour>
      <point x="780.8787878787879" y="243.45959595959593" type="curve" smooth="yes"/>
      <point x="552.8686868686868" y="243.45959595959593"/>
      <point x="416.7525252525252" y="380.550505050505"/>
      <point x="416.7525252525252" y="746.8080808080808" type="curve" smooth="yes"/>
      <point x="416.7525252525252" y="1099.449494949495"/>
      <point x="554.9747474747475" y="1236.5404040404042"/>
      <point x="780.8787878787879" y="1236.5404040404042" type="curve" smooth="yes"/>
      <point x="1006.7828282828283" y="1236.5404040404042"/>
      <point x="1145.0050505050506" y="1097.3434343434344"/>
      <point x="1145.0050505050506" y="733.1919191919192" type="curve" smooth="yes"/>
      <point x="1145.0050505050506" y="382.6565656565656"/>
      <point x="1008.8888888888889" y="243.45959595959593"/>
    </contour>
    <contour>
      <point x="952.959595959596" y="1619.0757575757575" type="curve" smooth="yes"/>
      <point x="1043.7222222222222" y="1619.0757575757575"/>
      <point x="1105.2525252525252" y="1641.0757575757575"/>
      <point x="1157.8030303030303" y="1689.9040404040404" type="curve"/>
      <point x="1157.8030303030303" y="1873.439393939394" type="line"/>
      <point x="1096.5505050505049" y="1826.141414141414"/>
      <point x="1040.7222222222222" y="1803.141414141414"/>
      <point x="958.5757575757575" y="1803.141414141414" type="curve" smooth="yes"/>
      <point x="840.60101010101" y="1803.141414141414"/>
      <point x="746.7727272727273" y="1880.5454545454545"/>
      <point x="608.7979797979798" y="1880.5454545454545" type="curve" smooth="yes"/>
      <point x="518.0353535353536" y="1880.5454545454545"/>
      <point x="456.50505050505046" y="1857.141414141414"/>
      <point x="403.95454545454544" y="1808.3131313131314" type="curve"/>
      <point x="403.95454545454544" y="1624.7777777777778" type="line"/>
      <point x="465.20707070707067" y="1672.0757575757575"/>
      <point x="521.0353535353536" y="1695.0757575757575"/>
      <point x="603.1818181818182" y="1695.0757575757575" type="curve" smooth="yes"/>
      <point x="721.1565656565656" y="1695.0757575757575"/>
      <point x="814.9848484848485" y="1619.0757575757575"/>
    </contour>
  </outline>
</glyph>
<glyph name="multiply" format="2">
  <advance width="1040.5858585858587"/>
  <unicode hex="00D7"/>
  <outline>
    <contour>
      <point x="258.6262626262626" y="326.5656565656566" type="line"/>
      <point x="520.2929292929293" y="588.2323232323233" type="line"/>
      <point x="781.959595959596" y="326.5656565656566" type="line"/>
      <point x="953.7272727272727" y="498.3333333333333" type="line"/>
      <point x="692.060606060606" y="760.0" type="line"/>
      <point x="953.7272727272727" y="1021.6666666666666" type="line"/>
      <point x="781.959595959596" y="1193.4343434343434" type="line"/>
      <point x="520.2929292929293" y="931.7676767676767" type="line"/>
      <point x="258.6262626262626" y="1193.4343434343434" type="line"/>
      <point x="86.85858585858587" y="1021.6666666666666" type="line"/>
      <point x="348.52525252525254" y="760.0" type="line"/>
      <point x="86.85858585858587" y="498.3333333333333" type="line"/>
    </contour>
  </outline>
</glyph>
<glyph name="Ugrave" format="2">
  <advance width="1494.8535353535353"/>
  <unicode hex="00D9"/>
  <anchor x="750.8838383838383" y="1520.0" name="_top"/>
  <anchor x="750.8838383838383" y="0.0" name="bottom"/>
  <anchor x="970.1262626262626" y="0.5959595959595962" name="ogonek"/>
  <anchor x="750.8838383838383" y="1520.0" name="top"/>
  <anchor x="1073.4545454545455" y="1480.0" name="topright"/>
  <outline>
    <contour>
      <point x="750.8838383838383" y="-19.404040404040405" type="curve" smooth="yes"/>
      <point x="1177.9141414141413" y="-19.404040404040405"/>
      <point x="1368.3131313131312" y="186.5050505050505"/>
      <point x="1368.3131313131312" y="613.2424242424242" type="curve" smooth="yes"/>
      <point x="1368.3131313131312" y="1480.0" type="line"/>
      <point x="1049.5858585858587" y="1480.0" type="line"/>
      <point x="1049.5858585858587" y="581.4797979797979" type="line" smooth="yes"/>
      <point x="1049.5858585858587" y="345.63636363636357"/>
      <point x="951.2828282828283" y="247.37373737373733"/>
      <point x="750.8838383838383" y="247.37373737373733" type="curve" smooth="yes"/>
      <point x="550.4848484848485" y="247.37373737373733"/>
      <point x="451.4797979797979" y="345.63636363636357"/>
      <point x="451.4797979797979" y="581.4797979797979" type="curve" smooth="yes"/>
      <point x="451.4797979797979" y="1480.0" type="line"/>
      <point x="126.54040404040404" y="1480.0" type="line"/>
      <point x="126.54040404040404" y="613.2424242424242" type="line" smooth="yes"/>
      <point x="126.54040404040404" y="186.5050505050505"/>
      <point x="318.93939393939394" y="-19.404040404040405"/>
    </contour>
    <contour>
      <point x="607.2626262626263" y="1594.939393939394" type="line"/>
      <point x="894.5050505050505" y="1594.939393939394" type="line"/>
      <point x="713.8888888888889" y="1897.828282828283" type="line"/>
      <point x="378.6515151515152" y="1897.828282828283" type="line"/>
    </contour>
  </outline>
</glyph>
<glyph name="Udieresis" format="2">
  <advance width="1494.8535353535353"/>
  <unicode hex="00DC"/>
  <anchor x="750.8838383838383" y="1520.0" name="_top"/>
  <anchor x="750.8838383838383" y="0.0" name="bottom"/>
  <anchor x="970.1262626262626" y="0.5959595959595962" name="ogonek"/>
  <anchor x="750.8838383838383" y="1520.0" name="top"/>
  <anchor x="1073.4545454545455" y="1480.0" name="topright"/>
  <outline>
    <contour>
      <point x="750.8838383838383" y="-19.404040404040405" type="curve" smooth="yes"/>
      <point x="1177.9141414141413" y="-19.404040404040405"/>
      <point x="1368.3131313131312" y="186.5050505050505"/>
      <point x="1368.3131313131312" y="613.2424242424242" type="curve" smooth="yes"/>
      <point x="1368.3131313131312" y="1480.0" type="line"/>
      <point x="1049.5858585858587" y="1480.0" type="line"/>
      <point x="1049.5858585858587" y="581.4797979797979" type="line" smooth="yes"/>
      <point x="1049.5858585858587" y="345.63636363636357"/>
      <point x="951.2828282828283" y="247.37373737373733"/>
      <point x="750.8838383838383" y="247.37373737373733" type="curve" smooth="yes"/>
      <point x="550.4848484848485" y="247.37373737373733"/>
      <point x="451.4797979797979" y="345.63636363636357"/>
      <point x="451.4797979797979" y="581.4797979797979" type="curve" smooth="yes"/>
      <point x="451.4797979797979" y="1480.0" type="line"/>
      <point x="126.54040404040404" y="1480.0" type="line"/>
      <point x="126.54040404040404" y="613.2424242424242" type="line" smooth="yes"/>
      <point x="126.54040404040404" y="186.5050505050505"/>
      <point x="318.93939393939394" y="-19.404040404040405"/>
    </contour>
    <contour>
      <point x="1008.090909090909" y="1605.7575757575758" type="curve" smooth="yes"/>
      <point x="1121.3131313131312" y="1605.7575757575758"/>
      <point x="1179.6060606060605" y="1659.2424242424242"/>
      <point x="1179.6060606060605" y="1750.5959595959596" type="curve" smooth="yes"/>
      <point x="1179.6060606060605" y="1841.949494949495"/>
      <point x="1121.3131313131312" y="1896.030303030303"/>
      <point x="1008.090909090909" y="1896.030303030303" type="curve" smooth="yes"/>
      <point x="894.8686868686868" y="1896.030303030303"/>
      <point x="836.5757575757576" y="1841.949494949495"/>
      <point x="836.5757575757576" y="1750.5959595959596" type="curve" smooth="yes"/>
      <point x="836.5757575757576" y="1659.2424242424242"/>
      <point x="894.8686868686868" y="1605.7575757575758"/>
    </contour>
    <contour>
      <point x="493.67676767676767" y="1605.7575757575758" type="curve" smooth="yes"/>
      <point x="606.8989898989898" y="1605.7575757575758"/>
      <point x="665.1919191919192" y="1659.2424242424242"/>
      <point x="665.1919191919192" y="1750.5959595959596" type="curve" smooth="yes"/>
      <point x="665.1919191919192" y="1841.949494949495"/>
      <point x="606.8989898989898" y="1896.030303030303"/>
      <point x="493.67676767676767" y="1896.030303030303" type="curve" smooth="yes"/>
      <point x="380.45454545454544" y="1896.030303030303"/>
      <point x="322.16161616161617" y="1841.949494949495"/>
      <point x="322.16161616161617" y="1750.5959595959596" type="curve" smooth="yes"/>
      <point x="322.16161616161617" y="1659.2424242424242"/>
      <point x="380.45454545454544" y="1605.7575757575758"/>
    </contour>
  </outline>
</glyph>
<glyph name="Yacute" format="2">
  <advance width="1285.3989898989898"/>
  <unicode hex="00DD"/>
  <anchor x="643.0505050505051" y="1520.0" name="_top"/>
  <anchor x="642.3484848484848" y="0.0" name="bottom"/>
  <anchor x="643.0505050505051" y="1520.0" name="top"/>
  <anchor x="-7.762626262626259" y="1480.0" name="topleft"/>
  <outline>
    <contour>
      <point x="481.9848484848485" y="0.0" type="line"/>
      <point x="806.9242424242424" y="0.0" type="line"/>
      <point x="806.9242424242424" y="753.3333333333334" type="line"/>
      <point x="741.1868686868686" y="519.3181818181819" type="line"/>
      <point x="1325.8838383838383" y="1480.0" type="line"/>
      <point x="1005.7929292929293" y="1480.0" type="line"/>
      <point x="605.989898989899" y="826.0050505050505" type="line"/>
      <point x="697.5555555555555" y="826.0050505050505" type="line"/>
      <point x="292.8585858585858" y="1480.0" type="line"/>
      <point x="-51.994949494949495" y="1480.0" type="line"/>
      <point x="547.7222222222222" y="519.3181818181819" type="line"/>
      <point x="481.9848484848485" y="757.5454545454545" type="line"/>
    </contour>
    <contour>
      <point x="498.02525252525254" y="1594.939393939394" type="line"/>
      <point x="785.2676767676767" y="1594.939393939394" type="line"/>
      <point x="1013.8787878787878" y="1897.828282828283" type="line"/>
      <point x="678.6414141414141" y="1897.828282828283" type="line"/>
    </contour>
  </outline>
</glyph>
<glyph name="Thorn" format="2">
  <advance width="1326.681818181818"/>
  <unicode hex="00DE"/>
  <outline>
    <contour>
      <point x="133.13636363636365" y="0.0" type="line"/>
      <point x="458.0757575757575" y="0.0" type="line"/>
      <point x="458.0757575757575" y="230.34848484848487" type="line"/>
      <point x="506.88888888888886" y="227.96464646464648"/>
      <point x="551.8282828282828" y="225.66666666666669"/>
      <point x="604.1515151515151" y="225.66666666666669" type="curve" smooth="yes"/>
      <point x="1027.5555555555554" y="225.66666666666669"/>
      <point x="1243.6565656565656" y="407.79292929292933"/>
      <point x="1243.6565656565656" y="760.2979797979798" type="curve" smooth="yes"/>
      <point x="1243.6565656565656" y="1130.6969696969697"/>
      <point x="1022.5757575757575" y="1295.0353535353536"/>
      <point x="586.1616161616162" y="1295.0353535353536" type="curve" smooth="yes"/>
      <point x="538.7474747474747" y="1295.0353535353536"/>
      <point x="492.97474747474746" y="1290.6515151515152"/>
      <point x="458.0757575757575" y="1287.0757575757575" type="curve"/>
      <point x="458.0757575757575" y="1480.29797979798" type="line"/>
      <point x="133.13636363636365" y="1480.29797979798" type="line"/>
    </contour>
    <contour>
      <point x="605.0454545454545" y="469.9797979797979" type="curve" smooth="yes"/>
      <point x="549.4242424242424" y="469.9797979797979"/>
      <point x="506.50505050505046" y="472.57575757575756"/>
      <point x="458.0757575757575" y="478.3636363636363" type="curve"/>
      <point x="458.0757575757575" y="1038.550505050505" type="line"/>
      <point x="505.27272727272725" y="1046.9343434343434"/>
      <point x="550.8535353535353" y="1050.7222222222222"/>
      <point x="610.7323232323232" y="1050.7222222222222" type="curve" smooth="yes"/>
      <point x="826.6212121212121" y="1050.7222222222222"/>
      <point x="928.0555555555555" y="963.439393939394"/>
      <point x="928.0555555555555" y="758.0" type="curve" smooth="yes"/>
      <point x="928.0555555555555" y="553.8181818181818"/>
      <point x="827.8131313131313" y="469.9797979797979"/>
    </contour>
  </outline>
</glyph>
